<svg xmlns="http://www.w3.org/2000/svg"
    xmlns:xlink="http://www.w3.org/1999/xlink" width="2000" zoomAndPan="magnify" viewBox="0 0 1500 449.999984" height="600" preserveAspectRatio="xMidYMid meet" version="1.0">
    <defs>
        <g/>
    </defs>
    <g fill="#ffffff" fill-opacity="1">
        <g transform="translate(134.98999, 232.193536)">
            <g>
                <path d="M 5.90625 -19.5625 C 5.113281 -19.5625 4.390625 -19.804688 3.734375 -20.296875 C 3.085938 -20.796875 2.570312 -21.441406 2.1875 -22.234375 C 1.800781 -23.023438 1.609375 -23.816406 1.609375 -24.609375 C 1.609375 -26.234375 2.21875 -27.5625 3.4375 -28.59375 C 4.65625 -29.625 6.144531 -30.394531 7.90625 -30.90625 C 8.164062 -31.019531 8.394531 -30.988281 8.59375 -30.8125 C 8.789062 -30.644531 8.890625 -30.4375 8.890625 -30.1875 C 8.890625 -29.90625 8.742188 -29.707031 8.453125 -29.59375 C 7.234375 -29.132812 6.328125 -28.597656 5.734375 -27.984375 C 5.140625 -27.378906 4.84375 -26.65625 4.84375 -25.8125 C 4.84375 -25.320312 4.984375 -24.925781 5.265625 -24.625 C 5.554688 -24.332031 5.957031 -24.019531 6.46875 -23.6875 C 6.976562 -23.34375 7.363281 -23.03125 7.625 -22.75 C 7.894531 -22.46875 8.03125 -22.113281 8.03125 -21.6875 C 8.03125 -21.144531 7.820312 -20.65625 7.40625 -20.21875 C 7 -19.78125 6.5 -19.5625 5.90625 -19.5625 Z M 14.40625 -19.5625 C 13.613281 -19.5625 12.890625 -19.804688 12.234375 -20.296875 C 11.585938 -20.796875 11.070312 -21.441406 10.6875 -22.234375 C 10.3125 -23.023438 10.125 -23.816406 10.125 -24.609375 C 10.125 -26.234375 10.734375 -27.5625 11.953125 -28.59375 C 13.171875 -29.625 14.65625 -30.394531 16.40625 -30.90625 C 16.664062 -31.019531 16.894531 -30.988281 17.09375 -30.8125 C 17.289062 -30.644531 17.390625 -30.4375 17.390625 -30.1875 C 17.390625 -29.90625 17.25 -29.707031 16.96875 -29.59375 C 15.75 -29.132812 14.835938 -28.597656 14.234375 -27.984375 C 13.640625 -27.378906 13.34375 -26.65625 13.34375 -25.8125 C 13.34375 -25.320312 13.484375 -24.925781 13.765625 -24.625 C 14.054688 -24.332031 14.457031 -24.019531 14.96875 -23.6875 C 15.476562 -23.34375 15.863281 -23.03125 16.125 -22.75 C 16.394531 -22.46875 16.53125 -22.113281 16.53125 -21.6875 C 16.53125 -21.144531 16.328125 -20.65625 15.921875 -20.21875 C 15.515625 -19.78125 15.007812 -19.5625 14.40625 -19.5625 Z M 14.40625 -19.5625 "/>
            </g>
        </g>
    </g>
    <g fill="#ffffff" fill-opacity="1">
        <g transform="translate(163.682103, 232.193536)">
            <g>
                <path d="M 0.25 0.125 C 0 0.125 -0.1875 0.0351562 -0.3125 -0.140625 C -0.445312 -0.328125 -0.515625 -0.550781 -0.515625 -0.8125 C -0.484375 -1.238281 -0.394531 -1.492188 -0.25 -1.578125 C -0.113281 -1.660156 0.0507812 -1.703125 0.25 -1.703125 C 0.445312 -1.703125 0.578125 -1.703125 0.640625 -1.703125 C 1.484375 -1.703125 2.101562 -1.921875 2.5 -2.359375 C 2.90625 -2.796875 3.226562 -3.289062 3.46875 -3.84375 C 3.707031 -4.394531 3.867188 -4.769531 3.953125 -4.96875 L 11.390625 -22.578125 C 11.566406 -23.003906 11.65625 -23.34375 11.65625 -23.59375 C 11.65625 -24.101562 11.453125 -24.472656 11.046875 -24.703125 C 10.648438 -24.929688 10.097656 -25.113281 9.390625 -25.25 C 8.910156 -25.332031 8.613281 -25.414062 8.5 -25.5 C 8.382812 -25.59375 8.328125 -25.835938 8.328125 -26.234375 C 8.328125 -26.578125 8.421875 -26.800781 8.609375 -26.90625 C 8.796875 -27.019531 9.085938 -27.078125 9.484375 -27.078125 C 10.898438 -27.078125 12.023438 -26.96875 12.859375 -26.75 C 13.691406 -26.539062 14.421875 -26.117188 15.046875 -25.484375 C 15.671875 -24.847656 16.253906 -23.878906 16.796875 -22.578125 L 23.9375 -4.96875 C 24.363281 -3.894531 24.773438 -3.085938 25.171875 -2.546875 C 25.566406 -2.015625 26.160156 -1.734375 26.953125 -1.703125 L 27.203125 -1.703125 C 27.492188 -1.703125 27.691406 -1.648438 27.796875 -1.546875 C 27.910156 -1.453125 27.984375 -1.207031 28.015625 -0.8125 C 28.015625 -0.550781 27.953125 -0.328125 27.828125 -0.140625 C 27.703125 0.0351562 27.507812 0.125 27.25 0.125 C 25.4375 0.0390625 23.878906 0 22.578125 0 C 20.878906 0 19.117188 0.0390625 17.296875 0.125 C 17.046875 0.125 16.851562 0.0351562 16.71875 -0.140625 C 16.59375 -0.328125 16.53125 -0.550781 16.53125 -0.8125 C 16.5625 -1.207031 16.632812 -1.453125 16.75 -1.546875 C 16.863281 -1.648438 17.0625 -1.703125 17.34375 -1.703125 C 18.3125 -1.703125 18.992188 -1.789062 19.390625 -1.96875 C 19.785156 -2.15625 19.984375 -2.488281 19.984375 -2.96875 C 19.984375 -3.34375 19.8125 -4.007812 19.46875 -4.96875 L 18.03125 -8.5 L 7.53125 -8.5 C 6.820312 -6.738281 6.414062 -5.71875 6.3125 -5.4375 C 6.21875 -5.15625 6.171875 -5 6.171875 -4.96875 C 5.828125 -3.894531 5.65625 -3.203125 5.65625 -2.890625 C 5.65625 -2.410156 5.867188 -2.09375 6.296875 -1.9375 C 6.722656 -1.78125 7.53125 -1.703125 8.71875 -1.703125 L 8.96875 -1.703125 C 9.25 -1.703125 9.445312 -1.648438 9.5625 -1.546875 C 9.675781 -1.453125 9.75 -1.207031 9.78125 -0.8125 C 9.78125 -0.550781 9.710938 -0.328125 9.578125 -0.140625 C 9.453125 0.0351562 9.265625 0.125 9.015625 0.125 C 7.203125 0.0390625 5.65625 0 4.375 0 C 3.46875 0 2.09375 0.0390625 0.25 0.125 Z M 8.328125 -10.328125 L 17.265625 -10.328125 L 12.96875 -21.25 L 12.84375 -21.25 Z M 8.328125 -10.328125 "/>
            </g>
        </g>
    </g>
    <g fill="#ffffff" fill-opacity="1">
        <g transform="translate(202.022602, 232.193536)">
            <g/>
        </g>
    </g>
    <g fill="#ffffff" fill-opacity="1">
        <g transform="translate(222.086422, 232.193536)">
            <g>
                <path d="M 11.65625 0.515625 C 9.726562 0.515625 8.007812 0.0546875 6.5 -0.859375 C 5 -1.785156 3.832031 -3.003906 3 -4.515625 C 2.164062 -6.035156 1.75 -7.648438 1.75 -9.359375 C 1.75 -11.484375 2.242188 -13.332031 3.234375 -14.90625 C 4.222656 -16.476562 5.484375 -17.679688 7.015625 -18.515625 C 8.546875 -19.347656 10.09375 -19.765625 11.65625 -19.765625 C 13.582031 -19.765625 15.296875 -19.300781 16.796875 -18.375 C 18.296875 -17.457031 19.460938 -16.238281 20.296875 -14.71875 C 21.140625 -13.207031 21.5625 -11.601562 21.5625 -9.90625 C 21.5625 -7.78125 21.054688 -5.929688 20.046875 -4.359375 C 19.035156 -2.785156 17.765625 -1.578125 16.234375 -0.734375 C 14.703125 0.0976562 13.175781 0.515625 11.65625 0.515625 Z M 11.65625 -1.0625 C 13.582031 -1.0625 14.988281 -1.882812 15.875 -3.53125 C 16.769531 -5.175781 17.21875 -7.300781 17.21875 -9.90625 C 17.21875 -12.34375 16.753906 -14.332031 15.828125 -15.875 C 14.910156 -17.425781 13.519531 -18.203125 11.65625 -18.203125 C 9.695312 -18.203125 8.273438 -17.390625 7.390625 -15.765625 C 6.515625 -14.148438 6.078125 -12.039062 6.078125 -9.4375 C 6.078125 -7 6.53125 -4.992188 7.4375 -3.421875 C 8.34375 -1.847656 9.75 -1.0625 11.65625 -1.0625 Z M 11.65625 -1.0625 "/>
            </g>
        </g>
    </g>
    <g fill="#ffffff" fill-opacity="1">
        <g transform="translate(255.96401, 232.193536)">
            <g>
                <path d="M 2.078125 0.125 C 1.878906 0.125 1.71875 0.0390625 1.59375 -0.125 C 1.46875 -0.289062 1.40625 -0.488281 1.40625 -0.71875 C 1.4375 -1.09375 1.519531 -1.3125 1.65625 -1.375 C 1.800781 -1.445312 2.054688 -1.484375 2.421875 -1.484375 C 3.160156 -1.484375 3.6875 -1.609375 4 -1.859375 C 4.3125 -2.117188 4.488281 -2.421875 4.53125 -2.765625 C 4.570312 -3.109375 4.59375 -3.644531 4.59375 -4.375 L 4.59375 -14.109375 C 4.59375 -14.847656 4.570312 -15.382812 4.53125 -15.71875 C 4.488281 -16.0625 4.3125 -16.359375 4 -16.609375 C 3.6875 -16.867188 3.160156 -17 2.421875 -17 C 2.078125 -17 1.820312 -17.046875 1.65625 -17.140625 C 1.488281 -17.242188 1.40625 -17.484375 1.40625 -17.859375 C 1.40625 -18.023438 1.460938 -18.1875 1.578125 -18.34375 C 1.691406 -18.5 1.859375 -18.59375 2.078125 -18.625 C 3.921875 -18.90625 5.4375 -19.273438 6.625 -19.734375 C 7.113281 -19.867188 7.441406 -19.953125 7.609375 -19.984375 L 7.734375 -19.984375 C 8.191406 -19.984375 8.421875 -19.710938 8.421875 -19.171875 L 8.421875 -16.5 L 8.546875 -16.5 C 9.367188 -17.257812 10.035156 -17.84375 10.546875 -18.25 C 11.054688 -18.664062 11.710938 -19.019531 12.515625 -19.3125 C 13.328125 -19.613281 14.285156 -19.765625 15.390625 -19.765625 C 17.316406 -19.765625 18.847656 -19.179688 19.984375 -18.015625 C 21.117188 -16.859375 21.6875 -15.332031 21.6875 -13.4375 L 21.6875 -4.375 C 21.6875 -3.644531 21.710938 -3.109375 21.765625 -2.765625 C 21.828125 -2.421875 22.007812 -2.117188 22.3125 -1.859375 C 22.625 -1.609375 23.148438 -1.484375 23.890625 -1.484375 L 24.15625 -1.484375 C 24.375 -1.484375 24.539062 -1.441406 24.65625 -1.359375 C 24.769531 -1.273438 24.84375 -1.0625 24.875 -0.71875 C 24.875 -0.488281 24.804688 -0.289062 24.671875 -0.125 C 24.546875 0.0390625 24.382812 0.125 24.1875 0.125 C 22.539062 0.0390625 21.054688 0 19.734375 0 C 18.453125 0 16.976562 0.0390625 15.3125 0.125 C 15.113281 0.125 14.945312 0.0390625 14.8125 -0.125 C 14.6875 -0.289062 14.625 -0.488281 14.625 -0.71875 C 14.65625 -1.09375 14.734375 -1.3125 14.859375 -1.375 C 14.984375 -1.445312 15.234375 -1.484375 15.609375 -1.484375 C 16.335938 -1.484375 16.859375 -1.609375 17.171875 -1.859375 C 17.484375 -2.117188 17.664062 -2.421875 17.71875 -2.765625 C 17.78125 -3.109375 17.8125 -3.644531 17.8125 -4.375 L 17.8125 -13.390625 C 17.8125 -14.691406 17.398438 -15.691406 16.578125 -16.390625 C 15.753906 -17.085938 14.804688 -17.4375 13.734375 -17.4375 C 12.429688 -17.4375 11.3125 -17.113281 10.375 -16.46875 C 9.4375 -15.832031 8.796875 -15.175781 8.453125 -14.5 L 8.453125 -4.375 C 8.453125 -3.644531 8.476562 -3.109375 8.53125 -2.765625 C 8.59375 -2.421875 8.78125 -2.117188 9.09375 -1.859375 C 9.40625 -1.609375 9.929688 -1.484375 10.671875 -1.484375 L 10.921875 -1.484375 C 11.148438 -1.484375 11.320312 -1.441406 11.4375 -1.359375 C 11.550781 -1.273438 11.625 -1.0625 11.65625 -0.71875 C 11.65625 -0.488281 11.597656 -0.289062 11.484375 -0.125 C 11.367188 0.0390625 11.195312 0.125 10.96875 0.125 C 9.320312 0.0390625 7.832031 0 6.5 0 C 5.226562 0 3.753906 0.0390625 2.078125 0.125 Z M 2.078125 0.125 "/>
            </g>
        </g>
    </g>
    <g fill="#ffffff" fill-opacity="1">
        <g transform="translate(292.009291, 232.193536)">
            <g>
                <path d="M 11.6875 0.515625 C 9.5625 0.515625 7.753906 0.0625 6.265625 -0.84375 C 4.773438 -1.75 3.648438 -2.984375 2.890625 -4.546875 C 2.128906 -6.109375 1.75 -7.835938 1.75 -9.734375 C 1.75 -11.410156 2.132812 -13.019531 2.90625 -14.5625 C 3.6875 -16.101562 4.800781 -17.351562 6.25 -18.3125 C 7.695312 -19.28125 9.351562 -19.765625 11.21875 -19.765625 C 13.75 -19.765625 15.691406 -19.117188 17.046875 -17.828125 C 18.410156 -16.546875 19.191406 -14.8125 19.390625 -12.625 C 19.390625 -11.6875 19.132812 -11.046875 18.625 -10.703125 C 18.113281 -10.367188 17.375 -10.203125 16.40625 -10.203125 L 6.078125 -10.203125 C 6.078125 -7.566406 6.625 -5.472656 7.71875 -3.921875 C 8.8125 -2.378906 10.503906 -1.609375 12.796875 -1.609375 C 14.015625 -1.609375 15.046875 -1.867188 15.890625 -2.390625 C 16.742188 -2.921875 17.554688 -3.8125 18.328125 -5.0625 C 18.460938 -5.195312 18.601562 -5.265625 18.75 -5.265625 C 18.945312 -5.265625 19.117188 -5.210938 19.265625 -5.109375 C 19.546875 -4.929688 19.6875 -4.675781 19.6875 -4.34375 C 19.6875 -4.164062 19.65625 -4.035156 19.59375 -3.953125 C 18.71875 -2.535156 17.609375 -1.4375 16.265625 -0.65625 C 14.921875 0.125 13.394531 0.515625 11.6875 0.515625 Z M 13.015625 -11.8125 C 14.453125 -11.8125 15.21875 -12.410156 15.3125 -13.609375 C 15.3125 -14.910156 14.957031 -16.015625 14.25 -16.921875 C 13.539062 -17.828125 12.53125 -18.28125 11.21875 -18.28125 C 9.78125 -18.28125 8.59375 -17.707031 7.65625 -16.5625 C 6.71875 -15.414062 6.191406 -13.832031 6.078125 -11.8125 Z M 13.015625 -11.8125 "/>
            </g>
        </g>
    </g>
    <g fill="#ffffff" fill-opacity="1">
        <g transform="translate(323.931701, 232.193536)">
            <g/>
        </g>
    </g>
    <g fill="#ffffff" fill-opacity="1">
        <g transform="translate(343.995527, 232.193536)">
            <g>
                <path d="M 9.265625 0.515625 C 6.992188 0.515625 5.148438 0.117188 3.734375 -0.671875 C 2.316406 -1.472656 1.609375 -2.59375 1.609375 -4.03125 C 1.609375 -4.851562 1.859375 -5.519531 2.359375 -6.03125 C 2.859375 -6.539062 3.503906 -6.796875 4.296875 -6.796875 C 4.742188 -6.796875 5.144531 -6.664062 5.5 -6.40625 C 5.851562 -6.15625 6.03125 -5.960938 6.03125 -5.828125 C 6.03125 -5.796875 5.867188 -5.609375 5.546875 -5.265625 C 5.222656 -4.929688 5.0625 -4.453125 5.0625 -3.828125 C 5.0625 -2.972656 5.445312 -2.296875 6.21875 -1.796875 C 7 -1.304688 8.128906 -1.0625 9.609375 -1.0625 C 10.941406 -1.0625 11.984375 -1.351562 12.734375 -1.9375 C 13.484375 -2.519531 13.859375 -3.332031 13.859375 -4.375 C 13.859375 -5.082031 13.644531 -5.660156 13.21875 -6.109375 C 12.789062 -6.566406 12.257812 -6.921875 11.625 -7.171875 C 10.988281 -7.429688 10.101562 -7.734375 8.96875 -8.078125 C 7.582031 -8.472656 6.445312 -8.867188 5.5625 -9.265625 C 4.6875 -9.660156 3.9375 -10.253906 3.3125 -11.046875 C 2.6875 -11.847656 2.375 -12.882812 2.375 -14.15625 C 2.375 -15.34375 2.742188 -16.363281 3.484375 -17.21875 C 4.222656 -18.070312 5.179688 -18.707031 6.359375 -19.125 C 7.535156 -19.550781 8.773438 -19.765625 10.078125 -19.765625 C 11.742188 -19.765625 13.191406 -19.410156 14.421875 -18.703125 C 15.660156 -17.992188 16.28125 -17.003906 16.28125 -15.734375 C 16.28125 -14.960938 16.046875 -14.304688 15.578125 -13.765625 C 15.109375 -13.234375 14.492188 -12.96875 13.734375 -12.96875 C 13.273438 -12.96875 12.867188 -13.09375 12.515625 -13.34375 C 12.160156 -13.601562 11.984375 -13.800781 11.984375 -13.9375 C 11.984375 -13.96875 12.097656 -14.082031 12.328125 -14.28125 C 12.554688 -14.476562 12.757812 -14.710938 12.9375 -14.984375 C 13.125 -15.253906 13.21875 -15.570312 13.21875 -15.9375 C 13.164062 -16.707031 12.785156 -17.300781 12.078125 -17.71875 C 11.367188 -18.144531 10.53125 -18.359375 9.5625 -18.359375 C 8.488281 -18.359375 7.546875 -18.109375 6.734375 -17.609375 C 5.929688 -17.117188 5.53125 -16.4375 5.53125 -15.5625 C 5.53125 -14.769531 5.695312 -14.140625 6.03125 -13.671875 C 6.375 -13.203125 6.882812 -12.820312 7.5625 -12.53125 C 8.25 -12.25 9.328125 -11.867188 10.796875 -11.390625 C 12.296875 -10.910156 13.472656 -10.460938 14.328125 -10.046875 C 15.179688 -9.640625 15.851562 -9.085938 16.34375 -8.390625 C 16.84375 -7.703125 17.09375 -6.789062 17.09375 -5.65625 C 17.09375 -4.488281 16.75 -3.429688 16.0625 -2.484375 C 15.382812 -1.535156 14.453125 -0.796875 13.265625 -0.265625 C 12.078125 0.253906 10.742188 0.515625 9.265625 0.515625 Z M 9.265625 0.515625 "/>
            </g>
        </g>
    </g>
    <g fill="#ffffff" fill-opacity="1">
        <g transform="translate(373.410206, 232.193536)">
            <g>
                <path d="M 9.1875 0.71875 C 7.789062 0.71875 6.597656 0.207031 5.609375 -0.8125 C 4.617188 -1.832031 4.125 -3.289062 4.125 -5.1875 L 4.125 -17.6875 L 1.65625 -17.59375 C 1.488281 -17.59375 1.347656 -17.671875 1.234375 -17.828125 C 1.117188 -17.984375 1.0625 -18.160156 1.0625 -18.359375 C 1.0625 -18.617188 1.109375 -18.835938 1.203125 -19.015625 C 1.304688 -19.203125 1.457031 -19.3125 1.65625 -19.34375 C 2.644531 -19.539062 3.414062 -19.859375 3.96875 -20.296875 C 4.519531 -20.734375 4.921875 -21.210938 5.171875 -21.734375 C 5.429688 -22.265625 5.75 -23.070312 6.125 -24.15625 C 6.257812 -24.519531 6.570312 -24.703125 7.0625 -24.703125 C 7.257812 -24.703125 7.457031 -24.648438 7.65625 -24.546875 C 7.851562 -24.453125 7.953125 -24.304688 7.953125 -24.109375 L 7.65625 -19.265625 L 12.625 -19.5625 L 12.71875 -19.5625 C 13.082031 -19.5625 13.265625 -19.289062 13.265625 -18.75 C 13.265625 -18.4375 13.210938 -18.144531 13.109375 -17.875 C 13.015625 -17.601562 12.894531 -17.46875 12.75 -17.46875 L 8 -17.59375 L 8 -4.671875 C 8 -3.742188 8.1875 -2.96875 8.5625 -2.34375 C 8.945312 -1.71875 9.578125 -1.40625 10.453125 -1.40625 C 11.335938 -1.40625 12.117188 -1.5625 12.796875 -1.875 C 13.160156 -2.007812 13.390625 -2.078125 13.484375 -2.078125 C 13.679688 -2.078125 13.832031 -2 13.9375 -1.84375 C 14.050781 -1.6875 14.164062 -1.484375 14.28125 -1.234375 C 14.3125 -1.171875 14.328125 -1.097656 14.328125 -1.015625 C 14.328125 -0.898438 14.242188 -0.773438 14.078125 -0.640625 C 13.253906 -0.0976562 12.476562 0.257812 11.75 0.4375 C 11.03125 0.625 10.175781 0.71875 9.1875 0.71875 Z M 9.1875 0.71875 "/>
            </g>
        </g>
    </g>
    <g fill="#ffffff" fill-opacity="1">
        <g transform="translate(400.104646, 232.193536)">
            <g>
                <path d="M 11.65625 0.515625 C 9.726562 0.515625 8.007812 0.0546875 6.5 -0.859375 C 5 -1.785156 3.832031 -3.003906 3 -4.515625 C 2.164062 -6.035156 1.75 -7.648438 1.75 -9.359375 C 1.75 -11.484375 2.242188 -13.332031 3.234375 -14.90625 C 4.222656 -16.476562 5.484375 -17.679688 7.015625 -18.515625 C 8.546875 -19.347656 10.09375 -19.765625 11.65625 -19.765625 C 13.582031 -19.765625 15.296875 -19.300781 16.796875 -18.375 C 18.296875 -17.457031 19.460938 -16.238281 20.296875 -14.71875 C 21.140625 -13.207031 21.5625 -11.601562 21.5625 -9.90625 C 21.5625 -7.78125 21.054688 -5.929688 20.046875 -4.359375 C 19.035156 -2.785156 17.765625 -1.578125 16.234375 -0.734375 C 14.703125 0.0976562 13.175781 0.515625 11.65625 0.515625 Z M 11.65625 -1.0625 C 13.582031 -1.0625 14.988281 -1.882812 15.875 -3.53125 C 16.769531 -5.175781 17.21875 -7.300781 17.21875 -9.90625 C 17.21875 -12.34375 16.753906 -14.332031 15.828125 -15.875 C 14.910156 -17.425781 13.519531 -18.203125 11.65625 -18.203125 C 9.695312 -18.203125 8.273438 -17.390625 7.390625 -15.765625 C 6.515625 -14.148438 6.078125 -12.039062 6.078125 -9.4375 C 6.078125 -7 6.53125 -4.992188 7.4375 -3.421875 C 8.34375 -1.847656 9.75 -1.0625 11.65625 -1.0625 Z M 11.65625 -1.0625 "/>
            </g>
        </g>
    </g>
    <g fill="#ffffff" fill-opacity="1">
        <g transform="translate(433.982245, 232.193536)">
            <g>
                <path d="M 1.65625 8.84375 C 1.457031 8.84375 1.296875 8.753906 1.171875 8.578125 C 1.046875 8.410156 0.984375 8.21875 0.984375 8 C 1.003906 7.625 1.078125 7.398438 1.203125 7.328125 C 1.335938 7.265625 1.585938 7.234375 1.953125 7.234375 C 2.660156 7.234375 3.171875 7.101562 3.484375 6.84375 C 3.796875 6.59375 3.988281 6.28125 4.0625 5.90625 C 4.132812 5.539062 4.171875 5.019531 4.171875 4.34375 L 4.171875 -14.109375 C 4.171875 -14.847656 4.144531 -15.382812 4.09375 -15.71875 C 4.050781 -16.0625 3.875 -16.359375 3.5625 -16.609375 C 3.257812 -16.867188 2.738281 -17 2 -17 C 1.65625 -17 1.398438 -17.046875 1.234375 -17.140625 C 1.066406 -17.242188 0.984375 -17.484375 0.984375 -17.859375 C 0.984375 -18.023438 1.035156 -18.1875 1.140625 -18.34375 C 1.253906 -18.5 1.425781 -18.59375 1.65625 -18.625 C 3.5 -18.90625 5.015625 -19.273438 6.203125 -19.734375 C 6.691406 -19.867188 7.019531 -19.953125 7.1875 -19.984375 L 7.3125 -19.984375 C 7.769531 -19.984375 8 -19.710938 8 -19.171875 L 8 -17.140625 L 8.125 -17.140625 C 8.945312 -17.898438 9.910156 -18.523438 11.015625 -19.015625 C 12.117188 -19.515625 13.164062 -19.765625 14.15625 -19.765625 C 15.851562 -19.765625 17.375 -19.335938 18.71875 -18.484375 C 20.070312 -17.640625 21.128906 -16.441406 21.890625 -14.890625 C 22.660156 -13.347656 23.046875 -11.601562 23.046875 -9.65625 C 23.046875 -7.664062 22.59375 -5.898438 21.6875 -4.359375 C 20.78125 -2.816406 19.570312 -1.617188 18.0625 -0.765625 C 16.5625 0.0859375 14.976562 0.515625 13.3125 0.515625 C 12.144531 0.515625 11.164062 0.390625 10.375 0.140625 C 9.582031 -0.0976562 8.859375 -0.414062 8.203125 -0.8125 L 8.03125 -0.8125 L 8.03125 4.34375 C 8.03125 5.019531 8.066406 5.539062 8.140625 5.90625 C 8.210938 6.28125 8.40625 6.59375 8.71875 6.84375 C 9.03125 7.101562 9.539062 7.234375 10.25 7.234375 L 10.5 7.234375 C 10.726562 7.234375 10.898438 7.273438 11.015625 7.359375 C 11.128906 7.441406 11.195312 7.65625 11.21875 8 C 11.21875 8.21875 11.160156 8.410156 11.046875 8.578125 C 10.941406 8.753906 10.773438 8.84375 10.546875 8.84375 C 8.898438 8.757812 7.410156 8.71875 6.078125 8.71875 C 4.804688 8.71875 3.332031 8.757812 1.65625 8.84375 Z M 12.96875 -0.9375 C 14.945312 -0.9375 16.394531 -1.8125 17.3125 -3.5625 C 18.238281 -5.320312 18.703125 -7.3125 18.703125 -9.53125 C 18.703125 -11.738281 18.191406 -13.640625 17.171875 -15.234375 C 16.148438 -16.835938 14.632812 -17.640625 12.625 -17.640625 C 11.632812 -17.640625 10.789062 -17.445312 10.09375 -17.0625 C 9.40625 -16.6875 8.71875 -16.144531 8.03125 -15.4375 L 8.03125 -4.03125 C 8.375 -3.1875 8.976562 -2.457031 9.84375 -1.84375 C 10.707031 -1.238281 11.75 -0.9375 12.96875 -0.9375 Z M 12.96875 -0.9375 "/>
            </g>
        </g>
    </g>
    <g fill="#ffffff" fill-opacity="1">
        <g transform="translate(469.389965, 232.193536)">
            <g/>
        </g>
    </g>
    <g fill="#ffffff" fill-opacity="1">
        <g transform="translate(489.45379, 232.193536)">
            <g>
                <path d="M 11.015625 0.515625 C 8.117188 0.515625 5.847656 -0.40625 4.203125 -2.25 C 2.566406 -4.09375 1.75 -6.5625 1.75 -9.65625 C 1.800781 -11.582031 2.269531 -13.300781 3.15625 -14.8125 C 4.050781 -16.332031 5.25 -17.523438 6.75 -18.390625 C 8.257812 -19.253906 9.921875 -19.710938 11.734375 -19.765625 C 13.546875 -19.765625 15.109375 -19.425781 16.421875 -18.75 C 17.742188 -18.070312 18.40625 -16.9375 18.40625 -15.34375 C 18.40625 -14.46875 18.144531 -13.695312 17.625 -13.03125 C 17.101562 -12.363281 16.398438 -12.03125 15.515625 -12.03125 C 14.972656 -12.03125 14.507812 -12.171875 14.125 -12.453125 C 13.75 -12.734375 13.5625 -12.976562 13.5625 -13.1875 C 13.5625 -13.207031 13.6875 -13.332031 13.9375 -13.5625 C 14.195312 -13.789062 14.429688 -14.066406 14.640625 -14.390625 C 14.859375 -14.710938 14.96875 -15.085938 14.96875 -15.515625 C 14.96875 -16.398438 14.644531 -17.066406 14 -17.515625 C 13.363281 -17.972656 12.59375 -18.203125 11.6875 -18.203125 C 9.507812 -18.203125 8.03125 -17.398438 7.25 -15.796875 C 6.46875 -14.191406 6.078125 -12.1875 6.078125 -9.78125 C 6.078125 -7.394531 6.613281 -5.4375 7.6875 -3.90625 C 8.769531 -2.375 10.203125 -1.609375 11.984375 -1.609375 C 13.203125 -1.609375 14.242188 -1.867188 15.109375 -2.390625 C 15.972656 -2.921875 16.757812 -3.722656 17.46875 -4.796875 C 17.550781 -4.941406 17.695312 -5.015625 17.90625 -5.015625 C 18.039062 -5.015625 18.191406 -4.972656 18.359375 -4.890625 C 18.503906 -4.828125 18.617188 -4.722656 18.703125 -4.578125 C 18.785156 -4.441406 18.828125 -4.304688 18.828125 -4.171875 C 18.828125 -4.078125 18.785156 -3.960938 18.703125 -3.828125 C 17.765625 -2.492188 16.601562 -1.4375 15.21875 -0.65625 C 13.832031 0.125 12.429688 0.515625 11.015625 0.515625 Z M 11.015625 0.515625 "/>
            </g>
        </g>
    </g>
    <g fill="#ffffff" fill-opacity="1">
        <g transform="translate(520.228576, 232.193536)">
            <g>
                <path d="M 11.6875 0.515625 C 9.5625 0.515625 7.753906 0.0625 6.265625 -0.84375 C 4.773438 -1.75 3.648438 -2.984375 2.890625 -4.546875 C 2.128906 -6.109375 1.75 -7.835938 1.75 -9.734375 C 1.75 -11.410156 2.132812 -13.019531 2.90625 -14.5625 C 3.6875 -16.101562 4.800781 -17.351562 6.25 -18.3125 C 7.695312 -19.28125 9.351562 -19.765625 11.21875 -19.765625 C 13.75 -19.765625 15.691406 -19.117188 17.046875 -17.828125 C 18.410156 -16.546875 19.191406 -14.8125 19.390625 -12.625 C 19.390625 -11.6875 19.132812 -11.046875 18.625 -10.703125 C 18.113281 -10.367188 17.375 -10.203125 16.40625 -10.203125 L 6.078125 -10.203125 C 6.078125 -7.566406 6.625 -5.472656 7.71875 -3.921875 C 8.8125 -2.378906 10.503906 -1.609375 12.796875 -1.609375 C 14.015625 -1.609375 15.046875 -1.867188 15.890625 -2.390625 C 16.742188 -2.921875 17.554688 -3.8125 18.328125 -5.0625 C 18.460938 -5.195312 18.601562 -5.265625 18.75 -5.265625 C 18.945312 -5.265625 19.117188 -5.210938 19.265625 -5.109375 C 19.546875 -4.929688 19.6875 -4.675781 19.6875 -4.34375 C 19.6875 -4.164062 19.65625 -4.035156 19.59375 -3.953125 C 18.71875 -2.535156 17.609375 -1.4375 16.265625 -0.65625 C 14.921875 0.125 13.394531 0.515625 11.6875 0.515625 Z M 13.015625 -11.8125 C 14.453125 -11.8125 15.21875 -12.410156 15.3125 -13.609375 C 15.3125 -14.910156 14.957031 -16.015625 14.25 -16.921875 C 13.539062 -17.828125 12.53125 -18.28125 11.21875 -18.28125 C 9.78125 -18.28125 8.59375 -17.707031 7.65625 -16.5625 C 6.71875 -15.414062 6.191406 -13.832031 6.078125 -11.8125 Z M 13.015625 -11.8125 "/>
            </g>
        </g>
    </g>
    <g fill="#ffffff" fill-opacity="1">
        <g transform="translate(552.150998, 232.193536)">
            <g>
                <path d="M 2.078125 0.125 C 1.878906 0.125 1.71875 0.0390625 1.59375 -0.125 C 1.46875 -0.289062 1.40625 -0.488281 1.40625 -0.71875 C 1.4375 -1.09375 1.519531 -1.3125 1.65625 -1.375 C 1.800781 -1.445312 2.054688 -1.484375 2.421875 -1.484375 C 3.160156 -1.484375 3.6875 -1.609375 4 -1.859375 C 4.3125 -2.117188 4.488281 -2.421875 4.53125 -2.765625 C 4.570312 -3.109375 4.59375 -3.644531 4.59375 -4.375 L 4.59375 -14.109375 C 4.59375 -14.847656 4.570312 -15.382812 4.53125 -15.71875 C 4.488281 -16.0625 4.3125 -16.359375 4 -16.609375 C 3.6875 -16.867188 3.160156 -17 2.421875 -17 C 2.078125 -17 1.820312 -17.046875 1.65625 -17.140625 C 1.488281 -17.242188 1.40625 -17.484375 1.40625 -17.859375 C 1.40625 -18.023438 1.460938 -18.1875 1.578125 -18.34375 C 1.691406 -18.5 1.859375 -18.59375 2.078125 -18.625 C 3.921875 -18.90625 5.4375 -19.273438 6.625 -19.734375 C 7.113281 -19.867188 7.441406 -19.953125 7.609375 -19.984375 L 7.734375 -19.984375 C 8.191406 -19.984375 8.421875 -19.710938 8.421875 -19.171875 L 8.421875 -16.5 L 8.546875 -16.5 C 9.367188 -17.257812 10.035156 -17.84375 10.546875 -18.25 C 11.054688 -18.664062 11.710938 -19.019531 12.515625 -19.3125 C 13.328125 -19.613281 14.285156 -19.765625 15.390625 -19.765625 C 17.316406 -19.765625 18.847656 -19.179688 19.984375 -18.015625 C 21.117188 -16.859375 21.6875 -15.332031 21.6875 -13.4375 L 21.6875 -4.375 C 21.6875 -3.644531 21.710938 -3.109375 21.765625 -2.765625 C 21.828125 -2.421875 22.007812 -2.117188 22.3125 -1.859375 C 22.625 -1.609375 23.148438 -1.484375 23.890625 -1.484375 L 24.15625 -1.484375 C 24.375 -1.484375 24.539062 -1.441406 24.65625 -1.359375 C 24.769531 -1.273438 24.84375 -1.0625 24.875 -0.71875 C 24.875 -0.488281 24.804688 -0.289062 24.671875 -0.125 C 24.546875 0.0390625 24.382812 0.125 24.1875 0.125 C 22.539062 0.0390625 21.054688 0 19.734375 0 C 18.453125 0 16.976562 0.0390625 15.3125 0.125 C 15.113281 0.125 14.945312 0.0390625 14.8125 -0.125 C 14.6875 -0.289062 14.625 -0.488281 14.625 -0.71875 C 14.65625 -1.09375 14.734375 -1.3125 14.859375 -1.375 C 14.984375 -1.445312 15.234375 -1.484375 15.609375 -1.484375 C 16.335938 -1.484375 16.859375 -1.609375 17.171875 -1.859375 C 17.484375 -2.117188 17.664062 -2.421875 17.71875 -2.765625 C 17.78125 -3.109375 17.8125 -3.644531 17.8125 -4.375 L 17.8125 -13.390625 C 17.8125 -14.691406 17.398438 -15.691406 16.578125 -16.390625 C 15.753906 -17.085938 14.804688 -17.4375 13.734375 -17.4375 C 12.429688 -17.4375 11.3125 -17.113281 10.375 -16.46875 C 9.4375 -15.832031 8.796875 -15.175781 8.453125 -14.5 L 8.453125 -4.375 C 8.453125 -3.644531 8.476562 -3.109375 8.53125 -2.765625 C 8.59375 -2.421875 8.78125 -2.117188 9.09375 -1.859375 C 9.40625 -1.609375 9.929688 -1.484375 10.671875 -1.484375 L 10.921875 -1.484375 C 11.148438 -1.484375 11.320312 -1.441406 11.4375 -1.359375 C 11.550781 -1.273438 11.625 -1.0625 11.65625 -0.71875 C 11.65625 -0.488281 11.597656 -0.289062 11.484375 -0.125 C 11.367188 0.0390625 11.195312 0.125 10.96875 0.125 C 9.320312 0.0390625 7.832031 0 6.5 0 C 5.226562 0 3.753906 0.0390625 2.078125 0.125 Z M 2.078125 0.125 "/>
            </g>
        </g>
    </g>
    <g fill="#ffffff" fill-opacity="1">
        <g transform="translate(588.196268, 232.193536)">
            <g>
                <path d="M 9.1875 0.71875 C 7.789062 0.71875 6.597656 0.207031 5.609375 -0.8125 C 4.617188 -1.832031 4.125 -3.289062 4.125 -5.1875 L 4.125 -17.6875 L 1.65625 -17.59375 C 1.488281 -17.59375 1.347656 -17.671875 1.234375 -17.828125 C 1.117188 -17.984375 1.0625 -18.160156 1.0625 -18.359375 C 1.0625 -18.617188 1.109375 -18.835938 1.203125 -19.015625 C 1.304688 -19.203125 1.457031 -19.3125 1.65625 -19.34375 C 2.644531 -19.539062 3.414062 -19.859375 3.96875 -20.296875 C 4.519531 -20.734375 4.921875 -21.210938 5.171875 -21.734375 C 5.429688 -22.265625 5.75 -23.070312 6.125 -24.15625 C 6.257812 -24.519531 6.570312 -24.703125 7.0625 -24.703125 C 7.257812 -24.703125 7.457031 -24.648438 7.65625 -24.546875 C 7.851562 -24.453125 7.953125 -24.304688 7.953125 -24.109375 L 7.65625 -19.265625 L 12.625 -19.5625 L 12.71875 -19.5625 C 13.082031 -19.5625 13.265625 -19.289062 13.265625 -18.75 C 13.265625 -18.4375 13.210938 -18.144531 13.109375 -17.875 C 13.015625 -17.601562 12.894531 -17.46875 12.75 -17.46875 L 8 -17.59375 L 8 -4.671875 C 8 -3.742188 8.1875 -2.96875 8.5625 -2.34375 C 8.945312 -1.71875 9.578125 -1.40625 10.453125 -1.40625 C 11.335938 -1.40625 12.117188 -1.5625 12.796875 -1.875 C 13.160156 -2.007812 13.390625 -2.078125 13.484375 -2.078125 C 13.679688 -2.078125 13.832031 -2 13.9375 -1.84375 C 14.050781 -1.6875 14.164062 -1.484375 14.28125 -1.234375 C 14.3125 -1.171875 14.328125 -1.097656 14.328125 -1.015625 C 14.328125 -0.898438 14.242188 -0.773438 14.078125 -0.640625 C 13.253906 -0.0976562 12.476562 0.257812 11.75 0.4375 C 11.03125 0.625 10.175781 0.71875 9.1875 0.71875 Z M 9.1875 0.71875 "/>
            </g>
        </g>
    </g>
    <g fill="#ffffff" fill-opacity="1">
        <g transform="translate(614.890708, 232.193536)">
            <g>
                <path d="M 11.6875 0.515625 C 9.5625 0.515625 7.753906 0.0625 6.265625 -0.84375 C 4.773438 -1.75 3.648438 -2.984375 2.890625 -4.546875 C 2.128906 -6.109375 1.75 -7.835938 1.75 -9.734375 C 1.75 -11.410156 2.132812 -13.019531 2.90625 -14.5625 C 3.6875 -16.101562 4.800781 -17.351562 6.25 -18.3125 C 7.695312 -19.28125 9.351562 -19.765625 11.21875 -19.765625 C 13.75 -19.765625 15.691406 -19.117188 17.046875 -17.828125 C 18.410156 -16.546875 19.191406 -14.8125 19.390625 -12.625 C 19.390625 -11.6875 19.132812 -11.046875 18.625 -10.703125 C 18.113281 -10.367188 17.375 -10.203125 16.40625 -10.203125 L 6.078125 -10.203125 C 6.078125 -7.566406 6.625 -5.472656 7.71875 -3.921875 C 8.8125 -2.378906 10.503906 -1.609375 12.796875 -1.609375 C 14.015625 -1.609375 15.046875 -1.867188 15.890625 -2.390625 C 16.742188 -2.921875 17.554688 -3.8125 18.328125 -5.0625 C 18.460938 -5.195312 18.601562 -5.265625 18.75 -5.265625 C 18.945312 -5.265625 19.117188 -5.210938 19.265625 -5.109375 C 19.546875 -4.929688 19.6875 -4.675781 19.6875 -4.34375 C 19.6875 -4.164062 19.65625 -4.035156 19.59375 -3.953125 C 18.71875 -2.535156 17.609375 -1.4375 16.265625 -0.65625 C 14.921875 0.125 13.394531 0.515625 11.6875 0.515625 Z M 13.015625 -11.8125 C 14.453125 -11.8125 15.21875 -12.410156 15.3125 -13.609375 C 15.3125 -14.910156 14.957031 -16.015625 14.25 -16.921875 C 13.539062 -17.828125 12.53125 -18.28125 11.21875 -18.28125 C 9.78125 -18.28125 8.59375 -17.707031 7.65625 -16.5625 C 6.71875 -15.414062 6.191406 -13.832031 6.078125 -11.8125 Z M 13.015625 -11.8125 "/>
            </g>
        </g>
    </g>
    <g fill="#ffffff" fill-opacity="1">
        <g transform="translate(646.81313, 232.193536)">
            <g>
                <path d="M 2.078125 0.125 C 1.878906 0.125 1.71875 0.0390625 1.59375 -0.125 C 1.46875 -0.289062 1.40625 -0.488281 1.40625 -0.71875 C 1.4375 -1.09375 1.519531 -1.3125 1.65625 -1.375 C 1.800781 -1.445312 2.054688 -1.484375 2.421875 -1.484375 C 3.160156 -1.484375 3.6875 -1.609375 4 -1.859375 C 4.3125 -2.117188 4.488281 -2.421875 4.53125 -2.765625 C 4.570312 -3.109375 4.59375 -3.644531 4.59375 -4.375 L 4.59375 -14.109375 C 4.59375 -14.847656 4.570312 -15.382812 4.53125 -15.71875 C 4.488281 -16.0625 4.3125 -16.359375 4 -16.609375 C 3.6875 -16.867188 3.160156 -17 2.421875 -17 C 2.078125 -17 1.820312 -17.046875 1.65625 -17.140625 C 1.488281 -17.242188 1.40625 -17.484375 1.40625 -17.859375 C 1.40625 -18.023438 1.460938 -18.1875 1.578125 -18.34375 C 1.691406 -18.5 1.859375 -18.59375 2.078125 -18.625 C 3.921875 -18.90625 5.4375 -19.273438 6.625 -19.734375 C 7.113281 -19.867188 7.441406 -19.953125 7.609375 -19.984375 L 7.734375 -19.984375 C 8.191406 -19.984375 8.421875 -19.710938 8.421875 -19.171875 L 8.421875 -16.53125 L 8.546875 -16.53125 C 9.535156 -17.53125 10.539062 -18.316406 11.5625 -18.890625 C 12.582031 -19.472656 13.503906 -19.765625 14.328125 -19.765625 C 15.265625 -19.765625 16.007812 -19.414062 16.5625 -18.71875 C 17.113281 -18.03125 17.390625 -17.234375 17.390625 -16.328125 C 17.390625 -15.535156 17.144531 -14.828125 16.65625 -14.203125 C 16.175781 -13.578125 15.515625 -13.265625 14.671875 -13.265625 C 14.273438 -13.265625 13.925781 -13.347656 13.625 -13.515625 C 13.332031 -13.691406 13.171875 -13.832031 13.140625 -13.9375 C 13.171875 -14 13.3125 -14.175781 13.5625 -14.46875 C 13.8125 -14.769531 13.9375 -15.117188 13.9375 -15.515625 C 13.9375 -16.023438 13.800781 -16.4375 13.53125 -16.75 C 13.269531 -17.0625 12.910156 -17.21875 12.453125 -17.21875 C 11.972656 -17.21875 11.363281 -16.984375 10.625 -16.515625 C 9.894531 -16.046875 9.171875 -15.457031 8.453125 -14.75 L 8.453125 -4.375 C 8.453125 -3.644531 8.476562 -3.109375 8.53125 -2.765625 C 8.59375 -2.421875 8.78125 -2.117188 9.09375 -1.859375 C 9.40625 -1.609375 9.929688 -1.484375 10.671875 -1.484375 L 10.921875 -1.484375 C 11.148438 -1.484375 11.320312 -1.441406 11.4375 -1.359375 C 11.550781 -1.273438 11.625 -1.0625 11.65625 -0.71875 C 11.65625 -0.488281 11.597656 -0.289062 11.484375 -0.125 C 11.367188 0.0390625 11.195312 0.125 10.96875 0.125 C 9.320312 0.0390625 7.832031 0 6.5 0 C 5.226562 0 3.753906 0.0390625 2.078125 0.125 Z M 2.078125 0.125 "/>
            </g>
        </g>
    </g>
    <g fill="#ffffff" fill-opacity="1">
        <g transform="translate(675.462725, 232.193536)">
            <g/>
        </g>
    </g>
    <g fill="#ffffff" fill-opacity="1">
        <g transform="translate(695.526551, 232.193536)">
            <g>
                <path d="M 2.46875 0.125 C 2.238281 0.125 2.066406 0.0390625 1.953125 -0.125 C 1.835938 -0.289062 1.78125 -0.488281 1.78125 -0.71875 C 1.8125 -1.09375 1.890625 -1.3125 2.015625 -1.375 C 2.140625 -1.445312 2.390625 -1.484375 2.765625 -1.484375 C 3.503906 -1.484375 4.023438 -1.609375 4.328125 -1.859375 C 4.640625 -2.117188 4.816406 -2.410156 4.859375 -2.734375 C 4.910156 -3.066406 4.9375 -3.613281 4.9375 -4.375 L 4.9375 -17.59375 L 2.078125 -17.59375 C 1.859375 -17.59375 1.679688 -17.675781 1.546875 -17.84375 C 1.421875 -18.019531 1.359375 -18.222656 1.359375 -18.453125 C 1.390625 -18.847656 1.472656 -19.082031 1.609375 -19.15625 C 1.753906 -19.226562 2.007812 -19.265625 2.375 -19.265625 L 4.9375 -19.265625 L 4.9375 -21.046875 C 4.9375 -23.960938 5.625 -26.332031 7 -28.15625 C 8.375 -29.988281 10.304688 -30.9375 12.796875 -31 C 14.179688 -31 15.425781 -30.609375 16.53125 -29.828125 C 17.644531 -29.046875 18.203125 -28.046875 18.203125 -26.828125 C 18.203125 -25.972656 17.953125 -25.226562 17.453125 -24.59375 C 16.953125 -23.957031 16.265625 -23.640625 15.390625 -23.640625 C 14.878906 -23.640625 14.4375 -23.78125 14.0625 -24.0625 C 13.695312 -24.34375 13.515625 -24.570312 13.515625 -24.75 C 13.515625 -24.769531 13.648438 -24.90625 13.921875 -25.15625 C 14.191406 -25.414062 14.429688 -25.722656 14.640625 -26.078125 C 14.859375 -26.429688 14.96875 -26.851562 14.96875 -27.34375 C 14.96875 -27.957031 14.734375 -28.484375 14.265625 -28.921875 C 13.796875 -29.367188 13.207031 -29.59375 12.5 -29.59375 C 11.363281 -29.59375 10.523438 -29.148438 9.984375 -28.265625 C 9.453125 -27.390625 9.128906 -26.429688 9.015625 -25.390625 C 8.898438 -24.359375 8.84375 -23.164062 8.84375 -21.8125 L 8.84375 -19.265625 L 13.265625 -19.265625 C 13.515625 -19.265625 13.703125 -19.210938 13.828125 -19.109375 C 13.960938 -19.015625 14.046875 -18.796875 14.078125 -18.453125 C 14.078125 -18.222656 14.003906 -18.019531 13.859375 -17.84375 C 13.710938 -17.675781 13.539062 -17.59375 13.34375 -17.59375 L 8.84375 -17.59375 L 8.84375 -4.375 C 8.84375 -3.5 8.910156 -2.867188 9.046875 -2.484375 C 9.191406 -2.097656 9.460938 -1.832031 9.859375 -1.6875 C 10.253906 -1.550781 10.921875 -1.484375 11.859375 -1.484375 L 12.109375 -1.484375 C 12.367188 -1.484375 12.546875 -1.441406 12.640625 -1.359375 C 12.742188 -1.273438 12.8125 -1.0625 12.84375 -0.71875 C 12.84375 -0.488281 12.785156 -0.289062 12.671875 -0.125 C 12.554688 0.0390625 12.398438 0.125 12.203125 0.125 C 10.554688 0.0390625 8.785156 0 6.890625 0 C 5.554688 0 4.082031 0.0390625 2.46875 0.125 Z M 2.46875 0.125 "/>
            </g>
        </g>
    </g>
    <g fill="#ffffff" fill-opacity="1">
        <g transform="translate(720.690825, 232.193536)">
            <g>
                <path d="M 11.65625 0.515625 C 9.726562 0.515625 8.007812 0.0546875 6.5 -0.859375 C 5 -1.785156 3.832031 -3.003906 3 -4.515625 C 2.164062 -6.035156 1.75 -7.648438 1.75 -9.359375 C 1.75 -11.484375 2.242188 -13.332031 3.234375 -14.90625 C 4.222656 -16.476562 5.484375 -17.679688 7.015625 -18.515625 C 8.546875 -19.347656 10.09375 -19.765625 11.65625 -19.765625 C 13.582031 -19.765625 15.296875 -19.300781 16.796875 -18.375 C 18.296875 -17.457031 19.460938 -16.238281 20.296875 -14.71875 C 21.140625 -13.207031 21.5625 -11.601562 21.5625 -9.90625 C 21.5625 -7.78125 21.054688 -5.929688 20.046875 -4.359375 C 19.035156 -2.785156 17.765625 -1.578125 16.234375 -0.734375 C 14.703125 0.0976562 13.175781 0.515625 11.65625 0.515625 Z M 11.65625 -1.0625 C 13.582031 -1.0625 14.988281 -1.882812 15.875 -3.53125 C 16.769531 -5.175781 17.21875 -7.300781 17.21875 -9.90625 C 17.21875 -12.34375 16.753906 -14.332031 15.828125 -15.875 C 14.910156 -17.425781 13.519531 -18.203125 11.65625 -18.203125 C 9.695312 -18.203125 8.273438 -17.390625 7.390625 -15.765625 C 6.515625 -14.148438 6.078125 -12.039062 6.078125 -9.4375 C 6.078125 -7 6.53125 -4.992188 7.4375 -3.421875 C 8.34375 -1.847656 9.75 -1.0625 11.65625 -1.0625 Z M 11.65625 -1.0625 "/>
            </g>
        </g>
    </g>
    <g fill="#ffffff" fill-opacity="1">
        <g transform="translate(754.568401, 232.193536)">
            <g>
                <path d="M 2.078125 0.125 C 1.878906 0.125 1.71875 0.0390625 1.59375 -0.125 C 1.46875 -0.289062 1.40625 -0.488281 1.40625 -0.71875 C 1.4375 -1.09375 1.519531 -1.3125 1.65625 -1.375 C 1.800781 -1.445312 2.054688 -1.484375 2.421875 -1.484375 C 3.160156 -1.484375 3.6875 -1.609375 4 -1.859375 C 4.3125 -2.117188 4.488281 -2.421875 4.53125 -2.765625 C 4.570312 -3.109375 4.59375 -3.644531 4.59375 -4.375 L 4.59375 -14.109375 C 4.59375 -14.847656 4.570312 -15.382812 4.53125 -15.71875 C 4.488281 -16.0625 4.3125 -16.359375 4 -16.609375 C 3.6875 -16.867188 3.160156 -17 2.421875 -17 C 2.078125 -17 1.820312 -17.046875 1.65625 -17.140625 C 1.488281 -17.242188 1.40625 -17.484375 1.40625 -17.859375 C 1.40625 -18.023438 1.460938 -18.1875 1.578125 -18.34375 C 1.691406 -18.5 1.859375 -18.59375 2.078125 -18.625 C 3.921875 -18.90625 5.4375 -19.273438 6.625 -19.734375 C 7.113281 -19.867188 7.441406 -19.953125 7.609375 -19.984375 L 7.734375 -19.984375 C 8.191406 -19.984375 8.421875 -19.710938 8.421875 -19.171875 L 8.421875 -16.53125 L 8.546875 -16.53125 C 9.535156 -17.53125 10.539062 -18.316406 11.5625 -18.890625 C 12.582031 -19.472656 13.503906 -19.765625 14.328125 -19.765625 C 15.265625 -19.765625 16.007812 -19.414062 16.5625 -18.71875 C 17.113281 -18.03125 17.390625 -17.234375 17.390625 -16.328125 C 17.390625 -15.535156 17.144531 -14.828125 16.65625 -14.203125 C 16.175781 -13.578125 15.515625 -13.265625 14.671875 -13.265625 C 14.273438 -13.265625 13.925781 -13.347656 13.625 -13.515625 C 13.332031 -13.691406 13.171875 -13.832031 13.140625 -13.9375 C 13.171875 -14 13.3125 -14.175781 13.5625 -14.46875 C 13.8125 -14.769531 13.9375 -15.117188 13.9375 -15.515625 C 13.9375 -16.023438 13.800781 -16.4375 13.53125 -16.75 C 13.269531 -17.0625 12.910156 -17.21875 12.453125 -17.21875 C 11.972656 -17.21875 11.363281 -16.984375 10.625 -16.515625 C 9.894531 -16.046875 9.171875 -15.457031 8.453125 -14.75 L 8.453125 -4.375 C 8.453125 -3.644531 8.476562 -3.109375 8.53125 -2.765625 C 8.59375 -2.421875 8.78125 -2.117188 9.09375 -1.859375 C 9.40625 -1.609375 9.929688 -1.484375 10.671875 -1.484375 L 10.921875 -1.484375 C 11.148438 -1.484375 11.320312 -1.441406 11.4375 -1.359375 C 11.550781 -1.273438 11.625 -1.0625 11.65625 -0.71875 C 11.65625 -0.488281 11.597656 -0.289062 11.484375 -0.125 C 11.367188 0.0390625 11.195312 0.125 10.96875 0.125 C 9.320312 0.0390625 7.832031 0 6.5 0 C 5.226562 0 3.753906 0.0390625 2.078125 0.125 Z M 2.078125 0.125 "/>
            </g>
        </g>
    </g>
    <g fill="#ffffff" fill-opacity="1">
        <g transform="translate(783.217996, 232.193536)">
            <g/>
        </g>
    </g>
    <g fill="#ffffff" fill-opacity="1">
        <g transform="translate(803.281822, 232.193536)">
            <g>
                <path d="M 7.140625 0.515625 C 5.441406 0.515625 4.066406 0.0351562 3.015625 -0.921875 C 1.972656 -1.890625 1.453125 -3.097656 1.453125 -4.546875 C 1.453125 -6.335938 2.046875 -7.675781 3.234375 -8.5625 C 4.421875 -9.457031 5.835938 -10.039062 7.484375 -10.3125 C 9.128906 -10.582031 11.253906 -10.785156 13.859375 -10.921875 L 13.859375 -14.28125 C 13.859375 -15.675781 13.507812 -16.734375 12.8125 -17.453125 C 12.125 -18.171875 11.015625 -18.53125 9.484375 -18.53125 C 8.597656 -18.53125 7.828125 -18.257812 7.171875 -17.71875 C 6.523438 -17.1875 6.203125 -16.46875 6.203125 -15.5625 C 6.203125 -15.101562 6.304688 -14.722656 6.515625 -14.421875 C 6.734375 -14.128906 6.960938 -13.882812 7.203125 -13.6875 C 7.441406 -13.488281 7.5625 -13.375 7.5625 -13.34375 C 7.5625 -13.175781 7.382812 -12.957031 7.03125 -12.6875 C 6.675781 -12.414062 6.242188 -12.28125 5.734375 -12.28125 C 4.890625 -12.28125 4.21875 -12.59375 3.71875 -13.21875 C 3.21875 -13.84375 2.96875 -14.582031 2.96875 -15.4375 C 2.96875 -16.90625 3.628906 -17.992188 4.953125 -18.703125 C 6.273438 -19.410156 7.867188 -19.765625 9.734375 -19.765625 C 12.054688 -19.765625 13.945312 -19.328125 15.40625 -18.453125 C 16.863281 -17.578125 17.59375 -15.945312 17.59375 -13.5625 L 17.59375 -3.65625 C 17.625 -3.0625 17.8125 -2.492188 18.15625 -1.953125 C 18.5 -1.410156 19.050781 -1.140625 19.8125 -1.140625 C 20.039062 -1.140625 20.203125 -1.097656 20.296875 -1.015625 C 20.398438 -0.929688 20.453125 -0.75 20.453125 -0.46875 C 20.453125 -0.125 20.1875 0.125 19.65625 0.28125 C 19.132812 0.4375 18.617188 0.515625 18.109375 0.515625 C 17.035156 0.515625 16.085938 0.203125 15.265625 -0.421875 C 14.441406 -1.046875 13.972656 -1.882812 13.859375 -2.9375 C 13.265625 -1.832031 12.347656 -0.976562 11.109375 -0.375 C 9.878906 0.21875 8.554688 0.515625 7.140625 0.515625 Z M 8.5 -1.78125 C 9.46875 -1.78125 10.363281 -2.019531 11.1875 -2.5 C 12.007812 -2.988281 12.660156 -3.648438 13.140625 -4.484375 C 13.617188 -5.316406 13.859375 -6.242188 13.859375 -7.265625 L 13.859375 -9.6875 C 10.878906 -9.46875 8.78125 -8.988281 7.5625 -8.25 C 6.34375 -7.507812 5.734375 -6.316406 5.734375 -4.671875 C 5.734375 -2.742188 6.65625 -1.78125 8.5 -1.78125 Z M 8.5 -1.78125 "/>
            </g>
        </g>
    </g>
    <g fill="#ffffff" fill-opacity="1">
        <g transform="translate(835.161718, 232.193536)">
            <g>
                <path d="M 1.65625 0.125 C 1.457031 0.125 1.296875 0.0390625 1.171875 -0.125 C 1.046875 -0.289062 0.984375 -0.488281 0.984375 -0.71875 C 1.003906 -1.09375 1.078125 -1.3125 1.203125 -1.375 C 1.335938 -1.445312 1.585938 -1.484375 1.953125 -1.484375 C 2.691406 -1.484375 3.21875 -1.609375 3.53125 -1.859375 C 3.84375 -2.117188 4.023438 -2.421875 4.078125 -2.765625 C 4.140625 -3.109375 4.171875 -3.644531 4.171875 -4.375 L 4.171875 -25.125 C 4.171875 -25.863281 4.144531 -26.398438 4.09375 -26.734375 C 4.050781 -27.078125 3.875 -27.375 3.5625 -27.625 C 3.257812 -27.882812 2.738281 -28.015625 2 -28.015625 C 1.65625 -28.015625 1.398438 -28.0625 1.234375 -28.15625 C 1.066406 -28.257812 0.984375 -28.5 0.984375 -28.875 C 0.984375 -29.039062 1.035156 -29.203125 1.140625 -29.359375 C 1.253906 -29.515625 1.425781 -29.609375 1.65625 -29.640625 C 3.445312 -29.890625 4.976562 -30.253906 6.25 -30.734375 C 6.644531 -30.878906 6.972656 -30.96875 7.234375 -31 L 7.359375 -31 C 7.804688 -31 8.03125 -30.726562 8.03125 -30.1875 L 8.03125 -4.375 C 8.03125 -3.644531 8.054688 -3.109375 8.109375 -2.765625 C 8.171875 -2.421875 8.359375 -2.117188 8.671875 -1.859375 C 8.984375 -1.609375 9.507812 -1.484375 10.25 -1.484375 L 10.5 -1.484375 C 10.726562 -1.484375 10.898438 -1.441406 11.015625 -1.359375 C 11.128906 -1.273438 11.195312 -1.0625 11.21875 -0.71875 C 11.21875 -0.488281 11.160156 -0.289062 11.046875 -0.125 C 10.941406 0.0390625 10.773438 0.125 10.546875 0.125 C 8.898438 0.0390625 7.410156 0 6.078125 0 C 4.804688 0 3.332031 0.0390625 1.65625 0.125 Z M 1.65625 0.125 "/>
            </g>
        </g>
    </g>
    <g fill="#ffffff" fill-opacity="1">
        <g transform="translate(857.903278, 232.193536)">
            <g>
                <path d="M 1.65625 0.125 C 1.457031 0.125 1.296875 0.0390625 1.171875 -0.125 C 1.046875 -0.289062 0.984375 -0.488281 0.984375 -0.71875 C 1.003906 -1.09375 1.078125 -1.3125 1.203125 -1.375 C 1.335938 -1.445312 1.585938 -1.484375 1.953125 -1.484375 C 2.691406 -1.484375 3.21875 -1.609375 3.53125 -1.859375 C 3.84375 -2.117188 4.023438 -2.421875 4.078125 -2.765625 C 4.140625 -3.109375 4.171875 -3.644531 4.171875 -4.375 L 4.171875 -25.125 C 4.171875 -25.863281 4.144531 -26.398438 4.09375 -26.734375 C 4.050781 -27.078125 3.875 -27.375 3.5625 -27.625 C 3.257812 -27.882812 2.738281 -28.015625 2 -28.015625 C 1.65625 -28.015625 1.398438 -28.0625 1.234375 -28.15625 C 1.066406 -28.257812 0.984375 -28.5 0.984375 -28.875 C 0.984375 -29.039062 1.035156 -29.203125 1.140625 -29.359375 C 1.253906 -29.515625 1.425781 -29.609375 1.65625 -29.640625 C 3.445312 -29.890625 4.976562 -30.253906 6.25 -30.734375 C 6.644531 -30.878906 6.972656 -30.96875 7.234375 -31 L 7.359375 -31 C 7.804688 -31 8.03125 -30.726562 8.03125 -30.1875 L 8.03125 -4.375 C 8.03125 -3.644531 8.054688 -3.109375 8.109375 -2.765625 C 8.171875 -2.421875 8.359375 -2.117188 8.671875 -1.859375 C 8.984375 -1.609375 9.507812 -1.484375 10.25 -1.484375 L 10.5 -1.484375 C 10.726562 -1.484375 10.898438 -1.441406 11.015625 -1.359375 C 11.128906 -1.273438 11.195312 -1.0625 11.21875 -0.71875 C 11.21875 -0.488281 11.160156 -0.289062 11.046875 -0.125 C 10.941406 0.0390625 10.773438 0.125 10.546875 0.125 C 8.898438 0.0390625 7.410156 0 6.078125 0 C 4.804688 0 3.332031 0.0390625 1.65625 0.125 Z M 1.65625 0.125 "/>
            </g>
        </g>
    </g>
    <g fill="#ffffff" fill-opacity="1">
        <g transform="translate(880.644839, 232.193536)">
            <g/>
        </g>
    </g>
    <g fill="#ffffff" fill-opacity="1">
        <g transform="translate(900.708665, 232.193536)">
            <g>
                <path d="M 4.078125 9.265625 C 2.859375 9.265625 1.773438 8.875 0.828125 8.09375 C -0.117188 7.320312 -0.59375 6.394531 -0.59375 5.3125 C -0.59375 4.039062 -0.238281 3.226562 0.46875 2.875 C 1.175781 2.519531 1.726562 2.34375 2.125 2.34375 C 2.601562 2.34375 3 2.441406 3.3125 2.640625 C 3.625 2.835938 3.78125 3.019531 3.78125 3.1875 C 3.78125 3.25 3.664062 3.390625 3.4375 3.609375 C 3.21875 3.835938 3.109375 4.234375 3.109375 4.796875 C 3.109375 5.367188 3.285156 5.867188 3.640625 6.296875 C 3.992188 6.722656 4.492188 6.9375 5.140625 6.9375 C 6.929688 6.9375 8.675781 5.109375 10.375 1.453125 C 10.488281 1.046875 10.546875 0.742188 10.546875 0.546875 C 10.546875 0.265625 10.472656 -0.0859375 10.328125 -0.515625 C 9.765625 -1.785156 8.816406 -4.148438 7.484375 -7.609375 C 6.316406 -10.703125 5.367188 -13.054688 4.640625 -14.671875 C 4.148438 -15.773438 3.691406 -16.53125 3.265625 -16.9375 C 2.847656 -17.351562 2.226562 -17.617188 1.40625 -17.734375 C 1.320312 -17.753906 1.164062 -17.78125 0.9375 -17.8125 C 0.707031 -17.84375 0.5625 -17.914062 0.5 -18.03125 C 0.445312 -18.144531 0.421875 -18.34375 0.421875 -18.625 C 0.421875 -18.957031 0.515625 -19.164062 0.703125 -19.25 C 0.890625 -19.34375 1.113281 -19.394531 1.375 -19.40625 C 1.644531 -19.414062 1.820312 -19.421875 1.90625 -19.421875 C 3.632812 -19.515625 4.992188 -19.269531 5.984375 -18.6875 C 6.984375 -18.101562 7.804688 -17.085938 8.453125 -15.640625 C 9.078125 -14.203125 9.632812 -12.828125 10.125 -11.515625 C 11.25 -8.460938 12.164062 -6.222656 12.875 -4.796875 L 13.015625 -4.796875 L 17.171875 -15.9375 C 17.316406 -16.425781 17.390625 -16.769531 17.390625 -16.96875 C 17.390625 -17.28125 17.242188 -17.488281 16.953125 -17.59375 C 16.671875 -17.707031 16.207031 -17.765625 15.5625 -17.765625 L 15.3125 -17.765625 C 15.082031 -17.765625 14.914062 -17.804688 14.8125 -17.890625 C 14.71875 -17.984375 14.65625 -18.195312 14.625 -18.53125 C 14.625 -18.726562 14.671875 -18.921875 14.765625 -19.109375 C 14.867188 -19.296875 15.019531 -19.390625 15.21875 -19.390625 C 16.832031 -19.304688 18.207031 -19.265625 19.34375 -19.265625 C 19.800781 -19.265625 20.679688 -19.289062 21.984375 -19.34375 L 22.875 -19.390625 C 23.070312 -19.390625 23.226562 -19.296875 23.34375 -19.109375 C 23.457031 -18.921875 23.515625 -18.726562 23.515625 -18.53125 C 23.484375 -18.195312 23.410156 -17.984375 23.296875 -17.890625 C 23.179688 -17.804688 23.007812 -17.765625 22.78125 -17.765625 C 21.738281 -17.765625 20.929688 -17.59375 20.359375 -17.25 C 19.796875 -16.914062 19.316406 -16.253906 18.921875 -15.265625 C 18.265625 -13.648438 17.210938 -11.054688 15.765625 -7.484375 C 14.328125 -3.910156 13.253906 -1.273438 12.546875 0.421875 C 11.523438 2.859375 10.332031 4.941406 8.96875 6.671875 C 7.613281 8.398438 5.984375 9.265625 4.078125 9.265625 Z M 4.078125 9.265625 "/>
            </g>
        </g>
    </g>
    <g fill="#ffffff" fill-opacity="1">
        <g transform="translate(934.756255, 232.193536)">
            <g>
                <path d="M 11.65625 0.515625 C 9.726562 0.515625 8.007812 0.0546875 6.5 -0.859375 C 5 -1.785156 3.832031 -3.003906 3 -4.515625 C 2.164062 -6.035156 1.75 -7.648438 1.75 -9.359375 C 1.75 -11.484375 2.242188 -13.332031 3.234375 -14.90625 C 4.222656 -16.476562 5.484375 -17.679688 7.015625 -18.515625 C 8.546875 -19.347656 10.09375 -19.765625 11.65625 -19.765625 C 13.582031 -19.765625 15.296875 -19.300781 16.796875 -18.375 C 18.296875 -17.457031 19.460938 -16.238281 20.296875 -14.71875 C 21.140625 -13.207031 21.5625 -11.601562 21.5625 -9.90625 C 21.5625 -7.78125 21.054688 -5.929688 20.046875 -4.359375 C 19.035156 -2.785156 17.765625 -1.578125 16.234375 -0.734375 C 14.703125 0.0976562 13.175781 0.515625 11.65625 0.515625 Z M 11.65625 -1.0625 C 13.582031 -1.0625 14.988281 -1.882812 15.875 -3.53125 C 16.769531 -5.175781 17.21875 -7.300781 17.21875 -9.90625 C 17.21875 -12.34375 16.753906 -14.332031 15.828125 -15.875 C 14.910156 -17.425781 13.519531 -18.203125 11.65625 -18.203125 C 9.695312 -18.203125 8.273438 -17.390625 7.390625 -15.765625 C 6.515625 -14.148438 6.078125 -12.039062 6.078125 -9.4375 C 6.078125 -7 6.53125 -4.992188 7.4375 -3.421875 C 8.34375 -1.847656 9.75 -1.0625 11.65625 -1.0625 Z M 11.65625 -1.0625 "/>
            </g>
        </g>
    </g>
    <g fill="#ffffff" fill-opacity="1">
        <g transform="translate(968.633876, 232.193536)">
            <g>
                <path d="M 10.203125 0.515625 C 8.273438 0.515625 6.742188 -0.0625 5.609375 -1.21875 C 4.472656 -2.382812 3.90625 -3.921875 3.90625 -5.828125 L 3.90625 -13.6875 C 3.90625 -14.425781 3.882812 -14.960938 3.84375 -15.296875 C 3.800781 -15.640625 3.625 -15.9375 3.3125 -16.1875 C 3 -16.445312 2.476562 -16.578125 1.75 -16.578125 C 1.40625 -16.578125 1.144531 -16.625 0.96875 -16.71875 C 0.800781 -16.820312 0.71875 -17.0625 0.71875 -17.4375 C 0.71875 -17.601562 0.773438 -17.765625 0.890625 -17.921875 C 1.003906 -18.078125 1.175781 -18.171875 1.40625 -18.203125 C 3.1875 -18.453125 4.71875 -18.816406 6 -19.296875 C 6.394531 -19.441406 6.71875 -19.53125 6.96875 -19.5625 L 7.09375 -19.5625 C 7.550781 -19.5625 7.78125 -19.289062 7.78125 -18.75 L 7.78125 -5.859375 C 7.78125 -4.554688 8.191406 -3.554688 9.015625 -2.859375 C 9.835938 -2.171875 10.785156 -1.828125 11.859375 -1.828125 C 13.191406 -1.828125 14.328125 -2.148438 15.265625 -2.796875 C 16.203125 -3.453125 16.828125 -4.109375 17.140625 -4.765625 L 17.140625 -13.6875 C 17.140625 -14.425781 17.113281 -14.960938 17.0625 -15.296875 C 17.019531 -15.640625 16.84375 -15.9375 16.53125 -16.1875 C 16.226562 -16.445312 15.707031 -16.578125 14.96875 -16.578125 C 14.625 -16.578125 14.363281 -16.625 14.1875 -16.71875 C 14.019531 -16.820312 13.9375 -17.0625 13.9375 -17.4375 C 13.9375 -17.601562 13.992188 -17.765625 14.109375 -17.921875 C 14.222656 -18.078125 14.394531 -18.171875 14.625 -18.203125 C 16.40625 -18.453125 17.9375 -18.816406 19.21875 -19.296875 C 19.613281 -19.441406 19.9375 -19.53125 20.1875 -19.5625 L 20.328125 -19.5625 C 20.773438 -19.5625 21 -19.289062 21 -18.75 L 21 -4.03125 C 21 -2.363281 22.117188 -1.53125 24.359375 -1.53125 C 24.835938 -1.53125 25.078125 -1.257812 25.078125 -0.71875 C 25.078125 -0.320312 24.835938 -0.0820312 24.359375 0 L 17.515625 0.46875 C 17.316406 0.46875 17.203125 0.398438 17.171875 0.265625 C 17.148438 0.140625 17.140625 -0.0703125 17.140625 -0.375 L 17.140625 -2.765625 L 17.046875 -2.765625 C 16.222656 -1.992188 15.554688 -1.398438 15.046875 -0.984375 C 14.535156 -0.578125 13.875 -0.226562 13.0625 0.0625 C 12.257812 0.363281 11.304688 0.515625 10.203125 0.515625 Z M 10.203125 0.515625 "/>
            </g>
        </g>
    </g>
    <g fill="#ffffff" fill-opacity="1">
        <g transform="translate(1004.551659, 232.193536)">
            <g>
                <path d="M 2.078125 0.125 C 1.878906 0.125 1.71875 0.0390625 1.59375 -0.125 C 1.46875 -0.289062 1.40625 -0.488281 1.40625 -0.71875 C 1.4375 -1.09375 1.519531 -1.3125 1.65625 -1.375 C 1.800781 -1.445312 2.054688 -1.484375 2.421875 -1.484375 C 3.160156 -1.484375 3.6875 -1.609375 4 -1.859375 C 4.3125 -2.117188 4.488281 -2.421875 4.53125 -2.765625 C 4.570312 -3.109375 4.59375 -3.644531 4.59375 -4.375 L 4.59375 -14.109375 C 4.59375 -14.847656 4.570312 -15.382812 4.53125 -15.71875 C 4.488281 -16.0625 4.3125 -16.359375 4 -16.609375 C 3.6875 -16.867188 3.160156 -17 2.421875 -17 C 2.078125 -17 1.820312 -17.046875 1.65625 -17.140625 C 1.488281 -17.242188 1.40625 -17.484375 1.40625 -17.859375 C 1.40625 -18.023438 1.460938 -18.1875 1.578125 -18.34375 C 1.691406 -18.5 1.859375 -18.59375 2.078125 -18.625 C 3.921875 -18.90625 5.4375 -19.273438 6.625 -19.734375 C 7.113281 -19.867188 7.441406 -19.953125 7.609375 -19.984375 L 7.734375 -19.984375 C 8.191406 -19.984375 8.421875 -19.710938 8.421875 -19.171875 L 8.421875 -16.53125 L 8.546875 -16.53125 C 9.535156 -17.53125 10.539062 -18.316406 11.5625 -18.890625 C 12.582031 -19.472656 13.503906 -19.765625 14.328125 -19.765625 C 15.265625 -19.765625 16.007812 -19.414062 16.5625 -18.71875 C 17.113281 -18.03125 17.390625 -17.234375 17.390625 -16.328125 C 17.390625 -15.535156 17.144531 -14.828125 16.65625 -14.203125 C 16.175781 -13.578125 15.515625 -13.265625 14.671875 -13.265625 C 14.273438 -13.265625 13.925781 -13.347656 13.625 -13.515625 C 13.332031 -13.691406 13.171875 -13.832031 13.140625 -13.9375 C 13.171875 -14 13.3125 -14.175781 13.5625 -14.46875 C 13.8125 -14.769531 13.9375 -15.117188 13.9375 -15.515625 C 13.9375 -16.023438 13.800781 -16.4375 13.53125 -16.75 C 13.269531 -17.0625 12.910156 -17.21875 12.453125 -17.21875 C 11.972656 -17.21875 11.363281 -16.984375 10.625 -16.515625 C 9.894531 -16.046875 9.171875 -15.457031 8.453125 -14.75 L 8.453125 -4.375 C 8.453125 -3.644531 8.476562 -3.109375 8.53125 -2.765625 C 8.59375 -2.421875 8.78125 -2.117188 9.09375 -1.859375 C 9.40625 -1.609375 9.929688 -1.484375 10.671875 -1.484375 L 10.921875 -1.484375 C 11.148438 -1.484375 11.320312 -1.441406 11.4375 -1.359375 C 11.550781 -1.273438 11.625 -1.0625 11.65625 -0.71875 C 11.65625 -0.488281 11.597656 -0.289062 11.484375 -0.125 C 11.367188 0.0390625 11.195312 0.125 10.96875 0.125 C 9.320312 0.0390625 7.832031 0 6.5 0 C 5.226562 0 3.753906 0.0390625 2.078125 0.125 Z M 2.078125 0.125 "/>
            </g>
        </g>
    </g>
    <g fill="#ffffff" fill-opacity="1">
        <g transform="translate(1033.201254, 232.193536)">
            <g/>
        </g>
    </g>
    <g fill="#ffffff" fill-opacity="1">
        <g transform="translate(1053.265035, 232.193536)">
            <g>
                <path d="M 11.6875 0.515625 C 9.5625 0.515625 7.753906 0.0625 6.265625 -0.84375 C 4.773438 -1.75 3.648438 -2.984375 2.890625 -4.546875 C 2.128906 -6.109375 1.75 -7.835938 1.75 -9.734375 C 1.75 -11.410156 2.132812 -13.019531 2.90625 -14.5625 C 3.6875 -16.101562 4.800781 -17.351562 6.25 -18.3125 C 7.695312 -19.28125 9.351562 -19.765625 11.21875 -19.765625 C 13.75 -19.765625 15.691406 -19.117188 17.046875 -17.828125 C 18.410156 -16.546875 19.191406 -14.8125 19.390625 -12.625 C 19.390625 -11.6875 19.132812 -11.046875 18.625 -10.703125 C 18.113281 -10.367188 17.375 -10.203125 16.40625 -10.203125 L 6.078125 -10.203125 C 6.078125 -7.566406 6.625 -5.472656 7.71875 -3.921875 C 8.8125 -2.378906 10.503906 -1.609375 12.796875 -1.609375 C 14.015625 -1.609375 15.046875 -1.867188 15.890625 -2.390625 C 16.742188 -2.921875 17.554688 -3.8125 18.328125 -5.0625 C 18.460938 -5.195312 18.601562 -5.265625 18.75 -5.265625 C 18.945312 -5.265625 19.117188 -5.210938 19.265625 -5.109375 C 19.546875 -4.929688 19.6875 -4.675781 19.6875 -4.34375 C 19.6875 -4.164062 19.65625 -4.035156 19.59375 -3.953125 C 18.71875 -2.535156 17.609375 -1.4375 16.265625 -0.65625 C 14.921875 0.125 13.394531 0.515625 11.6875 0.515625 Z M 13.015625 -11.8125 C 14.453125 -11.8125 15.21875 -12.410156 15.3125 -13.609375 C 15.3125 -14.910156 14.957031 -16.015625 14.25 -16.921875 C 13.539062 -17.828125 12.53125 -18.28125 11.21875 -18.28125 C 9.78125 -18.28125 8.59375 -17.707031 7.65625 -16.5625 C 6.71875 -15.414062 6.191406 -13.832031 6.078125 -11.8125 Z M 13.015625 -11.8125 "/>
            </g>
        </g>
    </g>
    <g fill="#ffffff" fill-opacity="1">
        <g transform="translate(1085.187456, 232.193536)">
            <g>
                <path d="M 10.671875 0.421875 C 9.929688 -1.160156 8.894531 -3.695312 7.5625 -7.1875 C 7.445312 -7.46875 7.054688 -8.484375 6.390625 -10.234375 C 5.734375 -11.992188 5.101562 -13.472656 4.5 -14.671875 C 4.019531 -15.773438 3.566406 -16.53125 3.140625 -16.9375 C 2.722656 -17.351562 2.101562 -17.617188 1.28125 -17.734375 C 1.1875 -17.753906 1.023438 -17.78125 0.796875 -17.8125 C 0.578125 -17.84375 0.4375 -17.914062 0.375 -18.03125 C 0.320312 -18.144531 0.296875 -18.34375 0.296875 -18.625 C 0.296875 -18.957031 0.382812 -19.164062 0.5625 -19.25 C 0.75 -19.34375 0.976562 -19.394531 1.25 -19.40625 C 1.519531 -19.414062 1.695312 -19.421875 1.78125 -19.421875 C 3.507812 -19.515625 4.867188 -19.269531 5.859375 -18.6875 C 6.859375 -18.101562 7.679688 -17.085938 8.328125 -15.640625 C 8.359375 -15.585938 8.910156 -14.226562 9.984375 -11.5625 C 11.296875 -8.25 12.234375 -5.992188 12.796875 -4.796875 L 12.921875 -4.796875 L 17.140625 -15.9375 C 17.273438 -16.425781 17.34375 -16.769531 17.34375 -16.96875 C 17.34375 -17.28125 17.203125 -17.488281 16.921875 -17.59375 C 16.640625 -17.707031 16.171875 -17.765625 15.515625 -17.765625 L 15.265625 -17.765625 C 15.035156 -17.765625 14.867188 -17.804688 14.765625 -17.890625 C 14.671875 -17.984375 14.609375 -18.195312 14.578125 -18.53125 C 14.578125 -18.726562 14.625 -18.921875 14.71875 -19.109375 C 14.820312 -19.296875 14.972656 -19.390625 15.171875 -19.390625 C 16.785156 -19.304688 18.160156 -19.265625 19.296875 -19.265625 C 19.753906 -19.265625 20.632812 -19.289062 21.9375 -19.34375 L 22.828125 -19.390625 C 23.023438 -19.390625 23.179688 -19.296875 23.296875 -19.109375 C 23.410156 -18.921875 23.46875 -18.726562 23.46875 -18.53125 C 23.4375 -18.195312 23.363281 -17.984375 23.25 -17.890625 C 23.132812 -17.804688 22.96875 -17.765625 22.75 -17.765625 C 21.695312 -17.765625 20.882812 -17.59375 20.3125 -17.25 C 19.75 -16.914062 19.269531 -16.253906 18.875 -15.265625 C 18.226562 -13.617188 17.007812 -10.597656 15.21875 -6.203125 C 13.4375 -1.816406 12.515625 0.390625 12.453125 0.421875 Z M 10.671875 0.421875 "/>
            </g>
        </g>
    </g>
    <g fill="#ffffff" fill-opacity="1">
        <g transform="translate(1119.192519, 232.193536)">
            <g>
                <path d="M 11.6875 0.515625 C 9.5625 0.515625 7.753906 0.0625 6.265625 -0.84375 C 4.773438 -1.75 3.648438 -2.984375 2.890625 -4.546875 C 2.128906 -6.109375 1.75 -7.835938 1.75 -9.734375 C 1.75 -11.410156 2.132812 -13.019531 2.90625 -14.5625 C 3.6875 -16.101562 4.800781 -17.351562 6.25 -18.3125 C 7.695312 -19.28125 9.351562 -19.765625 11.21875 -19.765625 C 13.75 -19.765625 15.691406 -19.117188 17.046875 -17.828125 C 18.410156 -16.546875 19.191406 -14.8125 19.390625 -12.625 C 19.390625 -11.6875 19.132812 -11.046875 18.625 -10.703125 C 18.113281 -10.367188 17.375 -10.203125 16.40625 -10.203125 L 6.078125 -10.203125 C 6.078125 -7.566406 6.625 -5.472656 7.71875 -3.921875 C 8.8125 -2.378906 10.503906 -1.609375 12.796875 -1.609375 C 14.015625 -1.609375 15.046875 -1.867188 15.890625 -2.390625 C 16.742188 -2.921875 17.554688 -3.8125 18.328125 -5.0625 C 18.460938 -5.195312 18.601562 -5.265625 18.75 -5.265625 C 18.945312 -5.265625 19.117188 -5.210938 19.265625 -5.109375 C 19.546875 -4.929688 19.6875 -4.675781 19.6875 -4.34375 C 19.6875 -4.164062 19.65625 -4.035156 19.59375 -3.953125 C 18.71875 -2.535156 17.609375 -1.4375 16.265625 -0.65625 C 14.921875 0.125 13.394531 0.515625 11.6875 0.515625 Z M 13.015625 -11.8125 C 14.453125 -11.8125 15.21875 -12.410156 15.3125 -13.609375 C 15.3125 -14.910156 14.957031 -16.015625 14.25 -16.921875 C 13.539062 -17.828125 12.53125 -18.28125 11.21875 -18.28125 C 9.78125 -18.28125 8.59375 -17.707031 7.65625 -16.5625 C 6.71875 -15.414062 6.191406 -13.832031 6.078125 -11.8125 Z M 13.015625 -11.8125 "/>
            </g>
        </g>
    </g>
    <g fill="#ffffff" fill-opacity="1">
        <g transform="translate(1151.114941, 232.193536)">
            <g>
                <path d="M 2.078125 0.125 C 1.878906 0.125 1.71875 0.0390625 1.59375 -0.125 C 1.46875 -0.289062 1.40625 -0.488281 1.40625 -0.71875 C 1.4375 -1.09375 1.519531 -1.3125 1.65625 -1.375 C 1.800781 -1.445312 2.054688 -1.484375 2.421875 -1.484375 C 3.160156 -1.484375 3.6875 -1.609375 4 -1.859375 C 4.3125 -2.117188 4.488281 -2.421875 4.53125 -2.765625 C 4.570312 -3.109375 4.59375 -3.644531 4.59375 -4.375 L 4.59375 -14.109375 C 4.59375 -14.847656 4.570312 -15.382812 4.53125 -15.71875 C 4.488281 -16.0625 4.3125 -16.359375 4 -16.609375 C 3.6875 -16.867188 3.160156 -17 2.421875 -17 C 2.078125 -17 1.820312 -17.046875 1.65625 -17.140625 C 1.488281 -17.242188 1.40625 -17.484375 1.40625 -17.859375 C 1.40625 -18.023438 1.460938 -18.1875 1.578125 -18.34375 C 1.691406 -18.5 1.859375 -18.59375 2.078125 -18.625 C 3.921875 -18.90625 5.4375 -19.273438 6.625 -19.734375 C 7.113281 -19.867188 7.441406 -19.953125 7.609375 -19.984375 L 7.734375 -19.984375 C 8.191406 -19.984375 8.421875 -19.710938 8.421875 -19.171875 L 8.421875 -16.5 L 8.546875 -16.5 C 9.367188 -17.257812 10.035156 -17.84375 10.546875 -18.25 C 11.054688 -18.664062 11.710938 -19.019531 12.515625 -19.3125 C 13.328125 -19.613281 14.285156 -19.765625 15.390625 -19.765625 C 17.316406 -19.765625 18.847656 -19.179688 19.984375 -18.015625 C 21.117188 -16.859375 21.6875 -15.332031 21.6875 -13.4375 L 21.6875 -4.375 C 21.6875 -3.644531 21.710938 -3.109375 21.765625 -2.765625 C 21.828125 -2.421875 22.007812 -2.117188 22.3125 -1.859375 C 22.625 -1.609375 23.148438 -1.484375 23.890625 -1.484375 L 24.15625 -1.484375 C 24.375 -1.484375 24.539062 -1.441406 24.65625 -1.359375 C 24.769531 -1.273438 24.84375 -1.0625 24.875 -0.71875 C 24.875 -0.488281 24.804688 -0.289062 24.671875 -0.125 C 24.546875 0.0390625 24.382812 0.125 24.1875 0.125 C 22.539062 0.0390625 21.054688 0 19.734375 0 C 18.453125 0 16.976562 0.0390625 15.3125 0.125 C 15.113281 0.125 14.945312 0.0390625 14.8125 -0.125 C 14.6875 -0.289062 14.625 -0.488281 14.625 -0.71875 C 14.65625 -1.09375 14.734375 -1.3125 14.859375 -1.375 C 14.984375 -1.445312 15.234375 -1.484375 15.609375 -1.484375 C 16.335938 -1.484375 16.859375 -1.609375 17.171875 -1.859375 C 17.484375 -2.117188 17.664062 -2.421875 17.71875 -2.765625 C 17.78125 -3.109375 17.8125 -3.644531 17.8125 -4.375 L 17.8125 -13.390625 C 17.8125 -14.691406 17.398438 -15.691406 16.578125 -16.390625 C 15.753906 -17.085938 14.804688 -17.4375 13.734375 -17.4375 C 12.429688 -17.4375 11.3125 -17.113281 10.375 -16.46875 C 9.4375 -15.832031 8.796875 -15.175781 8.453125 -14.5 L 8.453125 -4.375 C 8.453125 -3.644531 8.476562 -3.109375 8.53125 -2.765625 C 8.59375 -2.421875 8.78125 -2.117188 9.09375 -1.859375 C 9.40625 -1.609375 9.929688 -1.484375 10.671875 -1.484375 L 10.921875 -1.484375 C 11.148438 -1.484375 11.320312 -1.441406 11.4375 -1.359375 C 11.550781 -1.273438 11.625 -1.0625 11.65625 -0.71875 C 11.65625 -0.488281 11.597656 -0.289062 11.484375 -0.125 C 11.367188 0.0390625 11.195312 0.125 10.96875 0.125 C 9.320312 0.0390625 7.832031 0 6.5 0 C 5.226562 0 3.753906 0.0390625 2.078125 0.125 Z M 2.078125 0.125 "/>
            </g>
        </g>
    </g>
    <g fill="#ffffff" fill-opacity="1">
        <g transform="translate(1187.160257, 232.193536)">
            <g>
                <path d="M 9.1875 0.71875 C 7.789062 0.71875 6.597656 0.207031 5.609375 -0.8125 C 4.617188 -1.832031 4.125 -3.289062 4.125 -5.1875 L 4.125 -17.6875 L 1.65625 -17.59375 C 1.488281 -17.59375 1.347656 -17.671875 1.234375 -17.828125 C 1.117188 -17.984375 1.0625 -18.160156 1.0625 -18.359375 C 1.0625 -18.617188 1.109375 -18.835938 1.203125 -19.015625 C 1.304688 -19.203125 1.457031 -19.3125 1.65625 -19.34375 C 2.644531 -19.539062 3.414062 -19.859375 3.96875 -20.296875 C 4.519531 -20.734375 4.921875 -21.210938 5.171875 -21.734375 C 5.429688 -22.265625 5.75 -23.070312 6.125 -24.15625 C 6.257812 -24.519531 6.570312 -24.703125 7.0625 -24.703125 C 7.257812 -24.703125 7.457031 -24.648438 7.65625 -24.546875 C 7.851562 -24.453125 7.953125 -24.304688 7.953125 -24.109375 L 7.65625 -19.265625 L 12.625 -19.5625 L 12.71875 -19.5625 C 13.082031 -19.5625 13.265625 -19.289062 13.265625 -18.75 C 13.265625 -18.4375 13.210938 -18.144531 13.109375 -17.875 C 13.015625 -17.601562 12.894531 -17.46875 12.75 -17.46875 L 8 -17.59375 L 8 -4.671875 C 8 -3.742188 8.1875 -2.96875 8.5625 -2.34375 C 8.945312 -1.71875 9.578125 -1.40625 10.453125 -1.40625 C 11.335938 -1.40625 12.117188 -1.5625 12.796875 -1.875 C 13.160156 -2.007812 13.390625 -2.078125 13.484375 -2.078125 C 13.679688 -2.078125 13.832031 -2 13.9375 -1.84375 C 14.050781 -1.6875 14.164062 -1.484375 14.28125 -1.234375 C 14.3125 -1.171875 14.328125 -1.097656 14.328125 -1.015625 C 14.328125 -0.898438 14.242188 -0.773438 14.078125 -0.640625 C 13.253906 -0.0976562 12.476562 0.257812 11.75 0.4375 C 11.03125 0.625 10.175781 0.71875 9.1875 0.71875 Z M 9.1875 0.71875 "/>
            </g>
        </g>
    </g>
    <g fill="#ffffff" fill-opacity="1">
        <g transform="translate(1213.854652, 232.193536)">
            <g/>
        </g>
    </g>
    <g fill="#ffffff" fill-opacity="1">
        <g transform="translate(1233.918432, 232.193536)">
            <g>
                <path d="M 2.078125 0.125 C 1.878906 0.125 1.71875 0.0390625 1.59375 -0.125 C 1.46875 -0.289062 1.40625 -0.488281 1.40625 -0.71875 C 1.4375 -1.09375 1.519531 -1.3125 1.65625 -1.375 C 1.800781 -1.445312 2.054688 -1.484375 2.421875 -1.484375 C 3.160156 -1.484375 3.6875 -1.609375 4 -1.859375 C 4.3125 -2.117188 4.488281 -2.421875 4.53125 -2.765625 C 4.570312 -3.109375 4.59375 -3.644531 4.59375 -4.375 L 4.59375 -14.109375 C 4.59375 -14.847656 4.570312 -15.382812 4.53125 -15.71875 C 4.488281 -16.0625 4.3125 -16.359375 4 -16.609375 C 3.6875 -16.867188 3.160156 -17 2.421875 -17 C 2.078125 -17 1.820312 -17.046875 1.65625 -17.140625 C 1.488281 -17.242188 1.40625 -17.484375 1.40625 -17.859375 C 1.40625 -18.023438 1.460938 -18.1875 1.578125 -18.34375 C 1.691406 -18.5 1.859375 -18.59375 2.078125 -18.625 C 3.921875 -18.90625 5.4375 -19.273438 6.625 -19.734375 C 7.113281 -19.867188 7.441406 -19.953125 7.609375 -19.984375 L 7.734375 -19.984375 C 8.191406 -19.984375 8.421875 -19.710938 8.421875 -19.171875 L 8.421875 -16.5 L 8.546875 -16.5 C 9.367188 -17.257812 10.035156 -17.84375 10.546875 -18.25 C 11.054688 -18.664062 11.710938 -19.019531 12.515625 -19.3125 C 13.328125 -19.613281 14.285156 -19.765625 15.390625 -19.765625 C 17.316406 -19.765625 18.847656 -19.179688 19.984375 -18.015625 C 21.117188 -16.859375 21.6875 -15.332031 21.6875 -13.4375 L 21.6875 -4.375 C 21.6875 -3.644531 21.710938 -3.109375 21.765625 -2.765625 C 21.828125 -2.421875 22.007812 -2.117188 22.3125 -1.859375 C 22.625 -1.609375 23.148438 -1.484375 23.890625 -1.484375 L 24.15625 -1.484375 C 24.375 -1.484375 24.539062 -1.441406 24.65625 -1.359375 C 24.769531 -1.273438 24.84375 -1.0625 24.875 -0.71875 C 24.875 -0.488281 24.804688 -0.289062 24.671875 -0.125 C 24.546875 0.0390625 24.382812 0.125 24.1875 0.125 C 22.539062 0.0390625 21.054688 0 19.734375 0 C 18.453125 0 16.976562 0.0390625 15.3125 0.125 C 15.113281 0.125 14.945312 0.0390625 14.8125 -0.125 C 14.6875 -0.289062 14.625 -0.488281 14.625 -0.71875 C 14.65625 -1.09375 14.734375 -1.3125 14.859375 -1.375 C 14.984375 -1.445312 15.234375 -1.484375 15.609375 -1.484375 C 16.335938 -1.484375 16.859375 -1.609375 17.171875 -1.859375 C 17.484375 -2.117188 17.664062 -2.421875 17.71875 -2.765625 C 17.78125 -3.109375 17.8125 -3.644531 17.8125 -4.375 L 17.8125 -13.390625 C 17.8125 -14.691406 17.398438 -15.691406 16.578125 -16.390625 C 15.753906 -17.085938 14.804688 -17.4375 13.734375 -17.4375 C 12.429688 -17.4375 11.3125 -17.113281 10.375 -16.46875 C 9.4375 -15.832031 8.796875 -15.175781 8.453125 -14.5 L 8.453125 -4.375 C 8.453125 -3.644531 8.476562 -3.109375 8.53125 -2.765625 C 8.59375 -2.421875 8.78125 -2.117188 9.09375 -1.859375 C 9.40625 -1.609375 9.929688 -1.484375 10.671875 -1.484375 L 10.921875 -1.484375 C 11.148438 -1.484375 11.320312 -1.441406 11.4375 -1.359375 C 11.550781 -1.273438 11.625 -1.0625 11.65625 -0.71875 C 11.65625 -0.488281 11.597656 -0.289062 11.484375 -0.125 C 11.367188 0.0390625 11.195312 0.125 10.96875 0.125 C 9.320312 0.0390625 7.832031 0 6.5 0 C 5.226562 0 3.753906 0.0390625 2.078125 0.125 Z M 2.078125 0.125 "/>
            </g>
        </g>
    </g>
    <g fill="#ffffff" fill-opacity="1">
        <g transform="translate(1269.963748, 232.193536)">
            <g>
                <path d="M 11.6875 0.515625 C 9.5625 0.515625 7.753906 0.0625 6.265625 -0.84375 C 4.773438 -1.75 3.648438 -2.984375 2.890625 -4.546875 C 2.128906 -6.109375 1.75 -7.835938 1.75 -9.734375 C 1.75 -11.410156 2.132812 -13.019531 2.90625 -14.5625 C 3.6875 -16.101562 4.800781 -17.351562 6.25 -18.3125 C 7.695312 -19.28125 9.351562 -19.765625 11.21875 -19.765625 C 13.75 -19.765625 15.691406 -19.117188 17.046875 -17.828125 C 18.410156 -16.546875 19.191406 -14.8125 19.390625 -12.625 C 19.390625 -11.6875 19.132812 -11.046875 18.625 -10.703125 C 18.113281 -10.367188 17.375 -10.203125 16.40625 -10.203125 L 6.078125 -10.203125 C 6.078125 -7.566406 6.625 -5.472656 7.71875 -3.921875 C 8.8125 -2.378906 10.503906 -1.609375 12.796875 -1.609375 C 14.015625 -1.609375 15.046875 -1.867188 15.890625 -2.390625 C 16.742188 -2.921875 17.554688 -3.8125 18.328125 -5.0625 C 18.460938 -5.195312 18.601562 -5.265625 18.75 -5.265625 C 18.945312 -5.265625 19.117188 -5.210938 19.265625 -5.109375 C 19.546875 -4.929688 19.6875 -4.675781 19.6875 -4.34375 C 19.6875 -4.164062 19.65625 -4.035156 19.59375 -3.953125 C 18.71875 -2.535156 17.609375 -1.4375 16.265625 -0.65625 C 14.921875 0.125 13.394531 0.515625 11.6875 0.515625 Z M 13.015625 -11.8125 C 14.453125 -11.8125 15.21875 -12.410156 15.3125 -13.609375 C 15.3125 -14.910156 14.957031 -16.015625 14.25 -16.921875 C 13.539062 -17.828125 12.53125 -18.28125 11.21875 -18.28125 C 9.78125 -18.28125 8.59375 -17.707031 7.65625 -16.5625 C 6.71875 -15.414062 6.191406 -13.832031 6.078125 -11.8125 Z M 13.015625 -11.8125 "/>
            </g>
        </g>
    </g>
    <g fill="#ffffff" fill-opacity="1">
        <g transform="translate(1301.886169, 232.193536)">
            <g>
                <path d="M 11.6875 0.515625 C 9.5625 0.515625 7.753906 0.0625 6.265625 -0.84375 C 4.773438 -1.75 3.648438 -2.984375 2.890625 -4.546875 C 2.128906 -6.109375 1.75 -7.835938 1.75 -9.734375 C 1.75 -11.410156 2.132812 -13.019531 2.90625 -14.5625 C 3.6875 -16.101562 4.800781 -17.351562 6.25 -18.3125 C 7.695312 -19.28125 9.351562 -19.765625 11.21875 -19.765625 C 13.75 -19.765625 15.691406 -19.117188 17.046875 -17.828125 C 18.410156 -16.546875 19.191406 -14.8125 19.390625 -12.625 C 19.390625 -11.6875 19.132812 -11.046875 18.625 -10.703125 C 18.113281 -10.367188 17.375 -10.203125 16.40625 -10.203125 L 6.078125 -10.203125 C 6.078125 -7.566406 6.625 -5.472656 7.71875 -3.921875 C 8.8125 -2.378906 10.503906 -1.609375 12.796875 -1.609375 C 14.015625 -1.609375 15.046875 -1.867188 15.890625 -2.390625 C 16.742188 -2.921875 17.554688 -3.8125 18.328125 -5.0625 C 18.460938 -5.195312 18.601562 -5.265625 18.75 -5.265625 C 18.945312 -5.265625 19.117188 -5.210938 19.265625 -5.109375 C 19.546875 -4.929688 19.6875 -4.675781 19.6875 -4.34375 C 19.6875 -4.164062 19.65625 -4.035156 19.59375 -3.953125 C 18.71875 -2.535156 17.609375 -1.4375 16.265625 -0.65625 C 14.921875 0.125 13.394531 0.515625 11.6875 0.515625 Z M 13.015625 -11.8125 C 14.453125 -11.8125 15.21875 -12.410156 15.3125 -13.609375 C 15.3125 -14.910156 14.957031 -16.015625 14.25 -16.921875 C 13.539062 -17.828125 12.53125 -18.28125 11.21875 -18.28125 C 9.78125 -18.28125 8.59375 -17.707031 7.65625 -16.5625 C 6.71875 -15.414062 6.191406 -13.832031 6.078125 -11.8125 Z M 13.015625 -11.8125 "/>
            </g>
        </g>
    </g>
    <g fill="#ffffff" fill-opacity="1">
        <g transform="translate(1333.808591, 232.193536)">
            <g>
                <path d="M 10.671875 0.515625 C 9.085938 0.515625 7.613281 0.0820312 6.25 -0.78125 C 4.882812 -1.644531 3.789062 -2.847656 2.96875 -4.390625 C 2.15625 -5.941406 1.75 -7.695312 1.75 -9.65625 C 1.75 -11.40625 2.171875 -13.0625 3.015625 -14.625 C 3.867188 -16.1875 5.046875 -17.429688 6.546875 -18.359375 C 8.046875 -19.296875 9.71875 -19.765625 11.5625 -19.765625 C 12.4375 -19.765625 13.3125 -19.65625 14.1875 -19.4375 C 15.070312 -19.226562 15.84375 -18.941406 16.5 -18.578125 L 16.625 -18.578125 L 16.625 -25.078125 C 16.625 -25.816406 16.601562 -26.351562 16.5625 -26.6875 C 16.519531 -27.03125 16.34375 -27.328125 16.03125 -27.578125 C 15.71875 -27.835938 15.191406 -27.96875 14.453125 -27.96875 C 14.109375 -27.96875 13.851562 -28.015625 13.6875 -28.109375 C 13.519531 -28.210938 13.4375 -28.453125 13.4375 -28.828125 C 13.4375 -28.992188 13.492188 -29.15625 13.609375 -29.3125 C 13.722656 -29.46875 13.890625 -29.5625 14.109375 -29.59375 C 15.898438 -29.84375 17.429688 -30.210938 18.703125 -30.703125 C 19.097656 -30.835938 19.425781 -30.921875 19.6875 -30.953125 L 19.8125 -30.953125 C 20.269531 -30.953125 20.5 -30.679688 20.5 -30.140625 L 20.5 -3.90625 C 20.5 -2.238281 21.601562 -1.40625 23.8125 -1.40625 C 24.289062 -1.40625 24.53125 -1.175781 24.53125 -0.71875 C 24.53125 -0.320312 24.289062 -0.0820312 23.8125 0 L 17.046875 0.46875 C 16.847656 0.46875 16.734375 0.398438 16.703125 0.265625 C 16.679688 0.140625 16.671875 -0.0703125 16.671875 -0.375 L 16.671875 -2.078125 L 16.53125 -2.078125 C 15.800781 -1.316406 14.90625 -0.691406 13.84375 -0.203125 C 12.78125 0.273438 11.722656 0.515625 10.671875 0.515625 Z M 12.109375 -1.609375 C 13.109375 -1.609375 13.953125 -1.800781 14.640625 -2.1875 C 15.335938 -2.570312 16 -3.085938 16.625 -3.734375 L 16.625 -14.96875 C 16.363281 -15.789062 15.828125 -16.539062 15.015625 -17.21875 C 14.210938 -17.894531 13.203125 -18.234375 11.984375 -18.234375 C 10.878906 -18.234375 9.878906 -17.882812 8.984375 -17.1875 C 8.097656 -16.5 7.398438 -15.488281 6.890625 -14.15625 C 6.378906 -12.820312 6.125 -11.25 6.125 -9.4375 C 6.125 -7.257812 6.640625 -5.410156 7.671875 -3.890625 C 8.703125 -2.367188 10.179688 -1.609375 12.109375 -1.609375 Z M 12.109375 -1.609375 "/>
            </g>
        </g>
    </g>
    <g fill="#ffffff" fill-opacity="1">
        <g transform="translate(1369.04632, 232.193536)">
            <g>
                <path d="M 9.265625 0.515625 C 6.992188 0.515625 5.148438 0.117188 3.734375 -0.671875 C 2.316406 -1.472656 1.609375 -2.59375 1.609375 -4.03125 C 1.609375 -4.851562 1.859375 -5.519531 2.359375 -6.03125 C 2.859375 -6.539062 3.503906 -6.796875 4.296875 -6.796875 C 4.742188 -6.796875 5.144531 -6.664062 5.5 -6.40625 C 5.851562 -6.15625 6.03125 -5.960938 6.03125 -5.828125 C 6.03125 -5.796875 5.867188 -5.609375 5.546875 -5.265625 C 5.222656 -4.929688 5.0625 -4.453125 5.0625 -3.828125 C 5.0625 -2.972656 5.445312 -2.296875 6.21875 -1.796875 C 7 -1.304688 8.128906 -1.0625 9.609375 -1.0625 C 10.941406 -1.0625 11.984375 -1.351562 12.734375 -1.9375 C 13.484375 -2.519531 13.859375 -3.332031 13.859375 -4.375 C 13.859375 -5.082031 13.644531 -5.660156 13.21875 -6.109375 C 12.789062 -6.566406 12.257812 -6.921875 11.625 -7.171875 C 10.988281 -7.429688 10.101562 -7.734375 8.96875 -8.078125 C 7.582031 -8.472656 6.445312 -8.867188 5.5625 -9.265625 C 4.6875 -9.660156 3.9375 -10.253906 3.3125 -11.046875 C 2.6875 -11.847656 2.375 -12.882812 2.375 -14.15625 C 2.375 -15.34375 2.742188 -16.363281 3.484375 -17.21875 C 4.222656 -18.070312 5.179688 -18.707031 6.359375 -19.125 C 7.535156 -19.550781 8.773438 -19.765625 10.078125 -19.765625 C 11.742188 -19.765625 13.191406 -19.410156 14.421875 -18.703125 C 15.660156 -17.992188 16.28125 -17.003906 16.28125 -15.734375 C 16.28125 -14.960938 16.046875 -14.304688 15.578125 -13.765625 C 15.109375 -13.234375 14.492188 -12.96875 13.734375 -12.96875 C 13.273438 -12.96875 12.867188 -13.09375 12.515625 -13.34375 C 12.160156 -13.601562 11.984375 -13.800781 11.984375 -13.9375 C 11.984375 -13.96875 12.097656 -14.082031 12.328125 -14.28125 C 12.554688 -14.476562 12.757812 -14.710938 12.9375 -14.984375 C 13.125 -15.253906 13.21875 -15.570312 13.21875 -15.9375 C 13.164062 -16.707031 12.785156 -17.300781 12.078125 -17.71875 C 11.367188 -18.144531 10.53125 -18.359375 9.5625 -18.359375 C 8.488281 -18.359375 7.546875 -18.109375 6.734375 -17.609375 C 5.929688 -17.117188 5.53125 -16.4375 5.53125 -15.5625 C 5.53125 -14.769531 5.695312 -14.140625 6.03125 -13.671875 C 6.375 -13.203125 6.882812 -12.820312 7.5625 -12.53125 C 8.25 -12.25 9.328125 -11.867188 10.796875 -11.390625 C 12.296875 -10.910156 13.472656 -10.460938 14.328125 -10.046875 C 15.179688 -9.640625 15.851562 -9.085938 16.34375 -8.390625 C 16.84375 -7.703125 17.09375 -6.789062 17.09375 -5.65625 C 17.09375 -4.488281 16.75 -3.429688 16.0625 -2.484375 C 15.382812 -1.535156 14.453125 -0.796875 13.265625 -0.265625 C 12.078125 0.253906 10.742188 0.515625 9.265625 0.515625 Z M 9.265625 0.515625 "/>
            </g>
        </g>
    </g>
    <g fill="#ffffff" fill-opacity="1">
        <g transform="translate(1398.461021, 232.193536)">
            <g>
                <path d="M 2.171875 -19.859375 C 1.910156 -19.742188 1.679688 -19.769531 1.484375 -19.9375 C 1.285156 -20.101562 1.1875 -20.316406 1.1875 -20.578125 C 1.1875 -20.859375 1.328125 -21.054688 1.609375 -21.171875 C 2.828125 -21.628906 3.734375 -22.160156 4.328125 -22.765625 C 4.929688 -23.378906 5.234375 -24.109375 5.234375 -24.953125 C 5.234375 -25.429688 5.085938 -25.820312 4.796875 -26.125 C 4.515625 -26.425781 4.117188 -26.742188 3.609375 -27.078125 C 3.097656 -27.421875 2.707031 -27.734375 2.4375 -28.015625 C 2.175781 -28.296875 2.046875 -28.648438 2.046875 -29.078125 C 2.046875 -29.617188 2.25 -30.109375 2.65625 -30.546875 C 3.070312 -30.984375 3.578125 -31.203125 4.171875 -31.203125 C 4.960938 -31.203125 5.679688 -30.953125 6.328125 -30.453125 C 6.984375 -29.960938 7.5 -29.320312 7.875 -28.53125 C 8.257812 -27.738281 8.453125 -26.941406 8.453125 -26.140625 C 8.453125 -24.523438 7.84375 -23.203125 6.625 -22.171875 C 5.40625 -21.140625 3.921875 -20.367188 2.171875 -19.859375 Z M 10.671875 -19.859375 C 10.410156 -19.742188 10.179688 -19.769531 9.984375 -19.9375 C 9.785156 -20.101562 9.6875 -20.316406 9.6875 -20.578125 C 9.6875 -20.859375 9.832031 -21.054688 10.125 -21.171875 C 11.34375 -21.628906 12.25 -22.160156 12.84375 -22.765625 C 13.4375 -23.378906 13.734375 -24.109375 13.734375 -24.953125 C 13.734375 -25.429688 13.585938 -25.820312 13.296875 -26.125 C 13.015625 -26.425781 12.617188 -26.742188 12.109375 -27.078125 C 11.609375 -27.421875 11.222656 -27.734375 10.953125 -28.015625 C 10.679688 -28.296875 10.546875 -28.648438 10.546875 -29.078125 C 10.546875 -29.617188 10.753906 -30.109375 11.171875 -30.546875 C 11.597656 -30.984375 12.097656 -31.203125 12.671875 -31.203125 C 13.460938 -31.203125 14.179688 -30.953125 14.828125 -30.453125 C 15.484375 -29.960938 16.003906 -29.320312 16.390625 -28.53125 C 16.773438 -27.738281 16.96875 -26.941406 16.96875 -26.140625 C 16.96875 -24.523438 16.359375 -23.203125 15.140625 -22.171875 C 13.921875 -21.140625 12.429688 -20.367188 10.671875 -19.859375 Z M 10.671875 -19.859375 "/>
            </g>
        </g>
    </g>
</svg>