<svg xmlns="http://www.w3.org/2000/svg" xmlns:xlink="http://www.w3.org/1999/xlink" width="2000" zoomAndPan="magnify" viewBox="0 0 1500 449.999984" height="600" preserveAspectRatio="xMidYMid meet" version="1.0"><defs><g/></defs><g fill="#ffffff" fill-opacity="1"><g transform="translate(122.976638, 234.843498)"><g><path d="M 2.9375 -16.375 C 2.4375 -16.375 1.972656 -16.535156 1.546875 -16.859375 C 1.015625 -17.242188 0.75 -17.671875 0.75 -18.140625 C 0.75 -19.703125 1.390625 -21.144531 2.671875 -22.46875 C 3.816406 -23.644531 4.65625 -24.160156 5.1875 -24.015625 C 5.332031 -23.984375 5.40625 -23.929688 5.40625 -23.859375 C 5.40625 -23.785156 4.992188 -23.285156 4.171875 -22.359375 C 3.390625 -21.503906 3.035156 -20.6875 3.109375 -19.90625 C 3.140625 -19.507812 3.382812 -19.164062 3.84375 -18.875 C 4.3125 -18.59375 4.546875 -18.289062 4.546875 -17.96875 C 4.546875 -16.90625 4.007812 -16.375 2.9375 -16.375 Z M 8.40625 -16.375 C 7.90625 -16.375 7.40625 -16.539062 6.90625 -16.875 C 6.40625 -17.21875 6.15625 -17.640625 6.15625 -18.140625 C 6.15625 -19.703125 6.796875 -21.144531 8.078125 -22.46875 C 9.222656 -23.644531 10.078125 -24.160156 10.640625 -24.015625 C 10.785156 -23.984375 10.859375 -23.929688 10.859375 -23.859375 C 10.859375 -23.828125 10.429688 -23.347656 9.578125 -22.421875 C 8.753906 -21.492188 8.394531 -20.65625 8.5 -19.90625 C 8.539062 -19.507812 8.789062 -19.164062 9.25 -18.875 C 9.71875 -18.59375 9.953125 -18.289062 9.953125 -17.96875 C 9.953125 -16.90625 9.4375 -16.375 8.40625 -16.375 Z M 8.40625 -16.375 "/></g></g></g><g fill="#ffffff" fill-opacity="1"><g transform="translate(147.321229, 234.843498)"><g><path d="M 8.1875 6.203125 C 2.695312 5.742188 -0.046875 2.925781 -0.046875 -2.25 C -0.046875 -5.3125 0.910156 -8.554688 2.828125 -11.984375 C 3.972656 -14.054688 5.410156 -16.070312 7.140625 -18.03125 C 8.867188 -19.988281 10.757812 -21.757812 12.8125 -23.34375 C 14.863281 -24.9375 16.96875 -26.195312 19.125 -27.125 C 21.28125 -28.050781 23.359375 -28.515625 25.359375 -28.515625 C 28.890625 -28.515625 30.65625 -27.210938 30.65625 -24.609375 C 30.65625 -22.859375 30.117188 -20.914062 29.046875 -18.78125 C 27.984375 -16.632812 26.894531 -15.28125 25.78125 -14.71875 C 25.675781 -14.675781 25.550781 -14.65625 25.40625 -14.65625 C 25.300781 -14.65625 25.25 -14.691406 25.25 -14.765625 L 27.015625 -17.65625 C 28.234375 -19.65625 28.84375 -21.398438 28.84375 -22.890625 C 28.84375 -23.960938 28.554688 -24.976562 27.984375 -25.9375 C 27.410156 -26.90625 26.394531 -27.390625 24.9375 -27.390625 C 23.144531 -27.390625 21.3125 -26.890625 19.4375 -25.890625 C 17.570312 -24.890625 15.765625 -23.566406 14.015625 -21.921875 C 12.265625 -20.285156 10.675781 -18.476562 9.25 -16.5 C 7.820312 -14.519531 6.679688 -12.566406 5.828125 -10.640625 C 4.015625 -6.546875 3.109375 -3.234375 3.109375 -0.703125 C 3.109375 3.117188 5.050781 5.03125 8.9375 5.03125 C 12.644531 5.03125 17.671875 2.640625 24.015625 -2.140625 C 25.484375 -3.242188 27.363281 -4.796875 29.65625 -6.796875 C 31.957031 -8.796875 34.660156 -11.222656 37.765625 -14.078125 C 37.335938 -14.035156 36.800781 -13.988281 36.15625 -13.9375 C 35.519531 -13.882812 34.773438 -13.785156 33.921875 -13.640625 C 33.566406 -13.566406 33.226562 -13.503906 32.90625 -13.453125 C 32.582031 -13.398438 32.28125 -13.375 32 -13.375 C 31.28125 -13.445312 30.972656 -13.625 31.078125 -13.90625 C 31.222656 -15.226562 31.898438 -15.890625 33.109375 -15.890625 C 34.222656 -15.742188 35.269531 -15.632812 36.25 -15.5625 C 37.226562 -15.5 38.164062 -15.46875 39.0625 -15.46875 C 40.445312 -16.75 42.289062 -18.535156 44.59375 -20.828125 C 46.894531 -23.128906 49.628906 -25.957031 52.796875 -29.3125 C 56.898438 -33.632812 59.398438 -35.796875 60.296875 -35.796875 C 60.691406 -35.796875 60.890625 -35.4375 60.890625 -34.71875 C 60.890625 -34.4375 60.851562 -34.082031 60.78125 -33.65625 C 60.707031 -33.226562 60.597656 -32.726562 60.453125 -32.15625 C 60.097656 -30.800781 59.722656 -29.976562 59.328125 -29.6875 C 58.222656 -28.90625 57.304688 -27.898438 56.578125 -26.671875 C 55.847656 -25.441406 55.109375 -24.078125 54.359375 -22.578125 C 53.609375 -21.046875 52.921875 -19.679688 52.296875 -18.484375 C 51.671875 -17.285156 51.109375 -16.222656 50.609375 -15.296875 L 55.796875 -15.40625 C 57.078125 -15.40625 57.71875 -15.316406 57.71875 -15.140625 C 57.71875 -15.109375 57.6875 -15.054688 57.625 -14.984375 C 57.007812 -14.585938 54.441406 -14.226562 49.921875 -13.90625 C 46.597656 -7.445312 44.9375 -3.023438 44.9375 -0.640625 C 44.9375 0.992188 45.453125 1.8125 46.484375 1.8125 C 46.878906 1.8125 47.378906 1.5625 47.984375 1.0625 C 48.554688 0.601562 48.914062 0.375 49.0625 0.375 C 49.0625 0.300781 49.078125 0.28125 49.109375 0.3125 C 49.148438 0.351562 49.132812 0.375 49.0625 0.375 C 48.882812 1.019531 48.359375 1.597656 47.484375 2.109375 C 46.609375 2.628906 45.6875 2.890625 44.71875 2.890625 C 43.832031 2.890625 43.242188 2.601562 42.953125 2.03125 C 42.671875 1.457031 42.53125 0.671875 42.53125 -0.328125 C 42.53125 -3.921875 43.90625 -8.503906 46.65625 -14.078125 L 40.234375 -13.90625 C 35.453125 -9.238281 30.65625 -5.140625 25.84375 -1.609375 C 18.175781 3.953125 12.289062 6.554688 8.1875 6.203125 Z M 47.140625 -15.46875 C 47.566406 -16.28125 48.421875 -17.765625 49.703125 -19.921875 C 50.984375 -22.085938 52.710938 -24.898438 54.890625 -28.359375 L 41.1875 -15.515625 Z M 47.140625 -15.46875 "/></g></g></g><g fill="#ffffff" fill-opacity="1"><g transform="translate(215.211662, 234.843498)"><g/></g></g><g fill="#ffffff" fill-opacity="1"><g transform="translate(239.128278, 234.843498)"><g><path d="M 2.296875 0.109375 C 1.410156 0.109375 0.71875 -0.304688 0.21875 -1.140625 C -0.28125 -1.984375 -0.53125 -2.796875 -0.53125 -3.578125 C -0.53125 -5.722656 1.019531 -8.722656 4.125 -12.578125 C 7.257812 -16.460938 9.789062 -18.40625 11.71875 -18.40625 C 13.53125 -18.40625 14.4375 -17.441406 14.4375 -15.515625 C 14.4375 -15.234375 14.410156 -14.929688 14.359375 -14.609375 C 14.304688 -14.285156 14.242188 -13.945312 14.171875 -13.59375 C 14.242188 -13.476562 14.425781 -13.421875 14.71875 -13.421875 C 15.675781 -13.421875 16.816406 -13.757812 18.140625 -14.4375 C 18.097656 -13.832031 16.6875 -12.960938 13.90625 -11.828125 C 14.300781 -10.648438 13.125 -8.398438 10.375 -5.078125 C 7.5625 -1.617188 5.15625 0.109375 3.15625 0.109375 Z M 3.265625 -1.5 C 4.796875 -1.5 6.757812 -2.90625 9.15625 -5.71875 C 11.46875 -8.46875 12.625 -10.445312 12.625 -11.65625 C 12.050781 -11.976562 11.335938 -12.800781 10.484375 -14.125 C 9.273438 -14.125 7.53125 -12.660156 5.25 -9.734375 C 3 -6.878906 1.910156 -4.6875 1.984375 -3.15625 C 2.015625 -2.050781 2.441406 -1.5 3.265625 -1.5 Z M 3.265625 -1.5 "/></g></g></g><g fill="#ffffff" fill-opacity="1"><g transform="translate(267.485076, 234.843498)"><g><path d="M 13.640625 0.109375 C 12.679688 0.109375 12.003906 -0.164062 11.609375 -0.71875 C 11.210938 -1.269531 11.015625 -1.957031 11.015625 -2.78125 C 11.015625 -4.851562 11.726562 -7.066406 13.15625 -9.421875 L 16.578125 -14.984375 C 14.160156 -13.203125 11.753906 -10.972656 9.359375 -8.296875 C 8.722656 -7.578125 8 -6.734375 7.1875 -5.765625 C 6.382812 -4.804688 5.503906 -3.707031 4.546875 -2.46875 C 3.265625 -0.789062 2.5 0.046875 2.25 0.046875 C 1.75 0.046875 1.335938 -0.171875 1.015625 -0.609375 C 0.691406 -1.054688 0.53125 -1.457031 0.53125 -1.8125 C 0.53125 -2.101562 0.617188 -2.628906 0.796875 -3.390625 C 0.972656 -4.160156 1.1875 -4.832031 1.4375 -5.40625 C 1.6875 -6.007812 1.945312 -6.601562 2.21875 -7.1875 C 2.488281 -7.78125 2.75 -8.363281 3 -8.9375 L -0.21875 -5.5625 C -0.289062 -5.488281 -0.503906 -5.273438 -0.859375 -4.921875 C -1.210938 -4.566406 -1.5 -4.390625 -1.71875 -4.390625 C -1.894531 -4.390625 -1.984375 -4.515625 -1.984375 -4.765625 C -1.984375 -4.835938 -1.953125 -4.9375 -1.890625 -5.0625 C -1.835938 -5.1875 -1.722656 -5.335938 -1.546875 -5.515625 C -1.015625 -6.046875 -0.460938 -6.613281 0.109375 -7.21875 C 0.679688 -7.820312 1.269531 -8.519531 1.875 -9.3125 C 2.195312 -9.695312 2.675781 -10.289062 3.3125 -11.09375 C 3.957031 -11.90625 4.660156 -12.773438 5.421875 -13.703125 C 6.191406 -14.628906 6.914062 -15.484375 7.59375 -16.265625 C 7.769531 -16.515625 7.960938 -16.679688 8.171875 -16.765625 C 8.390625 -16.859375 8.535156 -16.90625 8.609375 -16.90625 C 9.578125 -16.90625 10.0625 -16.53125 10.0625 -15.78125 C 10.0625 -15.570312 10.003906 -15.359375 9.890625 -15.140625 C 6.679688 -10.710938 4.757812 -7.34375 4.125 -5.03125 C 8.257812 -9.164062 11.582031 -12.273438 14.09375 -14.359375 C 16.613281 -16.453125 18.40625 -17.5 19.46875 -17.5 C 20.039062 -17.5 20.476562 -17.40625 20.78125 -17.21875 C 21.082031 -17.039062 21.234375 -16.703125 21.234375 -16.203125 C 21.234375 -16.023438 21.21875 -15.882812 21.1875 -15.78125 C 21.082031 -15.53125 20.351562 -14.53125 19 -12.78125 C 18.175781 -11.78125 17.453125 -10.867188 16.828125 -10.046875 C 16.203125 -9.234375 15.691406 -8.523438 15.296875 -7.921875 C 14.660156 -6.921875 14.179688 -5.984375 13.859375 -5.109375 C 13.535156 -4.234375 13.375 -3.492188 13.375 -2.890625 C 13.375 -2.640625 13.410156 -2.332031 13.484375 -1.96875 C 13.554688 -1.613281 13.769531 -1.4375 14.125 -1.4375 C 14.945312 -1.4375 16.226562 -2.148438 17.96875 -3.578125 C 18.789062 -4.296875 19.554688 -5.019531 20.265625 -5.75 C 20.984375 -6.476562 21.664062 -7.203125 22.3125 -7.921875 C 22.457031 -8.054688 22.6875 -8.328125 23 -8.734375 C 23.320312 -9.148438 23.519531 -9.359375 23.59375 -9.359375 C 23.738281 -9.359375 23.8125 -9.21875 23.8125 -8.9375 C 23.8125 -8.789062 23.726562 -8.546875 23.5625 -8.203125 C 23.40625 -7.867188 23.238281 -7.613281 23.0625 -7.4375 C 22.664062 -6.96875 22.082031 -6.320312 21.3125 -5.5 C 20.550781 -4.6875 19.695312 -3.851562 18.75 -3 C 17.800781 -2.144531 16.878906 -1.410156 15.984375 -0.796875 C 15.097656 -0.191406 14.316406 0.109375 13.640625 0.109375 Z M 13.640625 0.109375 "/></g></g></g><g fill="#ffffff" fill-opacity="1"><g transform="translate(302.368404, 234.843498)"><g><path d="M 2.734375 0.703125 C 1.585938 0.703125 0.550781 0.335938 -0.375 -0.390625 C -1.300781 -1.128906 -1.765625 -2.101562 -1.765625 -3.3125 C -1.765625 -5.84375 -0.210938 -8.734375 2.890625 -11.984375 C 6.066406 -15.265625 8.898438 -16.90625 11.390625 -16.90625 C 12.210938 -16.90625 12.878906 -16.679688 13.390625 -16.234375 C 13.910156 -15.785156 14.171875 -15.242188 14.171875 -14.609375 C 14.171875 -12.609375 12.585938 -10.644531 9.421875 -8.71875 C 6.597656 -7.007812 4.222656 -6.15625 2.296875 -6.15625 C 2.015625 -6.15625 1.765625 -6.191406 1.546875 -6.265625 C 1.015625 -5.296875 0.75 -4.273438 0.75 -3.203125 C 0.75 -1.347656 1.625 -0.421875 3.375 -0.421875 C 5.15625 -0.421875 7.453125 -1.617188 10.265625 -4.015625 C 12.441406 -5.765625 14.300781 -7.617188 15.84375 -9.578125 C 16.15625 -10.003906 16.4375 -10.21875 16.6875 -10.21875 C 16.90625 -10.21875 17.015625 -10.109375 17.015625 -9.890625 C 17.015625 -9.679688 16.867188 -9.378906 16.578125 -8.984375 C 15.585938 -7.671875 14.519531 -6.457031 13.375 -5.34375 C 12.226562 -4.238281 11 -3.222656 9.6875 -2.296875 C 6.9375 -0.296875 4.617188 0.703125 2.734375 0.703125 Z M 3.046875 -7.328125 C 4.398438 -7.328125 6.164062 -8.003906 8.34375 -9.359375 C 9.0625 -9.859375 9.765625 -10.421875 10.453125 -11.046875 C 11.148438 -11.671875 11.722656 -12.300781 12.171875 -12.9375 C 12.617188 -13.582031 12.84375 -14.15625 12.84375 -14.65625 C 12.84375 -15.125 12.46875 -15.359375 11.71875 -15.359375 C 10.644531 -15.359375 9.144531 -14.554688 7.21875 -12.953125 C 6.289062 -12.160156 5.398438 -11.300781 4.546875 -10.375 C 3.691406 -9.445312 2.960938 -8.46875 2.359375 -7.4375 C 2.566406 -7.363281 2.796875 -7.328125 3.046875 -7.328125 Z M 3.046875 -7.328125 "/></g></g></g><g fill="#ffffff" fill-opacity="1"><g transform="translate(329.441312, 234.843498)"><g/></g></g><g fill="#ffffff" fill-opacity="1"><g transform="translate(353.357929, 234.843498)"><g><path d="M 6.15625 0.109375 C 4.476562 0.109375 3.238281 -0.441406 2.4375 -1.546875 C 1.632812 -2.648438 0.984375 -4.1875 0.484375 -6.15625 C -0.160156 -5.507812 -0.609375 -5.1875 -0.859375 -5.1875 C -1.035156 -5.1875 -1.125 -5.332031 -1.125 -5.625 C -1.125 -5.832031 -1.035156 -6.023438 -0.859375 -6.203125 C -0.859375 -6.203125 -0.40625 -6.753906 0.5 -7.859375 C 1.414062 -8.960938 2.960938 -10.515625 5.140625 -12.515625 L 11.875 -18.828125 C 12.800781 -19.722656 13.539062 -20.398438 14.09375 -20.859375 C 14.644531 -21.328125 15.046875 -21.5625 15.296875 -21.5625 C 16.441406 -21.5625 17.015625 -21.132812 17.015625 -20.28125 C 17.015625 -19.851562 16.78125 -19.351562 16.3125 -18.78125 C 15.957031 -18.351562 15.695312 -18.019531 15.53125 -17.78125 C 15.375 -17.550781 15.28125 -17.421875 15.25 -17.390625 C 14.601562 -16.285156 14.015625 -14.304688 13.484375 -11.453125 C 13.085938 -9.347656 12.742188 -7.613281 12.453125 -6.25 C 12.171875 -4.894531 11.941406 -3.914062 11.765625 -3.3125 C 13.265625 -3.351562 14.742188 -3.816406 16.203125 -4.703125 C 17.671875 -5.597656 19.242188 -7.0625 20.921875 -9.09375 C 20.992188 -9.164062 21.097656 -9.269531 21.234375 -9.40625 C 21.378906 -9.550781 21.523438 -9.625 21.671875 -9.625 C 21.878906 -9.625 21.984375 -9.535156 21.984375 -9.359375 C 21.984375 -9.179688 21.929688 -9.003906 21.828125 -8.828125 C 21.722656 -8.648438 21.613281 -8.488281 21.5 -8.34375 C 20.394531 -7.019531 19.359375 -5.941406 18.390625 -5.109375 C 17.429688 -4.273438 16.414062 -3.613281 15.34375 -3.125 C 14.28125 -2.644531 13.019531 -2.242188 11.5625 -1.921875 L 9.84375 -0.796875 C 9.382812 -0.484375 8.832031 -0.253906 8.1875 -0.109375 C 7.539062 0.0351562 6.863281 0.109375 6.15625 0.109375 Z M 6.796875 -2.625 C 7.617188 -2.625 8.296875 -2.816406 8.828125 -3.203125 C 9.222656 -3.421875 9.609375 -4.019531 9.984375 -5 C 10.359375 -5.976562 10.722656 -7.203125 11.078125 -8.671875 C 11.359375 -9.921875 11.578125 -11.140625 11.734375 -12.328125 C 11.898438 -13.523438 12.054688 -14.675781 12.203125 -15.78125 L 12.40625 -17.59375 C 11.59375 -16.988281 10.5625 -16.113281 9.3125 -14.96875 C 8.0625 -13.832031 6.832031 -12.640625 5.625 -11.390625 C 4.40625 -10.140625 3.617188 -9.21875 3.265625 -8.625 C 2.910156 -8.039062 2.710938 -7.609375 2.671875 -7.328125 C 2.535156 -5.898438 2.882812 -4.757812 3.71875 -3.90625 C 4.550781 -3.050781 5.578125 -2.625 6.796875 -2.625 Z M 6.796875 -2.625 "/></g></g></g><g fill="#ffffff" fill-opacity="1"><g transform="translate(385.887414, 234.843498)"><g><path d="M 3.3125 0.328125 C 2.175781 0.328125 1.273438 0.0507812 0.609375 -0.5 C -0.046875 -1.0625 -0.375 -2.054688 -0.375 -3.484375 C -0.375 -4.296875 -0.125 -5.332031 0.375 -6.59375 C 0.875 -7.863281 1.5 -9.226562 2.25 -10.6875 C 3 -12.15625 3.75 -13.601562 4.5 -15.03125 C 4.03125 -14.925781 3.617188 -14.875 3.265625 -14.875 C 2.191406 -14.875 1.65625 -15.285156 1.65625 -16.109375 C 1.65625 -16.492188 1.804688 -16.789062 2.109375 -17 C 2.410156 -17.21875 2.6875 -17.347656 2.9375 -17.390625 C 2.9375 -17.390625 2.976562 -17.390625 3.0625 -17.390625 C 3.15625 -17.390625 3.273438 -17.40625 3.421875 -17.4375 L 6.53125 -17.4375 C 7.164062 -18.257812 7.820312 -19.132812 8.5 -20.0625 C 9.46875 -21.269531 10.238281 -21.984375 10.8125 -22.203125 L 10.96875 -22.203125 C 11.21875 -22.203125 11.570312 -22.078125 12.03125 -21.828125 C 12.601562 -21.503906 12.890625 -21.179688 12.890625 -20.859375 C 12.890625 -20.398438 12.035156 -19.207031 10.328125 -17.28125 C 10.648438 -17.25 11.113281 -17.234375 11.71875 -17.234375 C 12.320312 -17.234375 13.070312 -17.234375 13.96875 -17.234375 C 14.394531 -17.234375 15.007812 -17.234375 15.8125 -17.234375 C 16.613281 -17.234375 17.453125 -17.238281 18.328125 -17.25 C 19.203125 -17.269531 19.957031 -17.285156 20.59375 -17.296875 C 21.238281 -17.316406 21.597656 -17.328125 21.671875 -17.328125 C 21.773438 -17.296875 21.828125 -17.242188 21.828125 -17.171875 C 21.828125 -16.847656 19.722656 -16.421875 15.515625 -15.890625 C 13.128906 -15.566406 11.300781 -15.316406 10.03125 -15.140625 C 8.757812 -14.960938 8.070312 -14.851562 7.96875 -14.8125 C 7.46875 -14.382812 6.859375 -13.65625 6.140625 -12.625 C 5.429688 -11.59375 4.71875 -10.429688 4 -9.140625 C 3.289062 -7.859375 2.695312 -6.640625 2.21875 -5.484375 C 1.738281 -4.328125 1.5 -3.425781 1.5 -2.78125 C 1.5 -2.207031 1.710938 -1.734375 2.140625 -1.359375 C 2.566406 -0.984375 3.257812 -0.796875 4.21875 -0.796875 C 4.863281 -0.796875 5.628906 -0.9375 6.515625 -1.21875 C 7.410156 -1.507812 8.257812 -1.84375 9.0625 -2.21875 C 9.863281 -2.59375 10.445312 -2.890625 10.8125 -3.109375 C 11.738281 -3.671875 12.757812 -4.425781 13.875 -5.375 C 15 -6.320312 16.117188 -7.398438 17.234375 -8.609375 C 17.722656 -9.109375 18.0625 -9.359375 18.25 -9.359375 C 18.351562 -9.359375 18.40625 -9.289062 18.40625 -9.15625 C 18.40625 -8.863281 18.132812 -8.394531 17.59375 -7.75 C 16.738281 -6.71875 15.785156 -5.726562 14.734375 -4.78125 C 13.679688 -3.84375 12.515625 -2.976562 11.234375 -2.1875 C 9.773438 -1.300781 8.375 -0.660156 7.03125 -0.265625 C 5.695312 0.128906 4.457031 0.328125 3.3125 0.328125 Z M 3.3125 0.328125 "/></g></g></g><g fill="#ffffff" fill-opacity="1"><g transform="translate(415.100149, 234.843498)"><g><path d="M 2.296875 0.109375 C 1.410156 0.109375 0.71875 -0.304688 0.21875 -1.140625 C -0.28125 -1.984375 -0.53125 -2.796875 -0.53125 -3.578125 C -0.53125 -5.722656 1.019531 -8.722656 4.125 -12.578125 C 7.257812 -16.460938 9.789062 -18.40625 11.71875 -18.40625 C 13.53125 -18.40625 14.4375 -17.441406 14.4375 -15.515625 C 14.4375 -15.234375 14.410156 -14.929688 14.359375 -14.609375 C 14.304688 -14.285156 14.242188 -13.945312 14.171875 -13.59375 C 14.242188 -13.476562 14.425781 -13.421875 14.71875 -13.421875 C 15.675781 -13.421875 16.816406 -13.757812 18.140625 -14.4375 C 18.097656 -13.832031 16.6875 -12.960938 13.90625 -11.828125 C 14.300781 -10.648438 13.125 -8.398438 10.375 -5.078125 C 7.5625 -1.617188 5.15625 0.109375 3.15625 0.109375 Z M 3.265625 -1.5 C 4.796875 -1.5 6.757812 -2.90625 9.15625 -5.71875 C 11.46875 -8.46875 12.625 -10.445312 12.625 -11.65625 C 12.050781 -11.976562 11.335938 -12.800781 10.484375 -14.125 C 9.273438 -14.125 7.53125 -12.660156 5.25 -9.734375 C 3 -6.878906 1.910156 -4.6875 1.984375 -3.15625 C 2.015625 -2.050781 2.441406 -1.5 3.265625 -1.5 Z M 3.265625 -1.5 "/></g></g></g><g fill="#ffffff" fill-opacity="1"><g transform="translate(443.456958, 234.843498)"><g><path d="M -3.109375 10.109375 C -4.597656 9.285156 -5.34375 7.734375 -5.34375 5.453125 C -5.34375 2.992188 -3.328125 -1.210938 0.703125 -7.171875 C 4.546875 -12.910156 7.21875 -16.015625 8.71875 -16.484375 C 8.863281 -16.515625 8.988281 -16.535156 9.09375 -16.546875 C 9.195312 -16.566406 9.304688 -16.578125 9.421875 -16.578125 C 10.023438 -16.578125 10.328125 -15.921875 10.328125 -14.609375 C 10.578125 -14.859375 11.015625 -15.097656 11.640625 -15.328125 C 12.265625 -15.554688 12.90625 -15.742188 13.5625 -15.890625 C 14.21875 -16.035156 14.707031 -16.125 15.03125 -16.15625 C 16.5 -16.226562 17.722656 -15.878906 18.703125 -15.109375 C 19.679688 -14.347656 20.171875 -13.34375 20.171875 -12.09375 C 20.171875 -9.195312 18.441406 -6.394531 14.984375 -3.6875 C 11.835938 -1.226562 9.054688 0 6.640625 0 C 5.023438 0 3.914062 -0.0859375 3.3125 -0.265625 C 2.457031 -0.515625 1.585938 -1.175781 0.703125 -2.25 C 0.304688 -1.925781 -0.117188 -1.378906 -0.578125 -0.609375 C -1.046875 0.148438 -1.484375 0.984375 -1.890625 1.890625 C -2.304688 2.804688 -2.644531 3.707031 -2.90625 4.59375 C -3.175781 5.488281 -3.3125 6.238281 -3.3125 6.84375 C -3.3125 7.445312 -3.195312 7.953125 -2.96875 8.359375 C -2.738281 8.773438 -2.515625 9.160156 -2.296875 9.515625 C -2.296875 9.554688 -2.285156 9.582031 -2.265625 9.59375 C -2.253906 9.613281 -2.25 9.625 -2.25 9.625 C -2.25 9.800781 -2.34375 9.953125 -2.53125 10.078125 C -2.726562 10.203125 -2.921875 10.210938 -3.109375 10.109375 Z M 5.9375 -1.5 C 7.9375 -1.5 10.238281 -2.515625 12.84375 -4.546875 C 15.90625 -6.972656 17.4375 -9.664062 17.4375 -12.625 C 17.4375 -13.976562 16.597656 -14.65625 14.921875 -14.65625 C 13.390625 -14.65625 11.960938 -14.316406 10.640625 -13.640625 C 10.285156 -13.492188 9.707031 -13.03125 8.90625 -12.25 C 8.101562 -11.46875 7.039062 -10.398438 5.71875 -9.046875 C 2.90625 -6.117188 1.5 -4.242188 1.5 -3.421875 C 1.5 -2.785156 2.085938 -2.269531 3.265625 -1.875 C 4.046875 -1.625 4.9375 -1.5 5.9375 -1.5 Z M 5.9375 -1.5 "/></g></g></g><g fill="#ffffff" fill-opacity="1"><g transform="translate(476.949372, 234.843498)"><g/></g></g><g fill="#ffffff" fill-opacity="1"><g transform="translate(500.865988, 234.843498)"><g><path d="M 4.0625 0.703125 C 2.925781 0.703125 1.894531 0.335938 0.96875 -0.390625 C 0.0390625 -1.128906 -0.421875 -2.101562 -0.421875 -3.3125 C -0.421875 -5.84375 1.125 -8.734375 4.21875 -11.984375 C 7.394531 -15.265625 10.234375 -16.90625 12.734375 -16.90625 C 13.585938 -16.90625 14.265625 -16.679688 14.765625 -16.234375 C 15.265625 -15.785156 15.515625 -15.242188 15.515625 -14.609375 C 15.515625 -13.710938 15.300781 -12.890625 14.875 -12.140625 C 14.375 -11.210938 13.660156 -10.75 12.734375 -10.75 C 11.804688 -10.75 11.34375 -11.035156 11.34375 -11.609375 C 11.34375 -12.003906 11.570312 -12.59375 12.03125 -13.375 C 12.53125 -14.195312 12.78125 -14.625 12.78125 -14.65625 C 12.78125 -14.726562 12.726562 -14.765625 12.625 -14.765625 C 11.625 -14.660156 10.234375 -13.929688 8.453125 -12.578125 C 7.671875 -11.960938 6.984375 -11.390625 6.390625 -10.859375 C 5.804688 -10.328125 5.332031 -9.8125 4.96875 -9.3125 L 2.890625 -6.265625 C 2.671875 -5.941406 2.445312 -5.382812 2.21875 -4.59375 C 1.988281 -3.8125 1.875 -3.222656 1.875 -2.828125 C 1.875 -2.117188 2.113281 -1.53125 2.59375 -1.0625 C 3.070312 -0.601562 3.6875 -0.375 4.4375 -0.375 C 6.21875 -0.375 8.570312 -1.535156 11.5 -3.859375 C 13.851562 -5.710938 15.742188 -7.582031 17.171875 -9.46875 C 17.347656 -9.6875 17.5625 -9.796875 17.8125 -9.796875 C 18.0625 -9.796875 18.1875 -9.722656 18.1875 -9.578125 C 18.1875 -9.472656 18.097656 -9.296875 17.921875 -9.046875 C 15.960938 -6.441406 13.660156 -4.191406 11.015625 -2.296875 C 8.203125 -0.296875 5.882812 0.703125 4.0625 0.703125 Z M 4.0625 0.703125 "/></g></g></g><g fill="#ffffff" fill-opacity="1"><g transform="translate(529.329754, 234.843498)"><g><path d="M 2.734375 0.703125 C 1.585938 0.703125 0.550781 0.335938 -0.375 -0.390625 C -1.300781 -1.128906 -1.765625 -2.101562 -1.765625 -3.3125 C -1.765625 -5.84375 -0.210938 -8.734375 2.890625 -11.984375 C 6.066406 -15.265625 8.898438 -16.90625 11.390625 -16.90625 C 12.210938 -16.90625 12.878906 -16.679688 13.390625 -16.234375 C 13.910156 -15.785156 14.171875 -15.242188 14.171875 -14.609375 C 14.171875 -12.609375 12.585938 -10.644531 9.421875 -8.71875 C 6.597656 -7.007812 4.222656 -6.15625 2.296875 -6.15625 C 2.015625 -6.15625 1.765625 -6.191406 1.546875 -6.265625 C 1.015625 -5.296875 0.75 -4.273438 0.75 -3.203125 C 0.75 -1.347656 1.625 -0.421875 3.375 -0.421875 C 5.15625 -0.421875 7.453125 -1.617188 10.265625 -4.015625 C 12.441406 -5.765625 14.300781 -7.617188 15.84375 -9.578125 C 16.15625 -10.003906 16.4375 -10.21875 16.6875 -10.21875 C 16.90625 -10.21875 17.015625 -10.109375 17.015625 -9.890625 C 17.015625 -9.679688 16.867188 -9.378906 16.578125 -8.984375 C 15.585938 -7.671875 14.519531 -6.457031 13.375 -5.34375 C 12.226562 -4.238281 11 -3.222656 9.6875 -2.296875 C 6.9375 -0.296875 4.617188 0.703125 2.734375 0.703125 Z M 3.046875 -7.328125 C 4.398438 -7.328125 6.164062 -8.003906 8.34375 -9.359375 C 9.0625 -9.859375 9.765625 -10.421875 10.453125 -11.046875 C 11.148438 -11.671875 11.722656 -12.300781 12.171875 -12.9375 C 12.617188 -13.582031 12.84375 -14.15625 12.84375 -14.65625 C 12.84375 -15.125 12.46875 -15.359375 11.71875 -15.359375 C 10.644531 -15.359375 9.144531 -14.554688 7.21875 -12.953125 C 6.289062 -12.160156 5.398438 -11.300781 4.546875 -10.375 C 3.691406 -9.445312 2.960938 -8.46875 2.359375 -7.4375 C 2.566406 -7.363281 2.796875 -7.328125 3.046875 -7.328125 Z M 3.046875 -7.328125 "/></g></g></g><g fill="#ffffff" fill-opacity="1"><g transform="translate(556.402628, 234.843498)"><g><path d="M 13.640625 0.109375 C 12.679688 0.109375 12.003906 -0.164062 11.609375 -0.71875 C 11.210938 -1.269531 11.015625 -1.957031 11.015625 -2.78125 C 11.015625 -4.851562 11.726562 -7.066406 13.15625 -9.421875 L 16.578125 -14.984375 C 14.160156 -13.203125 11.753906 -10.972656 9.359375 -8.296875 C 8.722656 -7.578125 8 -6.734375 7.1875 -5.765625 C 6.382812 -4.804688 5.503906 -3.707031 4.546875 -2.46875 C 3.265625 -0.789062 2.5 0.046875 2.25 0.046875 C 1.75 0.046875 1.335938 -0.171875 1.015625 -0.609375 C 0.691406 -1.054688 0.53125 -1.457031 0.53125 -1.8125 C 0.53125 -2.101562 0.617188 -2.628906 0.796875 -3.390625 C 0.972656 -4.160156 1.1875 -4.832031 1.4375 -5.40625 C 1.6875 -6.007812 1.945312 -6.601562 2.21875 -7.1875 C 2.488281 -7.78125 2.75 -8.363281 3 -8.9375 L -0.21875 -5.5625 C -0.289062 -5.488281 -0.503906 -5.273438 -0.859375 -4.921875 C -1.210938 -4.566406 -1.5 -4.390625 -1.71875 -4.390625 C -1.894531 -4.390625 -1.984375 -4.515625 -1.984375 -4.765625 C -1.984375 -4.835938 -1.953125 -4.9375 -1.890625 -5.0625 C -1.835938 -5.1875 -1.722656 -5.335938 -1.546875 -5.515625 C -1.015625 -6.046875 -0.460938 -6.613281 0.109375 -7.21875 C 0.679688 -7.820312 1.269531 -8.519531 1.875 -9.3125 C 2.195312 -9.695312 2.675781 -10.289062 3.3125 -11.09375 C 3.957031 -11.90625 4.660156 -12.773438 5.421875 -13.703125 C 6.191406 -14.628906 6.914062 -15.484375 7.59375 -16.265625 C 7.769531 -16.515625 7.960938 -16.679688 8.171875 -16.765625 C 8.390625 -16.859375 8.535156 -16.90625 8.609375 -16.90625 C 9.578125 -16.90625 10.0625 -16.53125 10.0625 -15.78125 C 10.0625 -15.570312 10.003906 -15.359375 9.890625 -15.140625 C 6.679688 -10.710938 4.757812 -7.34375 4.125 -5.03125 C 8.257812 -9.164062 11.582031 -12.273438 14.09375 -14.359375 C 16.613281 -16.453125 18.40625 -17.5 19.46875 -17.5 C 20.039062 -17.5 20.476562 -17.40625 20.78125 -17.21875 C 21.082031 -17.039062 21.234375 -16.703125 21.234375 -16.203125 C 21.234375 -16.023438 21.21875 -15.882812 21.1875 -15.78125 C 21.082031 -15.53125 20.351562 -14.53125 19 -12.78125 C 18.175781 -11.78125 17.453125 -10.867188 16.828125 -10.046875 C 16.203125 -9.234375 15.691406 -8.523438 15.296875 -7.921875 C 14.660156 -6.921875 14.179688 -5.984375 13.859375 -5.109375 C 13.535156 -4.234375 13.375 -3.492188 13.375 -2.890625 C 13.375 -2.640625 13.410156 -2.332031 13.484375 -1.96875 C 13.554688 -1.613281 13.769531 -1.4375 14.125 -1.4375 C 14.945312 -1.4375 16.226562 -2.148438 17.96875 -3.578125 C 18.789062 -4.296875 19.554688 -5.019531 20.265625 -5.75 C 20.984375 -6.476562 21.664062 -7.203125 22.3125 -7.921875 C 22.457031 -8.054688 22.6875 -8.328125 23 -8.734375 C 23.320312 -9.148438 23.519531 -9.359375 23.59375 -9.359375 C 23.738281 -9.359375 23.8125 -9.21875 23.8125 -8.9375 C 23.8125 -8.789062 23.726562 -8.546875 23.5625 -8.203125 C 23.40625 -7.867188 23.238281 -7.613281 23.0625 -7.4375 C 22.664062 -6.96875 22.082031 -6.320312 21.3125 -5.5 C 20.550781 -4.6875 19.695312 -3.851562 18.75 -3 C 17.800781 -2.144531 16.878906 -1.410156 15.984375 -0.796875 C 15.097656 -0.191406 14.316406 0.109375 13.640625 0.109375 Z M 13.640625 0.109375 "/></g></g></g><g fill="#ffffff" fill-opacity="1"><g transform="translate(591.285956, 234.843498)"><g><path d="M 3.3125 0.328125 C 2.175781 0.328125 1.273438 0.0507812 0.609375 -0.5 C -0.046875 -1.0625 -0.375 -2.054688 -0.375 -3.484375 C -0.375 -4.296875 -0.125 -5.332031 0.375 -6.59375 C 0.875 -7.863281 1.5 -9.226562 2.25 -10.6875 C 3 -12.15625 3.75 -13.601562 4.5 -15.03125 C 4.03125 -14.925781 3.617188 -14.875 3.265625 -14.875 C 2.191406 -14.875 1.65625 -15.285156 1.65625 -16.109375 C 1.65625 -16.492188 1.804688 -16.789062 2.109375 -17 C 2.410156 -17.21875 2.6875 -17.347656 2.9375 -17.390625 C 2.9375 -17.390625 2.976562 -17.390625 3.0625 -17.390625 C 3.15625 -17.390625 3.273438 -17.40625 3.421875 -17.4375 L 6.53125 -17.4375 C 7.164062 -18.257812 7.820312 -19.132812 8.5 -20.0625 C 9.46875 -21.269531 10.238281 -21.984375 10.8125 -22.203125 L 10.96875 -22.203125 C 11.21875 -22.203125 11.570312 -22.078125 12.03125 -21.828125 C 12.601562 -21.503906 12.890625 -21.179688 12.890625 -20.859375 C 12.890625 -20.398438 12.035156 -19.207031 10.328125 -17.28125 C 10.648438 -17.25 11.113281 -17.234375 11.71875 -17.234375 C 12.320312 -17.234375 13.070312 -17.234375 13.96875 -17.234375 C 14.394531 -17.234375 15.007812 -17.234375 15.8125 -17.234375 C 16.613281 -17.234375 17.453125 -17.238281 18.328125 -17.25 C 19.203125 -17.269531 19.957031 -17.285156 20.59375 -17.296875 C 21.238281 -17.316406 21.597656 -17.328125 21.671875 -17.328125 C 21.773438 -17.296875 21.828125 -17.242188 21.828125 -17.171875 C 21.828125 -16.847656 19.722656 -16.421875 15.515625 -15.890625 C 13.128906 -15.566406 11.300781 -15.316406 10.03125 -15.140625 C 8.757812 -14.960938 8.070312 -14.851562 7.96875 -14.8125 C 7.46875 -14.382812 6.859375 -13.65625 6.140625 -12.625 C 5.429688 -11.59375 4.71875 -10.429688 4 -9.140625 C 3.289062 -7.859375 2.695312 -6.640625 2.21875 -5.484375 C 1.738281 -4.328125 1.5 -3.425781 1.5 -2.78125 C 1.5 -2.207031 1.710938 -1.734375 2.140625 -1.359375 C 2.566406 -0.984375 3.257812 -0.796875 4.21875 -0.796875 C 4.863281 -0.796875 5.628906 -0.9375 6.515625 -1.21875 C 7.410156 -1.507812 8.257812 -1.84375 9.0625 -2.21875 C 9.863281 -2.59375 10.445312 -2.890625 10.8125 -3.109375 C 11.738281 -3.671875 12.757812 -4.425781 13.875 -5.375 C 15 -6.320312 16.117188 -7.398438 17.234375 -8.609375 C 17.722656 -9.109375 18.0625 -9.359375 18.25 -9.359375 C 18.351562 -9.359375 18.40625 -9.289062 18.40625 -9.15625 C 18.40625 -8.863281 18.132812 -8.394531 17.59375 -7.75 C 16.738281 -6.71875 15.785156 -5.726562 14.734375 -4.78125 C 13.679688 -3.84375 12.515625 -2.976562 11.234375 -2.1875 C 9.773438 -1.300781 8.375 -0.660156 7.03125 -0.265625 C 5.695312 0.128906 4.457031 0.328125 3.3125 0.328125 Z M 3.3125 0.328125 "/></g></g></g><g fill="#ffffff" fill-opacity="1"><g transform="translate(620.498692, 234.843498)"><g><path d="M 2.734375 0.703125 C 1.585938 0.703125 0.550781 0.335938 -0.375 -0.390625 C -1.300781 -1.128906 -1.765625 -2.101562 -1.765625 -3.3125 C -1.765625 -5.84375 -0.210938 -8.734375 2.890625 -11.984375 C 6.066406 -15.265625 8.898438 -16.90625 11.390625 -16.90625 C 12.210938 -16.90625 12.878906 -16.679688 13.390625 -16.234375 C 13.910156 -15.785156 14.171875 -15.242188 14.171875 -14.609375 C 14.171875 -12.609375 12.585938 -10.644531 9.421875 -8.71875 C 6.597656 -7.007812 4.222656 -6.15625 2.296875 -6.15625 C 2.015625 -6.15625 1.765625 -6.191406 1.546875 -6.265625 C 1.015625 -5.296875 0.75 -4.273438 0.75 -3.203125 C 0.75 -1.347656 1.625 -0.421875 3.375 -0.421875 C 5.15625 -0.421875 7.453125 -1.617188 10.265625 -4.015625 C 12.441406 -5.765625 14.300781 -7.617188 15.84375 -9.578125 C 16.15625 -10.003906 16.4375 -10.21875 16.6875 -10.21875 C 16.90625 -10.21875 17.015625 -10.109375 17.015625 -9.890625 C 17.015625 -9.679688 16.867188 -9.378906 16.578125 -8.984375 C 15.585938 -7.671875 14.519531 -6.457031 13.375 -5.34375 C 12.226562 -4.238281 11 -3.222656 9.6875 -2.296875 C 6.9375 -0.296875 4.617188 0.703125 2.734375 0.703125 Z M 3.046875 -7.328125 C 4.398438 -7.328125 6.164062 -8.003906 8.34375 -9.359375 C 9.0625 -9.859375 9.765625 -10.421875 10.453125 -11.046875 C 11.148438 -11.671875 11.722656 -12.300781 12.171875 -12.9375 C 12.617188 -13.582031 12.84375 -14.15625 12.84375 -14.65625 C 12.84375 -15.125 12.46875 -15.359375 11.71875 -15.359375 C 10.644531 -15.359375 9.144531 -14.554688 7.21875 -12.953125 C 6.289062 -12.160156 5.398438 -11.300781 4.546875 -10.375 C 3.691406 -9.445312 2.960938 -8.46875 2.359375 -7.4375 C 2.566406 -7.363281 2.796875 -7.328125 3.046875 -7.328125 Z M 3.046875 -7.328125 "/></g></g></g><g fill="#ffffff" fill-opacity="1"><g transform="translate(647.571566, 234.843498)"><g><path d="M 10.90625 0.265625 C 9.375 0.265625 8.320312 -0.132812 7.75 -0.9375 C 7.1875 -1.738281 6.90625 -2.816406 6.90625 -4.171875 C 6.90625 -5.671875 7.367188 -7.453125 8.296875 -9.515625 C 8.648438 -10.335938 9.019531 -11.078125 9.40625 -11.734375 C 9.800781 -12.398438 10.210938 -13.019531 10.640625 -13.59375 C 10.503906 -13.550781 10.378906 -13.53125 10.265625 -13.53125 C 10.160156 -13.53125 10.054688 -13.53125 9.953125 -13.53125 C 9.097656 -13.53125 8.382812 -14.140625 7.8125 -15.359375 L 3.859375 -10.21875 C 1.753906 -7.46875 0.46875 -6.09375 0 -6.09375 C -0.175781 -6.09375 -0.265625 -6.164062 -0.265625 -6.3125 C -0.265625 -6.488281 -0.175781 -6.722656 0 -7.015625 C 0.101562 -7.222656 0.316406 -7.503906 0.640625 -7.859375 C 1.992188 -9.429688 3.238281 -10.984375 4.375 -12.515625 C 5.519531 -14.046875 6.46875 -15.546875 7.21875 -17.015625 C 8.039062 -20.117188 9.078125 -21.671875 10.328125 -21.671875 C 11.148438 -21.671875 11.5625 -21.296875 11.5625 -20.546875 C 11.5625 -19.867188 11.113281 -18.976562 10.21875 -17.875 C 9.363281 -16.757812 8.9375 -16.1875 8.9375 -16.15625 C 8.9375 -15.40625 9.488281 -15.03125 10.59375 -15.03125 C 11.238281 -15.03125 11.953125 -15.265625 12.734375 -15.734375 L 14.125 -16.578125 C 14.195312 -16.617188 14.300781 -16.640625 14.4375 -16.640625 C 14.875 -16.640625 15.25 -16.457031 15.5625 -16.09375 C 15.882812 -15.738281 15.992188 -15.421875 15.890625 -15.140625 L 12.203125 -10.484375 C 9.921875 -7.554688 8.78125 -5.203125 8.78125 -3.421875 C 8.78125 -1.816406 9.5625 -1.015625 11.125 -1.015625 C 12.195312 -1.015625 13.347656 -1.332031 14.578125 -1.96875 C 15.804688 -2.613281 17 -3.410156 18.15625 -4.359375 C 19.320312 -5.304688 20.296875 -6.222656 21.078125 -7.109375 L 22.359375 -8.609375 C 22.429688 -8.679688 22.519531 -8.769531 22.625 -8.875 C 22.738281 -8.988281 22.828125 -9.046875 22.890625 -9.046875 C 23.140625 -9.046875 23.265625 -8.921875 23.265625 -8.671875 C 23.265625 -8.597656 23.226562 -8.472656 23.15625 -8.296875 C 23.09375 -8.117188 22.972656 -7.921875 22.796875 -7.703125 L 21.078125 -5.78125 C 20.253906 -4.851562 19.242188 -3.914062 18.046875 -2.96875 C 16.859375 -2.019531 15.628906 -1.242188 14.359375 -0.640625 C 13.097656 -0.0351562 11.945312 0.265625 10.90625 0.265625 Z M 10.90625 0.265625 "/></g></g></g><g fill="#ffffff" fill-opacity="1"><g transform="translate(681.973419, 234.843498)"><g/></g></g><g fill="#ffffff" fill-opacity="1"><g transform="translate(705.890012, 234.843498)"><g><path d="M -9.09375 10.96875 C -10.164062 10.96875 -11.078125 10.519531 -11.828125 9.625 C -12.578125 8.738281 -12.96875 7.773438 -13 6.734375 C -12.894531 6.304688 -12.734375 6.09375 -12.515625 6.09375 C -12.304688 6.09375 -12.179688 6.367188 -12.140625 6.921875 C -12.109375 7.472656 -11.820312 8.019531 -11.28125 8.5625 C -10.75 9.09375 -10.21875 9.359375 -9.6875 9.359375 C -6.65625 9.359375 -3.890625 7.488281 -1.390625 3.75 C -0.710938 2.75 0.125 1.296875 1.125 -0.609375 C 2.125 -2.523438 3.226562 -4.925781 4.4375 -7.8125 L 7.328125 -14.765625 C 3.765625 -14.796875 1.984375 -15.222656 1.984375 -16.046875 C 1.984375 -16.441406 2.160156 -16.753906 2.515625 -16.984375 C 2.867188 -17.210938 3.15625 -17.328125 3.375 -17.328125 C 3.40625 -17.328125 3.847656 -17.316406 4.703125 -17.296875 C 5.554688 -17.285156 6.789062 -17.265625 8.40625 -17.234375 C 11.894531 -25.003906 15.101562 -28.890625 18.03125 -28.890625 C 19.164062 -28.890625 20.289062 -28.351562 21.40625 -27.28125 C 21.6875 -27 21.828125 -26.625 21.828125 -26.15625 C 21.828125 -25.050781 21.503906 -24.5 20.859375 -24.5 C 20.679688 -24.5 20.503906 -24.644531 20.328125 -24.9375 C 20.179688 -25.1875 19.945312 -25.390625 19.625 -25.546875 C 19.3125 -25.703125 19.007812 -25.78125 18.71875 -25.78125 C 17.65625 -25.78125 16.722656 -25.378906 15.921875 -24.578125 C 15.117188 -23.773438 14.367188 -22.734375 13.671875 -21.453125 C 12.972656 -20.171875 12.234375 -18.765625 11.453125 -17.234375 L 12.09375 -17.234375 C 15.976562 -17.234375 18.5625 -17.285156 19.84375 -17.390625 C 19.988281 -17.347656 20.0625 -17.273438 20.0625 -17.171875 C 20.0625 -16.890625 18.796875 -16.5 16.265625 -16 C 15.265625 -15.851562 14.28125 -15.691406 13.3125 -15.515625 C 12.351562 -15.335938 11.375 -15.160156 10.375 -14.984375 C 9.914062 -13.984375 9.347656 -12.796875 8.671875 -11.421875 C 7.992188 -10.046875 7.222656 -8.519531 6.359375 -6.84375 C 4.691406 -3.707031 3.320312 -1.210938 2.25 0.640625 C 1.175781 2.492188 0.425781 3.722656 0 4.328125 C -3.101562 8.753906 -6.132812 10.96875 -9.09375 10.96875 Z M -9.09375 10.96875 "/></g></g></g><g fill="#ffffff" fill-opacity="1"><g transform="translate(732.160473, 234.843498)"><g><path d="M 2.296875 0.109375 C 1.410156 0.109375 0.71875 -0.304688 0.21875 -1.140625 C -0.28125 -1.984375 -0.53125 -2.796875 -0.53125 -3.578125 C -0.53125 -5.722656 1.019531 -8.722656 4.125 -12.578125 C 7.257812 -16.460938 9.789062 -18.40625 11.71875 -18.40625 C 13.53125 -18.40625 14.4375 -17.441406 14.4375 -15.515625 C 14.4375 -15.234375 14.410156 -14.929688 14.359375 -14.609375 C 14.304688 -14.285156 14.242188 -13.945312 14.171875 -13.59375 C 14.242188 -13.476562 14.425781 -13.421875 14.71875 -13.421875 C 15.675781 -13.421875 16.816406 -13.757812 18.140625 -14.4375 C 18.097656 -13.832031 16.6875 -12.960938 13.90625 -11.828125 C 14.300781 -10.648438 13.125 -8.398438 10.375 -5.078125 C 7.5625 -1.617188 5.15625 0.109375 3.15625 0.109375 Z M 3.265625 -1.5 C 4.796875 -1.5 6.757812 -2.90625 9.15625 -5.71875 C 11.46875 -8.46875 12.625 -10.445312 12.625 -11.65625 C 12.050781 -11.976562 11.335938 -12.800781 10.484375 -14.125 C 9.273438 -14.125 7.53125 -12.660156 5.25 -9.734375 C 3 -6.878906 1.910156 -4.6875 1.984375 -3.15625 C 2.015625 -2.050781 2.441406 -1.5 3.265625 -1.5 Z M 3.265625 -1.5 "/></g></g></g><g fill="#ffffff" fill-opacity="1"><g transform="translate(760.517282, 234.843498)"><g><path d="M 10.90625 0.265625 C 9.375 0.265625 8.320312 -0.132812 7.75 -0.9375 C 7.1875 -1.738281 6.90625 -2.816406 6.90625 -4.171875 C 6.90625 -5.671875 7.367188 -7.453125 8.296875 -9.515625 C 8.648438 -10.335938 9.019531 -11.078125 9.40625 -11.734375 C 9.800781 -12.398438 10.210938 -13.019531 10.640625 -13.59375 C 10.503906 -13.550781 10.378906 -13.53125 10.265625 -13.53125 C 10.160156 -13.53125 10.054688 -13.53125 9.953125 -13.53125 C 9.097656 -13.53125 8.382812 -14.140625 7.8125 -15.359375 L 3.859375 -10.21875 C 1.753906 -7.46875 0.46875 -6.09375 0 -6.09375 C -0.175781 -6.09375 -0.265625 -6.164062 -0.265625 -6.3125 C -0.265625 -6.488281 -0.175781 -6.722656 0 -7.015625 C 0.101562 -7.222656 0.316406 -7.503906 0.640625 -7.859375 C 1.992188 -9.429688 3.238281 -10.984375 4.375 -12.515625 C 5.519531 -14.046875 6.46875 -15.546875 7.21875 -17.015625 C 8.039062 -20.117188 9.078125 -21.671875 10.328125 -21.671875 C 11.148438 -21.671875 11.5625 -21.296875 11.5625 -20.546875 C 11.5625 -19.867188 11.113281 -18.976562 10.21875 -17.875 C 9.363281 -16.757812 8.9375 -16.1875 8.9375 -16.15625 C 8.9375 -15.40625 9.488281 -15.03125 10.59375 -15.03125 C 11.238281 -15.03125 11.953125 -15.265625 12.734375 -15.734375 L 14.125 -16.578125 C 14.195312 -16.617188 14.300781 -16.640625 14.4375 -16.640625 C 14.875 -16.640625 15.25 -16.457031 15.5625 -16.09375 C 15.882812 -15.738281 15.992188 -15.421875 15.890625 -15.140625 L 12.203125 -10.484375 C 9.921875 -7.554688 8.78125 -5.203125 8.78125 -3.421875 C 8.78125 -1.816406 9.5625 -1.015625 11.125 -1.015625 C 12.195312 -1.015625 13.347656 -1.332031 14.578125 -1.96875 C 15.804688 -2.613281 17 -3.410156 18.15625 -4.359375 C 19.320312 -5.304688 20.296875 -6.222656 21.078125 -7.109375 L 22.359375 -8.609375 C 22.429688 -8.679688 22.519531 -8.769531 22.625 -8.875 C 22.738281 -8.988281 22.828125 -9.046875 22.890625 -9.046875 C 23.140625 -9.046875 23.265625 -8.921875 23.265625 -8.671875 C 23.265625 -8.597656 23.226562 -8.472656 23.15625 -8.296875 C 23.09375 -8.117188 22.972656 -7.921875 22.796875 -7.703125 L 21.078125 -5.78125 C 20.253906 -4.851562 19.242188 -3.914062 18.046875 -2.96875 C 16.859375 -2.019531 15.628906 -1.242188 14.359375 -0.640625 C 13.097656 -0.0351562 11.945312 0.265625 10.90625 0.265625 Z M 10.90625 0.265625 "/></g></g></g><g fill="#ffffff" fill-opacity="1"><g transform="translate(794.919135, 234.843498)"><g/></g></g><g fill="#ffffff" fill-opacity="1"><g transform="translate(818.835729, 234.843498)"><g><path d="M 3.578125 0.265625 C 2.722656 0.265625 1.867188 -0.0351562 1.015625 -0.640625 C 0.160156 -1.242188 -0.316406 -1.957031 -0.421875 -2.78125 C -0.785156 -5.53125 0.941406 -8.796875 4.765625 -12.578125 C 8.546875 -16.359375 11.953125 -18.25 14.984375 -18.25 C 15.796875 -18.25 16.4375 -18.050781 16.90625 -17.65625 C 17.15625 -17.40625 17.34375 -17.066406 17.46875 -16.640625 C 17.59375 -16.210938 17.691406 -16 17.765625 -16 C 17.898438 -16 18.019531 -16.023438 18.125 -16.078125 C 18.238281 -16.128906 18.367188 -16.15625 18.515625 -16.15625 C 18.941406 -16.15625 19.3125 -15.992188 19.625 -15.671875 C 19.945312 -15.347656 20.128906 -15.0625 20.171875 -14.8125 C 20.203125 -14.75 19.0625 -12.984375 16.75 -9.515625 C 14.425781 -6.128906 13.375 -3.832031 13.59375 -2.625 C 13.769531 -1.800781 14.160156 -1.390625 14.765625 -1.390625 C 16.617188 -1.390625 20.007812 -4.457031 24.9375 -10.59375 C 25.039062 -10.738281 25.144531 -10.8125 25.25 -10.8125 C 25.425781 -10.8125 25.515625 -10.6875 25.515625 -10.4375 C 25.515625 -10.144531 25.351562 -9.785156 25.03125 -9.359375 C 20.507812 -3.265625 17.035156 -0.21875 14.609375 -0.21875 C 14.285156 -0.21875 13.984375 -0.269531 13.703125 -0.375 C 12.128906 -0.976562 11.34375 -2.15625 11.34375 -3.90625 C 11.34375 -4.507812 11.414062 -5.113281 11.5625 -5.71875 L 8.234375 -2.515625 C 7.234375 -1.515625 6.332031 -0.800781 5.53125 -0.375 C 4.726562 0.0507812 4.078125 0.265625 3.578125 0.265625 Z M 3.109375 -0.90625 C 5.171875 -0.90625 7.988281 -3.171875 11.5625 -7.703125 L 17.234375 -15.515625 C 16.941406 -16.015625 16.476562 -16.265625 15.84375 -16.265625 C 13.664062 -16.265625 10.722656 -14.515625 7.015625 -11.015625 C 3.160156 -7.453125 1.425781 -4.507812 1.8125 -2.1875 C 2 -1.332031 2.429688 -0.90625 3.109375 -0.90625 Z M 3.109375 -0.90625 "/></g></g></g><g fill="#ffffff" fill-opacity="1"><g transform="translate(854.200533, 234.843498)"><g><path d="M 4.0625 0.109375 C 3.03125 0.109375 2.066406 -0.144531 1.171875 -0.65625 C 0.285156 -1.175781 -0.15625 -2.046875 -0.15625 -3.265625 C -0.15625 -4.941406 0.4375 -6.9375 1.625 -9.25 C 2.820312 -11.570312 4.1875 -13.984375 5.71875 -16.484375 C 9.894531 -23.253906 12.859375 -26.640625 14.609375 -26.640625 C 14.960938 -26.640625 15.328125 -26.503906 15.703125 -26.234375 C 16.078125 -25.972656 16.28125 -25.679688 16.3125 -25.359375 L 12.578125 -20.328125 C 11.109375 -18.367188 9.785156 -16.554688 8.609375 -14.890625 C 7.429688 -13.234375 6.414062 -11.75 5.5625 -10.4375 C 5.132812 -9.757812 4.648438 -8.988281 4.109375 -8.125 C 3.578125 -7.269531 3.109375 -6.390625 2.703125 -5.484375 C 2.296875 -4.578125 2.09375 -3.660156 2.09375 -2.734375 C 2.09375 -2.304688 2.210938 -1.921875 2.453125 -1.578125 C 2.703125 -1.234375 3.148438 -1.0625 3.796875 -1.0625 C 4.941406 -1.0625 6.441406 -1.675781 8.296875 -2.90625 C 10.148438 -4.144531 11.984375 -5.851562 13.796875 -8.03125 C 13.984375 -8.238281 14.179688 -8.429688 14.390625 -8.609375 C 14.609375 -8.785156 14.785156 -8.875 14.921875 -8.875 C 15.097656 -8.875 15.1875 -8.769531 15.1875 -8.5625 C 15.1875 -8.457031 15.070312 -8.25 14.84375 -7.9375 C 14.613281 -7.632812 14.425781 -7.394531 14.28125 -7.21875 L 13 -5.78125 C 12.289062 -4.988281 11.441406 -4.128906 10.453125 -3.203125 C 9.472656 -2.273438 8.4375 -1.488281 7.34375 -0.84375 C 6.257812 -0.207031 5.164062 0.109375 4.0625 0.109375 Z M 4.0625 0.109375 "/></g></g></g><g fill="#ffffff" fill-opacity="1"><g transform="translate(880.52446, 234.843498)"><g><path d="M 4.0625 0.109375 C 3.03125 0.109375 2.066406 -0.144531 1.171875 -0.65625 C 0.285156 -1.175781 -0.15625 -2.046875 -0.15625 -3.265625 C -0.15625 -4.941406 0.4375 -6.9375 1.625 -9.25 C 2.820312 -11.570312 4.1875 -13.984375 5.71875 -16.484375 C 9.894531 -23.253906 12.859375 -26.640625 14.609375 -26.640625 C 14.960938 -26.640625 15.328125 -26.503906 15.703125 -26.234375 C 16.078125 -25.972656 16.28125 -25.679688 16.3125 -25.359375 L 12.578125 -20.328125 C 11.109375 -18.367188 9.785156 -16.554688 8.609375 -14.890625 C 7.429688 -13.234375 6.414062 -11.75 5.5625 -10.4375 C 5.132812 -9.757812 4.648438 -8.988281 4.109375 -8.125 C 3.578125 -7.269531 3.109375 -6.390625 2.703125 -5.484375 C 2.296875 -4.578125 2.09375 -3.660156 2.09375 -2.734375 C 2.09375 -2.304688 2.210938 -1.921875 2.453125 -1.578125 C 2.703125 -1.234375 3.148438 -1.0625 3.796875 -1.0625 C 4.941406 -1.0625 6.441406 -1.675781 8.296875 -2.90625 C 10.148438 -4.144531 11.984375 -5.851562 13.796875 -8.03125 C 13.984375 -8.238281 14.179688 -8.429688 14.390625 -8.609375 C 14.609375 -8.785156 14.785156 -8.875 14.921875 -8.875 C 15.097656 -8.875 15.1875 -8.769531 15.1875 -8.5625 C 15.1875 -8.457031 15.070312 -8.25 14.84375 -7.9375 C 14.613281 -7.632812 14.425781 -7.394531 14.28125 -7.21875 L 13 -5.78125 C 12.289062 -4.988281 11.441406 -4.128906 10.453125 -3.203125 C 9.472656 -2.273438 8.4375 -1.488281 7.34375 -0.84375 C 6.257812 -0.207031 5.164062 0.109375 4.0625 0.109375 Z M 4.0625 0.109375 "/></g></g></g><g fill="#ffffff" fill-opacity="1"><g transform="translate(906.848432, 234.843498)"><g/></g></g><g fill="#ffffff" fill-opacity="1"><g transform="translate(930.765026, 234.843498)"><g><path d="M 1.234375 10.96875 C 0.0859375 10.96875 -0.910156 10.484375 -1.765625 9.515625 C -2.617188 8.523438 -3.03125 7.421875 -3 6.203125 C -2.570312 6.742188 -2 7.367188 -1.28125 8.078125 C -0.351562 8.972656 0.550781 9.421875 1.4375 9.421875 C 3.476562 9.421875 5.675781 7.796875 8.03125 4.546875 C 8.84375 3.398438 9.6875 2.066406 10.5625 0.546875 C 11.4375 -0.960938 12.265625 -2.644531 13.046875 -4.5 L 15.09375 -9.421875 L 7.21875 -3.265625 C 4.789062 -1.367188 2.847656 -0.421875 1.390625 -0.421875 C 0.609375 -0.421875 -0.0078125 -0.707031 -0.46875 -1.28125 C -0.9375 -1.851562 -1.171875 -2.441406 -1.171875 -3.046875 C -1.171875 -4.578125 0.144531 -7.09375 2.78125 -10.59375 C 5.414062 -14.125 7.394531 -15.890625 8.71875 -15.890625 C 9.820312 -15.890625 10.375 -15.476562 10.375 -14.65625 C 10.375 -14.332031 8.789062 -12.476562 5.625 -9.09375 C 2.476562 -5.738281 0.90625 -3.472656 0.90625 -2.296875 C 0.90625 -1.835938 1.207031 -1.609375 1.8125 -1.609375 C 2.957031 -1.609375 5.4375 -3.085938 9.25 -6.046875 C 10.820312 -7.296875 12.210938 -8.4375 13.421875 -9.46875 C 14.640625 -10.5 15.660156 -11.425781 16.484375 -12.25 C 16.765625 -12.601562 17.046875 -12.945312 17.328125 -13.28125 C 17.617188 -13.625 17.890625 -13.976562 18.140625 -14.34375 C 18.816406 -15.125 19.492188 -15.515625 20.171875 -15.515625 C 21.128906 -15.515625 21.609375 -15.125 21.609375 -14.34375 C 21.609375 -14.195312 20.859375 -13.019531 19.359375 -10.8125 C 18.578125 -9.59375 17.953125 -8.65625 17.484375 -8 C 17.023438 -7.34375 16.757812 -6.921875 16.6875 -6.734375 C 15.582031 -4.597656 13.890625 -1.476562 11.609375 2.625 C 8.148438 8.1875 4.691406 10.96875 1.234375 10.96875 Z M 1.234375 10.96875 "/></g></g></g><g fill="#ffffff" fill-opacity="1"><g transform="translate(963.882944, 234.843498)"><g><path d="M 2.296875 0.109375 C 1.410156 0.109375 0.71875 -0.304688 0.21875 -1.140625 C -0.28125 -1.984375 -0.53125 -2.796875 -0.53125 -3.578125 C -0.53125 -5.722656 1.019531 -8.722656 4.125 -12.578125 C 7.257812 -16.460938 9.789062 -18.40625 11.71875 -18.40625 C 13.53125 -18.40625 14.4375 -17.441406 14.4375 -15.515625 C 14.4375 -15.234375 14.410156 -14.929688 14.359375 -14.609375 C 14.304688 -14.285156 14.242188 -13.945312 14.171875 -13.59375 C 14.242188 -13.476562 14.425781 -13.421875 14.71875 -13.421875 C 15.675781 -13.421875 16.816406 -13.757812 18.140625 -14.4375 C 18.097656 -13.832031 16.6875 -12.960938 13.90625 -11.828125 C 14.300781 -10.648438 13.125 -8.398438 10.375 -5.078125 C 7.5625 -1.617188 5.15625 0.109375 3.15625 0.109375 Z M 3.265625 -1.5 C 4.796875 -1.5 6.757812 -2.90625 9.15625 -5.71875 C 11.46875 -8.46875 12.625 -10.445312 12.625 -11.65625 C 12.050781 -11.976562 11.335938 -12.800781 10.484375 -14.125 C 9.273438 -14.125 7.53125 -12.660156 5.25 -9.734375 C 3 -6.878906 1.910156 -4.6875 1.984375 -3.15625 C 2.015625 -2.050781 2.441406 -1.5 3.265625 -1.5 Z M 3.265625 -1.5 "/></g></g></g><g fill="#ffffff" fill-opacity="1"><g transform="translate(992.239753, 234.843498)"><g><path d="M 2.515625 0.59375 C 0.910156 0.59375 0.109375 -0.425781 0.109375 -2.46875 C 0.109375 -3.25 0.347656 -4.179688 0.828125 -5.265625 C 1.304688 -6.359375 1.992188 -7.507812 2.890625 -8.71875 C 2.890625 -8.71875 2.566406 -8.414062 1.921875 -7.8125 C 1.285156 -7.207031 0.554688 -6.441406 -0.265625 -5.515625 C -0.410156 -5.367188 -0.585938 -5.296875 -0.796875 -5.296875 C -0.941406 -5.296875 -1.015625 -5.382812 -1.015625 -5.5625 C -1.015625 -5.738281 -0.851562 -6.039062 -0.53125 -6.46875 L 6.84375 -15.140625 C 7.769531 -16.210938 8.785156 -16.75 9.890625 -16.75 C 10.710938 -16.75 11.125 -16.425781 11.125 -15.78125 C 11.125 -15.53125 11.019531 -15.300781 10.8125 -15.09375 C 10.132812 -14.445312 9.300781 -13.535156 8.3125 -12.359375 C 7.332031 -11.179688 6.378906 -9.914062 5.453125 -8.5625 C 4.523438 -7.207031 3.75 -5.910156 3.125 -4.671875 C 2.5 -3.441406 2.1875 -2.457031 2.1875 -1.71875 C 2.1875 -1.070312 2.398438 -0.75 2.828125 -0.75 C 3.078125 -0.75 3.46875 -0.847656 4 -1.046875 C 4.539062 -1.242188 5.253906 -1.648438 6.140625 -2.265625 C 7.035156 -2.890625 8.109375 -3.863281 9.359375 -5.1875 C 9.578125 -5.40625 10.148438 -6.046875 11.078125 -7.109375 C 12.003906 -8.179688 13.25 -9.71875 14.8125 -11.71875 C 17.601562 -15.175781 19.425781 -16.90625 20.28125 -16.90625 C 21.457031 -16.90625 22.097656 -16.425781 22.203125 -15.46875 C 22.273438 -15.144531 21.523438 -14.09375 19.953125 -12.3125 C 17.921875 -9.84375 16.53125 -8.078125 15.78125 -7.015625 C 14.394531 -4.972656 13.703125 -3.382812 13.703125 -2.25 C 13.703125 -1.457031 13.96875 -1.0625 14.5 -1.0625 C 15.03125 -1.0625 15.710938 -1.320312 16.546875 -1.84375 C 17.390625 -2.363281 18.273438 -3.023438 19.203125 -3.828125 C 20.128906 -4.628906 21.03125 -5.46875 21.90625 -6.34375 C 22.78125 -7.21875 23.539062 -8.03125 24.1875 -8.78125 C 24.394531 -9.03125 24.609375 -9.15625 24.828125 -9.15625 C 25.035156 -9.15625 25.140625 -9.046875 25.140625 -8.828125 C 25.140625 -8.753906 25.117188 -8.644531 25.078125 -8.5 C 25.046875 -8.363281 24.941406 -8.207031 24.765625 -8.03125 C 24.203125 -7.382812 23.472656 -6.585938 22.578125 -5.640625 C 21.679688 -4.691406 20.71875 -3.753906 19.6875 -2.828125 C 18.65625 -1.898438 17.65625 -1.132812 16.6875 -0.53125 C 15.726562 0.0703125 14.910156 0.375 14.234375 0.375 C 13.410156 0.375 12.695312 0.148438 12.09375 -0.296875 C 11.488281 -0.742188 11.1875 -1.359375 11.1875 -2.140625 C 11.1875 -2.921875 11.3125 -3.710938 11.5625 -4.515625 C 11.8125 -5.316406 12.003906 -6.003906 12.140625 -6.578125 C 10.460938 -4.617188 8.988281 -3.117188 7.71875 -2.078125 C 6.457031 -1.046875 5.398438 -0.34375 4.546875 0.03125 C 3.691406 0.40625 3.015625 0.59375 2.515625 0.59375 Z M 2.515625 0.59375 "/></g></g></g><g fill="#ffffff" fill-opacity="1"><g transform="translate(1028.299992, 234.843498)"><g><path d="M 10.90625 0.265625 C 9.375 0.265625 8.320312 -0.132812 7.75 -0.9375 C 7.1875 -1.738281 6.90625 -2.816406 6.90625 -4.171875 C 6.90625 -5.671875 7.367188 -7.453125 8.296875 -9.515625 C 8.648438 -10.335938 9.019531 -11.078125 9.40625 -11.734375 C 9.800781 -12.398438 10.210938 -13.019531 10.640625 -13.59375 C 10.503906 -13.550781 10.378906 -13.53125 10.265625 -13.53125 C 10.160156 -13.53125 10.054688 -13.53125 9.953125 -13.53125 C 9.097656 -13.53125 8.382812 -14.140625 7.8125 -15.359375 L 3.859375 -10.21875 C 1.753906 -7.46875 0.46875 -6.09375 0 -6.09375 C -0.175781 -6.09375 -0.265625 -6.164062 -0.265625 -6.3125 C -0.265625 -6.488281 -0.175781 -6.722656 0 -7.015625 C 0.101562 -7.222656 0.316406 -7.503906 0.640625 -7.859375 C 1.992188 -9.429688 3.238281 -10.984375 4.375 -12.515625 C 5.519531 -14.046875 6.46875 -15.546875 7.21875 -17.015625 C 8.039062 -20.117188 9.078125 -21.671875 10.328125 -21.671875 C 11.148438 -21.671875 11.5625 -21.296875 11.5625 -20.546875 C 11.5625 -19.867188 11.113281 -18.976562 10.21875 -17.875 C 9.363281 -16.757812 8.9375 -16.1875 8.9375 -16.15625 C 8.9375 -15.40625 9.488281 -15.03125 10.59375 -15.03125 C 11.238281 -15.03125 11.953125 -15.265625 12.734375 -15.734375 L 14.125 -16.578125 C 14.195312 -16.617188 14.300781 -16.640625 14.4375 -16.640625 C 14.875 -16.640625 15.25 -16.457031 15.5625 -16.09375 C 15.882812 -15.738281 15.992188 -15.421875 15.890625 -15.140625 L 12.203125 -10.484375 C 9.921875 -7.554688 8.78125 -5.203125 8.78125 -3.421875 C 8.78125 -1.816406 9.5625 -1.015625 11.125 -1.015625 C 12.195312 -1.015625 13.347656 -1.332031 14.578125 -1.96875 C 15.804688 -2.613281 17 -3.410156 18.15625 -4.359375 C 19.320312 -5.304688 20.296875 -6.222656 21.078125 -7.109375 L 22.359375 -8.609375 C 22.429688 -8.679688 22.519531 -8.769531 22.625 -8.875 C 22.738281 -8.988281 22.828125 -9.046875 22.890625 -9.046875 C 23.140625 -9.046875 23.265625 -8.921875 23.265625 -8.671875 C 23.265625 -8.597656 23.226562 -8.472656 23.15625 -8.296875 C 23.09375 -8.117188 22.972656 -7.921875 22.796875 -7.703125 L 21.078125 -5.78125 C 20.253906 -4.851562 19.242188 -3.914062 18.046875 -2.96875 C 16.859375 -2.019531 15.628906 -1.242188 14.359375 -0.640625 C 13.097656 -0.0351562 11.945312 0.265625 10.90625 0.265625 Z M 10.90625 0.265625 "/></g></g></g><g fill="#ffffff" fill-opacity="1"><g transform="translate(1062.701845, 234.843498)"><g/></g></g><g fill="#ffffff" fill-opacity="1"><g transform="translate(1086.618438, 234.843498)"><g><path d="M 2.734375 0.703125 C 1.585938 0.703125 0.550781 0.335938 -0.375 -0.390625 C -1.300781 -1.128906 -1.765625 -2.101562 -1.765625 -3.3125 C -1.765625 -5.84375 -0.210938 -8.734375 2.890625 -11.984375 C 6.066406 -15.265625 8.898438 -16.90625 11.390625 -16.90625 C 12.210938 -16.90625 12.878906 -16.679688 13.390625 -16.234375 C 13.910156 -15.785156 14.171875 -15.242188 14.171875 -14.609375 C 14.171875 -12.609375 12.585938 -10.644531 9.421875 -8.71875 C 6.597656 -7.007812 4.222656 -6.15625 2.296875 -6.15625 C 2.015625 -6.15625 1.765625 -6.191406 1.546875 -6.265625 C 1.015625 -5.296875 0.75 -4.273438 0.75 -3.203125 C 0.75 -1.347656 1.625 -0.421875 3.375 -0.421875 C 5.15625 -0.421875 7.453125 -1.617188 10.265625 -4.015625 C 12.441406 -5.765625 14.300781 -7.617188 15.84375 -9.578125 C 16.15625 -10.003906 16.4375 -10.21875 16.6875 -10.21875 C 16.90625 -10.21875 17.015625 -10.109375 17.015625 -9.890625 C 17.015625 -9.679688 16.867188 -9.378906 16.578125 -8.984375 C 15.585938 -7.671875 14.519531 -6.457031 13.375 -5.34375 C 12.226562 -4.238281 11 -3.222656 9.6875 -2.296875 C 6.9375 -0.296875 4.617188 0.703125 2.734375 0.703125 Z M 3.046875 -7.328125 C 4.398438 -7.328125 6.164062 -8.003906 8.34375 -9.359375 C 9.0625 -9.859375 9.765625 -10.421875 10.453125 -11.046875 C 11.148438 -11.671875 11.722656 -12.300781 12.171875 -12.9375 C 12.617188 -13.582031 12.84375 -14.15625 12.84375 -14.65625 C 12.84375 -15.125 12.46875 -15.359375 11.71875 -15.359375 C 10.644531 -15.359375 9.144531 -14.554688 7.21875 -12.953125 C 6.289062 -12.160156 5.398438 -11.300781 4.546875 -10.375 C 3.691406 -9.445312 2.960938 -8.46875 2.359375 -7.4375 C 2.566406 -7.363281 2.796875 -7.328125 3.046875 -7.328125 Z M 3.046875 -7.328125 "/></g></g></g><g fill="#ffffff" fill-opacity="1"><g transform="translate(1113.691312, 234.843498)"><g><path d="M 1.765625 0.15625 C 1.546875 0.15625 1.238281 0.0625 0.84375 -0.125 C 0.457031 -0.320312 0.101562 -0.554688 -0.21875 -0.828125 C -0.539062 -1.097656 -0.71875 -1.335938 -0.75 -1.546875 C -0.78125 -1.835938 -0.59375 -2.648438 -0.1875 -3.984375 C 0.21875 -5.316406 0.867188 -7.144531 1.765625 -9.46875 C 2.660156 -11.820312 3.410156 -13.640625 4.015625 -14.921875 C 4.617188 -16.210938 5.0625 -16.984375 5.34375 -17.234375 C 5.488281 -17.367188 5.6875 -17.4375 5.9375 -17.4375 C 6.332031 -17.4375 6.707031 -17.265625 7.0625 -16.921875 C 7.414062 -16.585938 7.613281 -16.191406 7.65625 -15.734375 C 7.65625 -15.691406 6.757812 -13.585938 4.96875 -9.421875 C 3.226562 -5.390625 2.410156 -2.976562 2.515625 -2.1875 C 4.085938 -2.6875 6.707031 -4.453125 10.375 -7.484375 C 12.59375 -9.335938 14.191406 -11.019531 15.171875 -12.53125 C 16.148438 -14.050781 16.640625 -15.421875 16.640625 -16.640625 C 16.640625 -17.347656 16.46875 -17.992188 16.125 -18.578125 C 15.789062 -19.171875 15.175781 -19.664062 14.28125 -20.0625 C 14.03125 -20.164062 13.90625 -20.328125 13.90625 -20.546875 C 13.90625 -20.867188 14.101562 -21.03125 14.5 -21.03125 C 15.53125 -21.03125 16.425781 -20.691406 17.1875 -20.015625 C 17.957031 -19.335938 18.34375 -18.316406 18.34375 -16.953125 C 18.34375 -15.523438 17.738281 -13.910156 16.53125 -12.109375 C 15.320312 -10.316406 13.59375 -8.398438 11.34375 -6.359375 C 9.382812 -4.617188 7.609375 -3.191406 6.015625 -2.078125 C 4.429688 -0.972656 3.015625 -0.226562 1.765625 0.15625 Z M 1.765625 0.15625 "/></g></g></g><g fill="#ffffff" fill-opacity="1"><g transform="translate(1143.118007, 234.843498)"><g><path d="M 2.734375 0.703125 C 1.585938 0.703125 0.550781 0.335938 -0.375 -0.390625 C -1.300781 -1.128906 -1.765625 -2.101562 -1.765625 -3.3125 C -1.765625 -5.84375 -0.210938 -8.734375 2.890625 -11.984375 C 6.066406 -15.265625 8.898438 -16.90625 11.390625 -16.90625 C 12.210938 -16.90625 12.878906 -16.679688 13.390625 -16.234375 C 13.910156 -15.785156 14.171875 -15.242188 14.171875 -14.609375 C 14.171875 -12.609375 12.585938 -10.644531 9.421875 -8.71875 C 6.597656 -7.007812 4.222656 -6.15625 2.296875 -6.15625 C 2.015625 -6.15625 1.765625 -6.191406 1.546875 -6.265625 C 1.015625 -5.296875 0.75 -4.273438 0.75 -3.203125 C 0.75 -1.347656 1.625 -0.421875 3.375 -0.421875 C 5.15625 -0.421875 7.453125 -1.617188 10.265625 -4.015625 C 12.441406 -5.765625 14.300781 -7.617188 15.84375 -9.578125 C 16.15625 -10.003906 16.4375 -10.21875 16.6875 -10.21875 C 16.90625 -10.21875 17.015625 -10.109375 17.015625 -9.890625 C 17.015625 -9.679688 16.867188 -9.378906 16.578125 -8.984375 C 15.585938 -7.671875 14.519531 -6.457031 13.375 -5.34375 C 12.226562 -4.238281 11 -3.222656 9.6875 -2.296875 C 6.9375 -0.296875 4.617188 0.703125 2.734375 0.703125 Z M 3.046875 -7.328125 C 4.398438 -7.328125 6.164062 -8.003906 8.34375 -9.359375 C 9.0625 -9.859375 9.765625 -10.421875 10.453125 -11.046875 C 11.148438 -11.671875 11.722656 -12.300781 12.171875 -12.9375 C 12.617188 -13.582031 12.84375 -14.15625 12.84375 -14.65625 C 12.84375 -15.125 12.46875 -15.359375 11.71875 -15.359375 C 10.644531 -15.359375 9.144531 -14.554688 7.21875 -12.953125 C 6.289062 -12.160156 5.398438 -11.300781 4.546875 -10.375 C 3.691406 -9.445312 2.960938 -8.46875 2.359375 -7.4375 C 2.566406 -7.363281 2.796875 -7.328125 3.046875 -7.328125 Z M 3.046875 -7.328125 "/></g></g></g><g fill="#ffffff" fill-opacity="1"><g transform="translate(1170.190881, 234.843498)"><g><path d="M 13.640625 0.109375 C 12.679688 0.109375 12.003906 -0.164062 11.609375 -0.71875 C 11.210938 -1.269531 11.015625 -1.957031 11.015625 -2.78125 C 11.015625 -4.851562 11.726562 -7.066406 13.15625 -9.421875 L 16.578125 -14.984375 C 14.160156 -13.203125 11.753906 -10.972656 9.359375 -8.296875 C 8.722656 -7.578125 8 -6.734375 7.1875 -5.765625 C 6.382812 -4.804688 5.503906 -3.707031 4.546875 -2.46875 C 3.265625 -0.789062 2.5 0.046875 2.25 0.046875 C 1.75 0.046875 1.335938 -0.171875 1.015625 -0.609375 C 0.691406 -1.054688 0.53125 -1.457031 0.53125 -1.8125 C 0.53125 -2.101562 0.617188 -2.628906 0.796875 -3.390625 C 0.972656 -4.160156 1.1875 -4.832031 1.4375 -5.40625 C 1.6875 -6.007812 1.945312 -6.601562 2.21875 -7.1875 C 2.488281 -7.78125 2.75 -8.363281 3 -8.9375 L -0.21875 -5.5625 C -0.289062 -5.488281 -0.503906 -5.273438 -0.859375 -4.921875 C -1.210938 -4.566406 -1.5 -4.390625 -1.71875 -4.390625 C -1.894531 -4.390625 -1.984375 -4.515625 -1.984375 -4.765625 C -1.984375 -4.835938 -1.953125 -4.9375 -1.890625 -5.0625 C -1.835938 -5.1875 -1.722656 -5.335938 -1.546875 -5.515625 C -1.015625 -6.046875 -0.460938 -6.613281 0.109375 -7.21875 C 0.679688 -7.820312 1.269531 -8.519531 1.875 -9.3125 C 2.195312 -9.695312 2.675781 -10.289062 3.3125 -11.09375 C 3.957031 -11.90625 4.660156 -12.773438 5.421875 -13.703125 C 6.191406 -14.628906 6.914062 -15.484375 7.59375 -16.265625 C 7.769531 -16.515625 7.960938 -16.679688 8.171875 -16.765625 C 8.390625 -16.859375 8.535156 -16.90625 8.609375 -16.90625 C 9.578125 -16.90625 10.0625 -16.53125 10.0625 -15.78125 C 10.0625 -15.570312 10.003906 -15.359375 9.890625 -15.140625 C 6.679688 -10.710938 4.757812 -7.34375 4.125 -5.03125 C 8.257812 -9.164062 11.582031 -12.273438 14.09375 -14.359375 C 16.613281 -16.453125 18.40625 -17.5 19.46875 -17.5 C 20.039062 -17.5 20.476562 -17.40625 20.78125 -17.21875 C 21.082031 -17.039062 21.234375 -16.703125 21.234375 -16.203125 C 21.234375 -16.023438 21.21875 -15.882812 21.1875 -15.78125 C 21.082031 -15.53125 20.351562 -14.53125 19 -12.78125 C 18.175781 -11.78125 17.453125 -10.867188 16.828125 -10.046875 C 16.203125 -9.234375 15.691406 -8.523438 15.296875 -7.921875 C 14.660156 -6.921875 14.179688 -5.984375 13.859375 -5.109375 C 13.535156 -4.234375 13.375 -3.492188 13.375 -2.890625 C 13.375 -2.640625 13.410156 -2.332031 13.484375 -1.96875 C 13.554688 -1.613281 13.769531 -1.4375 14.125 -1.4375 C 14.945312 -1.4375 16.226562 -2.148438 17.96875 -3.578125 C 18.789062 -4.296875 19.554688 -5.019531 20.265625 -5.75 C 20.984375 -6.476562 21.664062 -7.203125 22.3125 -7.921875 C 22.457031 -8.054688 22.6875 -8.328125 23 -8.734375 C 23.320312 -9.148438 23.519531 -9.359375 23.59375 -9.359375 C 23.738281 -9.359375 23.8125 -9.21875 23.8125 -8.9375 C 23.8125 -8.789062 23.726562 -8.546875 23.5625 -8.203125 C 23.40625 -7.867188 23.238281 -7.613281 23.0625 -7.4375 C 22.664062 -6.96875 22.082031 -6.320312 21.3125 -5.5 C 20.550781 -4.6875 19.695312 -3.851562 18.75 -3 C 17.800781 -2.144531 16.878906 -1.410156 15.984375 -0.796875 C 15.097656 -0.191406 14.316406 0.109375 13.640625 0.109375 Z M 13.640625 0.109375 "/></g></g></g><g fill="#ffffff" fill-opacity="1"><g transform="translate(1205.074209, 234.843498)"><g><path d="M 3.3125 0.328125 C 2.175781 0.328125 1.273438 0.0507812 0.609375 -0.5 C -0.046875 -1.0625 -0.375 -2.054688 -0.375 -3.484375 C -0.375 -4.296875 -0.125 -5.332031 0.375 -6.59375 C 0.875 -7.863281 1.5 -9.226562 2.25 -10.6875 C 3 -12.15625 3.75 -13.601562 4.5 -15.03125 C 4.03125 -14.925781 3.617188 -14.875 3.265625 -14.875 C 2.191406 -14.875 1.65625 -15.285156 1.65625 -16.109375 C 1.65625 -16.492188 1.804688 -16.789062 2.109375 -17 C 2.410156 -17.21875 2.6875 -17.347656 2.9375 -17.390625 C 2.9375 -17.390625 2.976562 -17.390625 3.0625 -17.390625 C 3.15625 -17.390625 3.273438 -17.40625 3.421875 -17.4375 L 6.53125 -17.4375 C 7.164062 -18.257812 7.820312 -19.132812 8.5 -20.0625 C 9.46875 -21.269531 10.238281 -21.984375 10.8125 -22.203125 L 10.96875 -22.203125 C 11.21875 -22.203125 11.570312 -22.078125 12.03125 -21.828125 C 12.601562 -21.503906 12.890625 -21.179688 12.890625 -20.859375 C 12.890625 -20.398438 12.035156 -19.207031 10.328125 -17.28125 C 10.648438 -17.25 11.113281 -17.234375 11.71875 -17.234375 C 12.320312 -17.234375 13.070312 -17.234375 13.96875 -17.234375 C 14.394531 -17.234375 15.007812 -17.234375 15.8125 -17.234375 C 16.613281 -17.234375 17.453125 -17.238281 18.328125 -17.25 C 19.203125 -17.269531 19.957031 -17.285156 20.59375 -17.296875 C 21.238281 -17.316406 21.597656 -17.328125 21.671875 -17.328125 C 21.773438 -17.296875 21.828125 -17.242188 21.828125 -17.171875 C 21.828125 -16.847656 19.722656 -16.421875 15.515625 -15.890625 C 13.128906 -15.566406 11.300781 -15.316406 10.03125 -15.140625 C 8.757812 -14.960938 8.070312 -14.851562 7.96875 -14.8125 C 7.46875 -14.382812 6.859375 -13.65625 6.140625 -12.625 C 5.429688 -11.59375 4.71875 -10.429688 4 -9.140625 C 3.289062 -7.859375 2.695312 -6.640625 2.21875 -5.484375 C 1.738281 -4.328125 1.5 -3.425781 1.5 -2.78125 C 1.5 -2.207031 1.710938 -1.734375 2.140625 -1.359375 C 2.566406 -0.984375 3.257812 -0.796875 4.21875 -0.796875 C 4.863281 -0.796875 5.628906 -0.9375 6.515625 -1.21875 C 7.410156 -1.507812 8.257812 -1.84375 9.0625 -2.21875 C 9.863281 -2.59375 10.445312 -2.890625 10.8125 -3.109375 C 11.738281 -3.671875 12.757812 -4.425781 13.875 -5.375 C 15 -6.320312 16.117188 -7.398438 17.234375 -8.609375 C 17.722656 -9.109375 18.0625 -9.359375 18.25 -9.359375 C 18.351562 -9.359375 18.40625 -9.289062 18.40625 -9.15625 C 18.40625 -8.863281 18.132812 -8.394531 17.59375 -7.75 C 16.738281 -6.71875 15.785156 -5.726562 14.734375 -4.78125 C 13.679688 -3.84375 12.515625 -2.976562 11.234375 -2.1875 C 9.773438 -1.300781 8.375 -0.660156 7.03125 -0.265625 C 5.695312 0.128906 4.457031 0.328125 3.3125 0.328125 Z M 3.3125 0.328125 "/></g></g></g><g fill="#ffffff" fill-opacity="1"><g transform="translate(1234.286945, 234.843498)"><g/></g></g><g fill="#ffffff" fill-opacity="1"><g transform="translate(1258.203538, 234.843498)"><g><path d="M 13.640625 0.109375 C 12.679688 0.109375 12.003906 -0.164062 11.609375 -0.71875 C 11.210938 -1.269531 11.015625 -1.957031 11.015625 -2.78125 C 11.015625 -4.851562 11.726562 -7.066406 13.15625 -9.421875 L 16.578125 -14.984375 C 14.160156 -13.203125 11.753906 -10.972656 9.359375 -8.296875 C 8.722656 -7.578125 8 -6.734375 7.1875 -5.765625 C 6.382812 -4.804688 5.503906 -3.707031 4.546875 -2.46875 C 3.265625 -0.789062 2.5 0.046875 2.25 0.046875 C 1.75 0.046875 1.335938 -0.171875 1.015625 -0.609375 C 0.691406 -1.054688 0.53125 -1.457031 0.53125 -1.8125 C 0.53125 -2.101562 0.617188 -2.628906 0.796875 -3.390625 C 0.972656 -4.160156 1.1875 -4.832031 1.4375 -5.40625 C 1.6875 -6.007812 1.945312 -6.601562 2.21875 -7.1875 C 2.488281 -7.78125 2.75 -8.363281 3 -8.9375 L -0.21875 -5.5625 C -0.289062 -5.488281 -0.503906 -5.273438 -0.859375 -4.921875 C -1.210938 -4.566406 -1.5 -4.390625 -1.71875 -4.390625 C -1.894531 -4.390625 -1.984375 -4.515625 -1.984375 -4.765625 C -1.984375 -4.835938 -1.953125 -4.9375 -1.890625 -5.0625 C -1.835938 -5.1875 -1.722656 -5.335938 -1.546875 -5.515625 C -1.015625 -6.046875 -0.460938 -6.613281 0.109375 -7.21875 C 0.679688 -7.820312 1.269531 -8.519531 1.875 -9.3125 C 2.195312 -9.695312 2.675781 -10.289062 3.3125 -11.09375 C 3.957031 -11.90625 4.660156 -12.773438 5.421875 -13.703125 C 6.191406 -14.628906 6.914062 -15.484375 7.59375 -16.265625 C 7.769531 -16.515625 7.960938 -16.679688 8.171875 -16.765625 C 8.390625 -16.859375 8.535156 -16.90625 8.609375 -16.90625 C 9.578125 -16.90625 10.0625 -16.53125 10.0625 -15.78125 C 10.0625 -15.570312 10.003906 -15.359375 9.890625 -15.140625 C 6.679688 -10.710938 4.757812 -7.34375 4.125 -5.03125 C 8.257812 -9.164062 11.582031 -12.273438 14.09375 -14.359375 C 16.613281 -16.453125 18.40625 -17.5 19.46875 -17.5 C 20.039062 -17.5 20.476562 -17.40625 20.78125 -17.21875 C 21.082031 -17.039062 21.234375 -16.703125 21.234375 -16.203125 C 21.234375 -16.023438 21.21875 -15.882812 21.1875 -15.78125 C 21.082031 -15.53125 20.351562 -14.53125 19 -12.78125 C 18.175781 -11.78125 17.453125 -10.867188 16.828125 -10.046875 C 16.203125 -9.234375 15.691406 -8.523438 15.296875 -7.921875 C 14.660156 -6.921875 14.179688 -5.984375 13.859375 -5.109375 C 13.535156 -4.234375 13.375 -3.492188 13.375 -2.890625 C 13.375 -2.640625 13.410156 -2.332031 13.484375 -1.96875 C 13.554688 -1.613281 13.769531 -1.4375 14.125 -1.4375 C 14.945312 -1.4375 16.226562 -2.148438 17.96875 -3.578125 C 18.789062 -4.296875 19.554688 -5.019531 20.265625 -5.75 C 20.984375 -6.476562 21.664062 -7.203125 22.3125 -7.921875 C 22.457031 -8.054688 22.6875 -8.328125 23 -8.734375 C 23.320312 -9.148438 23.519531 -9.359375 23.59375 -9.359375 C 23.738281 -9.359375 23.8125 -9.21875 23.8125 -8.9375 C 23.8125 -8.789062 23.726562 -8.546875 23.5625 -8.203125 C 23.40625 -7.867188 23.238281 -7.613281 23.0625 -7.4375 C 22.664062 -6.96875 22.082031 -6.320312 21.3125 -5.5 C 20.550781 -4.6875 19.695312 -3.851562 18.75 -3 C 17.800781 -2.144531 16.878906 -1.410156 15.984375 -0.796875 C 15.097656 -0.191406 14.316406 0.109375 13.640625 0.109375 Z M 13.640625 0.109375 "/></g></g></g><g fill="#ffffff" fill-opacity="1"><g transform="translate(1293.086867, 234.843498)"><g><path d="M 2.734375 0.703125 C 1.585938 0.703125 0.550781 0.335938 -0.375 -0.390625 C -1.300781 -1.128906 -1.765625 -2.101562 -1.765625 -3.3125 C -1.765625 -5.84375 -0.210938 -8.734375 2.890625 -11.984375 C 6.066406 -15.265625 8.898438 -16.90625 11.390625 -16.90625 C 12.210938 -16.90625 12.878906 -16.679688 13.390625 -16.234375 C 13.910156 -15.785156 14.171875 -15.242188 14.171875 -14.609375 C 14.171875 -12.609375 12.585938 -10.644531 9.421875 -8.71875 C 6.597656 -7.007812 4.222656 -6.15625 2.296875 -6.15625 C 2.015625 -6.15625 1.765625 -6.191406 1.546875 -6.265625 C 1.015625 -5.296875 0.75 -4.273438 0.75 -3.203125 C 0.75 -1.347656 1.625 -0.421875 3.375 -0.421875 C 5.15625 -0.421875 7.453125 -1.617188 10.265625 -4.015625 C 12.441406 -5.765625 14.300781 -7.617188 15.84375 -9.578125 C 16.15625 -10.003906 16.4375 -10.21875 16.6875 -10.21875 C 16.90625 -10.21875 17.015625 -10.109375 17.015625 -9.890625 C 17.015625 -9.679688 16.867188 -9.378906 16.578125 -8.984375 C 15.585938 -7.671875 14.519531 -6.457031 13.375 -5.34375 C 12.226562 -4.238281 11 -3.222656 9.6875 -2.296875 C 6.9375 -0.296875 4.617188 0.703125 2.734375 0.703125 Z M 3.046875 -7.328125 C 4.398438 -7.328125 6.164062 -8.003906 8.34375 -9.359375 C 9.0625 -9.859375 9.765625 -10.421875 10.453125 -11.046875 C 11.148438 -11.671875 11.722656 -12.300781 12.171875 -12.9375 C 12.617188 -13.582031 12.84375 -14.15625 12.84375 -14.65625 C 12.84375 -15.125 12.46875 -15.359375 11.71875 -15.359375 C 10.644531 -15.359375 9.144531 -14.554688 7.21875 -12.953125 C 6.289062 -12.160156 5.398438 -11.300781 4.546875 -10.375 C 3.691406 -9.445312 2.960938 -8.46875 2.359375 -7.4375 C 2.566406 -7.363281 2.796875 -7.328125 3.046875 -7.328125 Z M 3.046875 -7.328125 "/></g></g></g><g fill="#ffffff" fill-opacity="1"><g transform="translate(1320.15974, 234.843498)"><g><path d="M 2.734375 0.703125 C 1.585938 0.703125 0.550781 0.335938 -0.375 -0.390625 C -1.300781 -1.128906 -1.765625 -2.101562 -1.765625 -3.3125 C -1.765625 -5.84375 -0.210938 -8.734375 2.890625 -11.984375 C 6.066406 -15.265625 8.898438 -16.90625 11.390625 -16.90625 C 12.210938 -16.90625 12.878906 -16.679688 13.390625 -16.234375 C 13.910156 -15.785156 14.171875 -15.242188 14.171875 -14.609375 C 14.171875 -12.609375 12.585938 -10.644531 9.421875 -8.71875 C 6.597656 -7.007812 4.222656 -6.15625 2.296875 -6.15625 C 2.015625 -6.15625 1.765625 -6.191406 1.546875 -6.265625 C 1.015625 -5.296875 0.75 -4.273438 0.75 -3.203125 C 0.75 -1.347656 1.625 -0.421875 3.375 -0.421875 C 5.15625 -0.421875 7.453125 -1.617188 10.265625 -4.015625 C 12.441406 -5.765625 14.300781 -7.617188 15.84375 -9.578125 C 16.15625 -10.003906 16.4375 -10.21875 16.6875 -10.21875 C 16.90625 -10.21875 17.015625 -10.109375 17.015625 -9.890625 C 17.015625 -9.679688 16.867188 -9.378906 16.578125 -8.984375 C 15.585938 -7.671875 14.519531 -6.457031 13.375 -5.34375 C 12.226562 -4.238281 11 -3.222656 9.6875 -2.296875 C 6.9375 -0.296875 4.617188 0.703125 2.734375 0.703125 Z M 3.046875 -7.328125 C 4.398438 -7.328125 6.164062 -8.003906 8.34375 -9.359375 C 9.0625 -9.859375 9.765625 -10.421875 10.453125 -11.046875 C 11.148438 -11.671875 11.722656 -12.300781 12.171875 -12.9375 C 12.617188 -13.582031 12.84375 -14.15625 12.84375 -14.65625 C 12.84375 -15.125 12.46875 -15.359375 11.71875 -15.359375 C 10.644531 -15.359375 9.144531 -14.554688 7.21875 -12.953125 C 6.289062 -12.160156 5.398438 -11.300781 4.546875 -10.375 C 3.691406 -9.445312 2.960938 -8.46875 2.359375 -7.4375 C 2.566406 -7.363281 2.796875 -7.328125 3.046875 -7.328125 Z M 3.046875 -7.328125 "/></g></g></g><g fill="#ffffff" fill-opacity="1"><g transform="translate(1347.232614, 234.843498)"><g><path d="M 3.578125 0.265625 C 2.515625 0.265625 1.609375 -0.0234375 0.859375 -0.609375 C 0.109375 -1.203125 -0.316406 -1.925781 -0.421875 -2.78125 C -0.566406 -3.925781 -0.398438 -5.078125 0.078125 -6.234375 C 0.554688 -7.390625 1.210938 -8.503906 2.046875 -9.578125 C 2.890625 -10.648438 3.796875 -11.648438 4.765625 -12.578125 C 8.546875 -16.359375 11.953125 -18.25 14.984375 -18.25 C 16.015625 -18.25 16.707031 -17.976562 17.0625 -17.4375 C 17.207031 -17.257812 17.367188 -16.847656 17.546875 -16.203125 C 21.546875 -22.703125 24.328125 -25.953125 25.890625 -25.953125 C 26.242188 -25.953125 26.617188 -25.859375 27.015625 -25.671875 C 27.410156 -25.492188 27.609375 -25.265625 27.609375 -24.984375 C 27.609375 -24.804688 27.519531 -24.570312 27.34375 -24.28125 C 26.269531 -22.96875 25.195312 -21.660156 24.125 -20.359375 C 23.0625 -19.054688 22.007812 -17.742188 20.96875 -16.421875 C 19.21875 -14.210938 17.804688 -12.285156 16.734375 -10.640625 C 15.671875 -9.003906 14.90625 -7.613281 14.4375 -6.46875 C 14.300781 -6.113281 14.171875 -5.675781 14.046875 -5.15625 C 13.921875 -4.644531 13.859375 -4.117188 13.859375 -3.578125 C 13.859375 -2.898438 14 -2.3125 14.28125 -1.8125 C 14.570312 -1.3125 15.09375 -1.0625 15.84375 -1.0625 C 17.007812 -1.0625 18.445312 -1.632812 20.15625 -2.78125 C 21.875 -3.925781 23.875 -5.800781 26.15625 -8.40625 C 26.300781 -8.539062 26.4375 -8.660156 26.5625 -8.765625 C 26.6875 -8.878906 26.820312 -8.953125 26.96875 -8.984375 C 27.289062 -9.054688 27.453125 -8.988281 27.453125 -8.78125 C 27.453125 -8.664062 27.34375 -8.46875 27.125 -8.1875 C 26.019531 -6.863281 24.789062 -5.5625 23.4375 -4.28125 C 22.082031 -3 20.695312 -1.9375 19.28125 -1.09375 C 17.875 -0.257812 16.566406 0.15625 15.359375 0.15625 C 14.140625 0.15625 13.28125 -0.25 12.78125 -1.0625 C 12.28125 -1.882812 12.03125 -2.816406 12.03125 -3.859375 C 12.03125 -4.921875 12.226562 -5.898438 12.625 -6.796875 L 8.296875 -2.46875 C 7.328125 -1.5 6.441406 -0.800781 5.640625 -0.375 C 4.835938 0.0507812 4.148438 0.265625 3.578125 0.265625 Z M 3.109375 -0.90625 C 4.640625 -0.90625 7.1875 -3.007812 10.75 -7.21875 C 10.925781 -7.4375 11.550781 -8.226562 12.625 -9.59375 C 13.695312 -10.96875 15.210938 -12.976562 17.171875 -15.625 C 16.921875 -16.050781 16.492188 -16.265625 15.890625 -16.265625 C 13.679688 -16.265625 10.722656 -14.515625 7.015625 -11.015625 C 3.515625 -7.773438 1.765625 -5.046875 1.765625 -2.828125 C 1.765625 -1.546875 2.210938 -0.90625 3.109375 -0.90625 Z M 3.109375 -0.90625 "/></g></g></g><g fill="#ffffff" fill-opacity="1"><g transform="translate(1385.539649, 234.843498)"><g><path d="M 6.15625 0.109375 C 4.476562 0.109375 3.238281 -0.441406 2.4375 -1.546875 C 1.632812 -2.648438 0.984375 -4.1875 0.484375 -6.15625 C -0.160156 -5.507812 -0.609375 -5.1875 -0.859375 -5.1875 C -1.035156 -5.1875 -1.125 -5.332031 -1.125 -5.625 C -1.125 -5.832031 -1.035156 -6.023438 -0.859375 -6.203125 C -0.859375 -6.203125 -0.40625 -6.753906 0.5 -7.859375 C 1.414062 -8.960938 2.960938 -10.515625 5.140625 -12.515625 L 11.875 -18.828125 C 12.800781 -19.722656 13.539062 -20.398438 14.09375 -20.859375 C 14.644531 -21.328125 15.046875 -21.5625 15.296875 -21.5625 C 16.441406 -21.5625 17.015625 -21.132812 17.015625 -20.28125 C 17.015625 -19.851562 16.78125 -19.351562 16.3125 -18.78125 C 15.957031 -18.351562 15.695312 -18.019531 15.53125 -17.78125 C 15.375 -17.550781 15.28125 -17.421875 15.25 -17.390625 C 14.601562 -16.285156 14.015625 -14.304688 13.484375 -11.453125 C 13.085938 -9.347656 12.742188 -7.613281 12.453125 -6.25 C 12.171875 -4.894531 11.941406 -3.914062 11.765625 -3.3125 C 13.265625 -3.351562 14.742188 -3.816406 16.203125 -4.703125 C 17.671875 -5.597656 19.242188 -7.0625 20.921875 -9.09375 C 20.992188 -9.164062 21.097656 -9.269531 21.234375 -9.40625 C 21.378906 -9.550781 21.523438 -9.625 21.671875 -9.625 C 21.878906 -9.625 21.984375 -9.535156 21.984375 -9.359375 C 21.984375 -9.179688 21.929688 -9.003906 21.828125 -8.828125 C 21.722656 -8.648438 21.613281 -8.488281 21.5 -8.34375 C 20.394531 -7.019531 19.359375 -5.941406 18.390625 -5.109375 C 17.429688 -4.273438 16.414062 -3.613281 15.34375 -3.125 C 14.28125 -2.644531 13.019531 -2.242188 11.5625 -1.921875 L 9.84375 -0.796875 C 9.382812 -0.484375 8.832031 -0.253906 8.1875 -0.109375 C 7.539062 0.0351562 6.863281 0.109375 6.15625 0.109375 Z M 6.796875 -2.625 C 7.617188 -2.625 8.296875 -2.816406 8.828125 -3.203125 C 9.222656 -3.421875 9.609375 -4.019531 9.984375 -5 C 10.359375 -5.976562 10.722656 -7.203125 11.078125 -8.671875 C 11.359375 -9.921875 11.578125 -11.140625 11.734375 -12.328125 C 11.898438 -13.523438 12.054688 -14.675781 12.203125 -15.78125 L 12.40625 -17.59375 C 11.59375 -16.988281 10.5625 -16.113281 9.3125 -14.96875 C 8.0625 -13.832031 6.832031 -12.640625 5.625 -11.390625 C 4.40625 -10.140625 3.617188 -9.21875 3.265625 -8.625 C 2.910156 -8.039062 2.710938 -7.609375 2.671875 -7.328125 C 2.535156 -5.898438 2.882812 -4.757812 3.71875 -3.90625 C 4.550781 -3.050781 5.578125 -2.625 6.796875 -2.625 Z M 6.796875 -2.625 "/></g></g></g><g fill="#ffffff" fill-opacity="1"><g transform="translate(1418.069157, 234.843498)"><g><path d="M -0.046875 -15.671875 C -0.191406 -15.710938 -0.265625 -15.769531 -0.265625 -15.84375 C -0.265625 -15.84375 0.144531 -16.304688 0.96875 -17.234375 C 1.820312 -18.160156 2.195312 -18.992188 2.09375 -19.734375 C 2.050781 -20.128906 1.796875 -20.476562 1.328125 -20.78125 C 0.867188 -21.082031 0.640625 -21.394531 0.640625 -21.71875 C 0.640625 -22.789062 1.15625 -23.328125 2.1875 -23.328125 C 2.6875 -23.328125 3.1875 -23.15625 3.6875 -22.8125 C 4.1875 -22.476562 4.4375 -22.0625 4.4375 -21.5625 C 4.4375 -20.03125 3.796875 -18.585938 2.515625 -17.234375 C 1.367188 -16.054688 0.515625 -15.535156 -0.046875 -15.671875 Z M 5.40625 -15.671875 C 5.257812 -15.710938 5.1875 -15.769531 5.1875 -15.84375 C 5.1875 -15.90625 5.578125 -16.382812 6.359375 -17.28125 C 7.179688 -18.207031 7.554688 -19.023438 7.484375 -19.734375 C 7.453125 -20.128906 7.203125 -20.476562 6.734375 -20.78125 C 6.273438 -21.082031 6.046875 -21.394531 6.046875 -21.71875 C 6.046875 -22.789062 6.582031 -23.328125 7.65625 -23.328125 C 8.15625 -23.328125 8.644531 -23.15625 9.125 -22.8125 C 9.601562 -22.476562 9.84375 -22.0625 9.84375 -21.5625 C 9.84375 -20.03125 9.21875 -18.585938 7.96875 -17.234375 C 6.832031 -16.054688 5.976562 -15.535156 5.40625 -15.671875 Z M 5.40625 -15.671875 "/></g></g></g></svg>